<mxfile host="app.diagrams.net" modified="2023-11-14T02:55:05.019Z" agent="Mozilla/5.0 (Windows NT 10.0; Win64; x64) AppleWebKit/537.36 (KHTML, like Gecko) Chrome/119.0.0.0 Safari/537.36" etag="F6tddc1qzKd66GAXbWfL" version="22.1.0" type="device" pages="2">
  <diagram name="Course" id="Ak_o-vOvwZoR_2kydc3W">
    <mxGraphModel dx="792" dy="790" grid="1" gridSize="10" guides="1" tooltips="1" connect="1" arrows="1" fold="1" page="1" pageScale="1" pageWidth="850" pageHeight="1100" math="0" shadow="0">
      <root>
        <mxCell id="0" />
        <mxCell id="1" parent="0" />
        <mxCell id="M_l_yNQI8Pea0Poj9dhU-1" value="Courses" style="html=1;shadow=0;dashed=0;shape=mxgraph.bootstrap.rrect;rSize=5;strokeWidth=1;whiteSpace=wrap;align=left;verticalAlign=middle;fontStyle=0;fontSize=14;spacingLeft=10;" vertex="1" parent="1">
          <mxGeometry x="40" y="40" width="140" height="40" as="geometry" />
        </mxCell>
        <mxCell id="M_l_yNQI8Pea0Poj9dhU-2" value="" style="shape=triangle;direction=south;fillColor=#647687;strokeColor=#314354;perimeter=none;fontColor=#ffffff;" vertex="1" parent="M_l_yNQI8Pea0Poj9dhU-1">
          <mxGeometry x="1" y="0.5" width="10" height="5" relative="1" as="geometry">
            <mxPoint x="-17" y="-2.5" as="offset" />
          </mxGeometry>
        </mxCell>
        <mxCell id="M_l_yNQI8Pea0Poj9dhU-3" value="" style="html=1;shadow=0;dashed=0;shape=mxgraph.bootstrap.rrect;rSize=5;fillColor=#ffffff;strokeColor=#999999;" vertex="1" parent="1">
          <mxGeometry x="40" y="83" width="170" height="110" as="geometry" />
        </mxCell>
        <mxCell id="M_l_yNQI8Pea0Poj9dhU-4" value="Augusta National" style="fillColor=none;strokeColor=none;align=left;spacing=20;fontSize=14;" vertex="1" parent="M_l_yNQI8Pea0Poj9dhU-3">
          <mxGeometry width="170" height="30" relative="1" as="geometry">
            <mxPoint y="10" as="offset" />
          </mxGeometry>
        </mxCell>
        <mxCell id="M_l_yNQI8Pea0Poj9dhU-5" value="Bartosrol" style="fillColor=none;strokeColor=none;align=left;spacing=20;fontSize=14;" vertex="1" parent="M_l_yNQI8Pea0Poj9dhU-3">
          <mxGeometry width="170" height="30" relative="1" as="geometry">
            <mxPoint y="40" as="offset" />
          </mxGeometry>
        </mxCell>
        <mxCell id="M_l_yNQI8Pea0Poj9dhU-6" value="Old Stanwich" style="fillColor=none;strokeColor=none;align=left;spacing=20;fontSize=14;" vertex="1" parent="M_l_yNQI8Pea0Poj9dhU-3">
          <mxGeometry width="170" height="30" relative="1" as="geometry">
            <mxPoint y="70" as="offset" />
          </mxGeometry>
        </mxCell>
        <mxCell id="M_l_yNQI8Pea0Poj9dhU-7" value="Add Course" style="rounded=1;fillColor=#fff2cc;strokeColor=#d6b656;html=1;whiteSpace=wrap;align=center;verticalAlign=middle;fontStyle=0;fontSize=12;sketch=0;" vertex="1" parent="1">
          <mxGeometry x="40" y="210" width="86" height="33" as="geometry" />
        </mxCell>
        <mxCell id="M_l_yNQI8Pea0Poj9dhU-10" value="Course Name" style="fillColor=none;strokeColor=none;align=left;fontSize=14;" vertex="1" parent="1">
          <mxGeometry width="260" height="40" relative="1" as="geometry">
            <mxPoint x="40" y="260" as="offset" />
          </mxGeometry>
        </mxCell>
        <mxCell id="M_l_yNQI8Pea0Poj9dhU-11" value="" style="html=1;shadow=0;dashed=0;shape=mxgraph.bootstrap.rrect;rSize=5;fillColor=none;strokeColor=#999999;align=left;spacing=15;fontSize=14;fontColor=#6C767D;" vertex="1" parent="1">
          <mxGeometry width="800" height="30" relative="1" as="geometry">
            <mxPoint x="40" y="300" as="offset" />
          </mxGeometry>
        </mxCell>
        <mxCell id="M_l_yNQI8Pea0Poj9dhU-16" value="Save" style="html=1;shadow=0;dashed=0;shape=mxgraph.bootstrap.rrect;rSize=5;fillColor=#0085FC;strokeColor=none;align=center;fontSize=14;fontColor=#FFFFFF;" vertex="1" parent="1">
          <mxGeometry width="70" height="40" relative="1" as="geometry">
            <mxPoint x="40" y="480" as="offset" />
          </mxGeometry>
        </mxCell>
        <mxCell id="M_l_yNQI8Pea0Poj9dhU-17" value="Tees" style="fillColor=none;strokeColor=none;align=left;fontSize=14;" vertex="1" parent="1">
          <mxGeometry x="40" y="340" width="260" height="40" as="geometry" />
        </mxCell>
        <mxCell id="M_l_yNQI8Pea0Poj9dhU-18" value="Tee" style="html=1;shadow=0;dashed=0;shape=mxgraph.bootstrap.rrect;rSize=5;fillColor=#ffffff;strokeColor=#999999;align=left;spacing=15;fontSize=14;fontColor=#6C767D;" vertex="1" parent="1">
          <mxGeometry x="80" y="380" width="200" height="30" as="geometry" />
        </mxCell>
        <mxCell id="M_l_yNQI8Pea0Poj9dhU-25" value="" style="verticalLabelPosition=bottom;verticalAlign=top;html=1;shadow=0;dashed=0;strokeWidth=1;shape=mxgraph.ios.iAddIcon;fillColor=#7AdF78;fillColor2=#1A9917;strokeColor=#ffffff;sketch=0;" vertex="1" parent="1">
          <mxGeometry x="50" y="383.75" width="20" height="22.5" as="geometry" />
        </mxCell>
        <mxCell id="M_l_yNQI8Pea0Poj9dhU-31" value="" style="verticalLabelPosition=bottom;verticalAlign=top;html=1;shadow=0;dashed=0;strokeWidth=1;shape=mxgraph.android.switch_on;fillColor=#E6E6E6;sketch=0;" vertex="1" parent="1">
          <mxGeometry x="300" y="385" width="80" height="20" as="geometry" />
        </mxCell>
        <mxCell id="M_l_yNQI8Pea0Poj9dhU-32" value="rating" style="strokeWidth=1;shadow=0;dashed=0;align=center;html=1;shape=mxgraph.mockup.forms.spinner;strokeColor=#999999;spinLayout=right;spinStyle=normal;adjStyle=triangle;fillColor=#aaddff;fontSize=17;fontColor=#666666;mainText=;html=1;overflow=fill;" vertex="1" parent="1">
          <mxGeometry x="390" y="380" width="150" height="30" as="geometry" />
        </mxCell>
        <mxCell id="M_l_yNQI8Pea0Poj9dhU-33" value="slope" style="strokeWidth=1;shadow=0;dashed=0;align=center;html=1;shape=mxgraph.mockup.forms.spinner;strokeColor=#999999;spinLayout=right;spinStyle=normal;adjStyle=triangle;fillColor=#aaddff;fontSize=17;fontColor=#666666;mainText=;html=1;overflow=fill;" vertex="1" parent="1">
          <mxGeometry x="550" y="380" width="150" height="30" as="geometry" />
        </mxCell>
        <mxCell id="M_l_yNQI8Pea0Poj9dhU-34" value="Tee" style="html=1;shadow=0;dashed=0;shape=mxgraph.bootstrap.rrect;rSize=5;fillColor=#ffffff;strokeColor=#999999;align=left;spacing=15;fontSize=14;fontColor=#6C767D;" vertex="1" parent="1">
          <mxGeometry x="80" y="420" width="200" height="30" as="geometry" />
        </mxCell>
        <mxCell id="M_l_yNQI8Pea0Poj9dhU-35" value="" style="verticalLabelPosition=bottom;verticalAlign=top;html=1;shadow=0;dashed=0;strokeWidth=1;shape=mxgraph.ios.iAddIcon;fillColor=#7AdF78;fillColor2=#1A9917;strokeColor=#ffffff;sketch=0;" vertex="1" parent="1">
          <mxGeometry x="50" y="423.75" width="20" height="22.5" as="geometry" />
        </mxCell>
        <mxCell id="M_l_yNQI8Pea0Poj9dhU-36" value="" style="verticalLabelPosition=bottom;verticalAlign=top;html=1;shadow=0;dashed=0;strokeWidth=1;shape=mxgraph.android.switch_on;fillColor=#E6E6E6;sketch=0;" vertex="1" parent="1">
          <mxGeometry x="300" y="425" width="80" height="20" as="geometry" />
        </mxCell>
        <mxCell id="M_l_yNQI8Pea0Poj9dhU-37" value="rating" style="strokeWidth=1;shadow=0;dashed=0;align=center;html=1;shape=mxgraph.mockup.forms.spinner;strokeColor=#999999;spinLayout=right;spinStyle=normal;adjStyle=triangle;fillColor=#aaddff;fontSize=17;fontColor=#666666;mainText=;html=1;overflow=fill;" vertex="1" parent="1">
          <mxGeometry x="390" y="420" width="150" height="30" as="geometry" />
        </mxCell>
        <mxCell id="M_l_yNQI8Pea0Poj9dhU-38" value="slope" style="strokeWidth=1;shadow=0;dashed=0;align=center;html=1;shape=mxgraph.mockup.forms.spinner;strokeColor=#999999;spinLayout=right;spinStyle=normal;adjStyle=triangle;fillColor=#aaddff;fontSize=17;fontColor=#666666;mainText=;html=1;overflow=fill;" vertex="1" parent="1">
          <mxGeometry x="550" y="420" width="150" height="30" as="geometry" />
        </mxCell>
        <mxCell id="M_l_yNQI8Pea0Poj9dhU-39" value="" style="verticalLabelPosition=bottom;verticalAlign=top;html=1;shadow=0;dashed=0;strokeWidth=1;shape=mxgraph.ios.iDeleteIcon;fillColor=#e8878E;fillColor2=#BD1421;strokeColor=#ffffff;sketch=0;" vertex="1" parent="1">
          <mxGeometry x="710" y="383.75" width="20" height="22.5" as="geometry" />
        </mxCell>
        <mxCell id="M_l_yNQI8Pea0Poj9dhU-40" value="" style="verticalLabelPosition=bottom;verticalAlign=top;html=1;shadow=0;dashed=0;strokeWidth=1;shape=mxgraph.ios.iDeleteIcon;fillColor=#e8878E;fillColor2=#BD1421;strokeColor=#ffffff;sketch=0;" vertex="1" parent="1">
          <mxGeometry x="710" y="423.75" width="20" height="22.5" as="geometry" />
        </mxCell>
        <mxCell id="M_l_yNQI8Pea0Poj9dhU-45" value="&lt;h1&gt;Site Actions&lt;/h1&gt;&lt;p&gt;Page will list all courses in the database&lt;/p&gt;&lt;p&gt;On selecting a course all the details related to all tee boxes/slopes/ratings/etc will load and be modifiable&lt;/p&gt;&lt;p&gt;On Save the details will be saved in the database&lt;/p&gt;&lt;p&gt;The On/Off switch will be a 9/18 hole instead (see /Home/Index on project)&lt;/p&gt;" style="text;html=1;strokeColor=none;fillColor=none;spacing=5;spacingTop=-20;whiteSpace=wrap;overflow=hidden;rounded=0;" vertex="1" parent="1">
          <mxGeometry x="30" y="570" width="720" height="150" as="geometry" />
        </mxCell>
      </root>
    </mxGraphModel>
  </diagram>
  <diagram id="2Yit6Kyo9Z5lwIpnRR9z" name="Scores">
    <mxGraphModel dx="792" dy="790" grid="1" gridSize="10" guides="1" tooltips="1" connect="1" arrows="1" fold="1" page="1" pageScale="1" pageWidth="850" pageHeight="1100" math="0" shadow="0">
      <root>
        <mxCell id="0" />
        <mxCell id="1" parent="0" />
        <mxCell id="ewbUBz9j84gc0yppB61c-208" value="" style="shape=image;verticalLabelPosition=bottom;labelBackgroundColor=default;verticalAlign=top;aspect=fixed;imageAspect=0;image=data:image/png,iVBORw0KGgoAAAANSUhEUgAAA5YAAAEwCAYAAADM0e6kAAAgAElEQVR4Aey9S5B9W3LWd/3AeKYRoZEHnraY2HMCiZFHwmbigQFBhEfYEQwsEBAMCIwHSDjkQEJIE15BWA5jC4QFIVsKOyQ1Qo9GYdwgISEkotXP28/bfe9Vt17l+Er9K/1u3lz77LPPqVOrqlZFnLtyr50r88svc6198n9O1X3jN3/zN+9OvX7jN37j7pLXr//6r989yeuDf/HujTf+4t2PPZX/5fdp8r54X7yvGlg1sGpg1cCqgVUDqwZWDbzQGrikL+vWnuoF99z/rd/6rbs3Roqd0z1zT9JAvq9ofuzuL77xxt0bb/wXd3/nl5+oqX0fpoVjjtpYeVh5WDWwamDVwKqBVQOrBlYNrBp4mTWwp1/b0hn1hnvm39dYbjnq7t2iKH/t137tbr2ehoNb5Hf5eJkH2zXy+tr2/TU4WzYu20+vreaeW7y3ru/nxs9T4L11Tq7pby9f1/T5XG1Vrp5rHK8Vd9fDnZrb00hWnYfG8pRx379mUmqhruunaSAX74v3VQOrBlYNrBpYNbBqYNXAqoFVA3PUwDX7rWrLfd0euTaQo+s3vuZrP3C3XouDVQOrBlYNrBpYNbBqYNXAqoFVA6sGVg2sGtiqgVFTmfnVWK7Gev3DwqqBVQOrBlYNrBpYNbBqYNXAqoFVA6sGTtbAycayfgRaPy7dc33Nj82/8pWv3K3X4mDVwKqBVQOrBlYNrBpYNbBqYNXAqoHXUgPX7KewtaePs07tC7nmU0yuuwbz/hNLFGx0jwzgI+NrKZAV5zoMVw2sGlg1sGpg1cCqgVUDqwZWDawauKQGjvRb3Zo9PR469IgZa2PJPTeY940li//rb/62u/VaHHz5y1++y2umWpgF0ww4ZsBQa2NhGp8bs3KTh1vN462vecDe2u+WvxnzNcI7I9aFaXwWOI+z8DQLjhm5mQ3TytV4b83IjevH8ozPPePr5PSJW41l7tFcvq+x/D1/4ffdrdfr5SAF5Q06Qy3MgmkGHDNgqDWxMI3Pi8XN4qbul2tdr9oa15Y5XjyNeVrcjLmZrYZWrsa5mpEb14/l54QV3MHMB5CjTyz55DLjaixXI/2ef0iYsehnwTQDjhkwcNgwLkzP64E3S75mwUEdZ5wRk/FZnhHrwjQ+C2bM3crX88nXytU4VzNy4/1u+TlhBXcw18aSTzDdUCKvxnI1lu9rLH/1V3/1Lq8UE4X1lGNwzIBpBhwzYKi1sDBtP/BmqF3nbJZ8zYJjRm6MaSQv/sb7zpwtnsY8LW7G3MxWQytX41zNyI3rx/JzwgruYO4ay1FzuRrL1Vi+p3mcsehnwTQDjhkwcNgwLkzP64E3S75mwUEdZ5wRk/FZnhHrwjQ+C2bM3crX88nXytU4VzNy4/1u+TlhBXcwjxpL5vm08uGrsPzFoCzG0BrHRfySuZmx6GfBNAOOGTDU+l+YxmfF4mZxU/fLta5TW+++++79K/K17F5iZ9X7uN7N6yw8zYJjRm5mw7RyNd5bM3Lj+rH8nLCCO5jTJ6aJ5HcsaSg90lzef2K5GstxwULsaxlTQDO+WZkB0wzczICh7oWFaXx+LG4WN3W/XOt61da4tszx4mnM0+JmzM1sNbRyNc7VjNy4fiw/J6zgDmb6xK3GMk3m+sRyfQ32ff/KnQJ655137l+RKaynHGfZiDPgmDU/M9bMDJhmzdf6h5r+TcqM+RqdvTNiXZj6uqo5nIWnWXCYn4Wpr6HFS89LamdGblzTloN1huevMZ2Sg7k2lnyC6U8skdcnljuay3/15i/f5efjX3zz7g/97T85RbN1qhCO3p9xg86CaQYcM2CotbUwPa8H3iz5mgWH63lGTMZneUasC9P4LJgxdytfzydfK1fjXM3Ijfe75ZmxjnqdYO4ay1Fz+dBY8j/LNgHPTf67P/MD9w3gV37j1+7+yo/8rfc0gLnOfH6id05sI7LPsfFcdK9d9HB3Lufm6xJMf+L7/tLdl77yzn3e+U8w2f5e+RIcP/pLH8L9w3iEk0swdHF6XwRjp3Nq7hqYujyFqOQu905hqPevgSn/iJR/TPLPuRxdioMzzRgsn4snPF2KyTUTLN15W/PRXV+KA5ucMfByhBNsnYupq9ujNQuGveO5WG03HOWn46rGdE48j4UJ7NTeOf/IewmmLX+17h6bJ/LS+SGf7IGMe54vl3CDz66Gar5GtYaex8fABHfmJ3LHpbEgH8G0VTuxe+7z5QgG8GekXl0Xlz5fjmLaqh14I1d7ni9HcXT8nHO2eP1eucM6qk84OKdW9+Lo9KiRykEwp0dMI8lXYWk0u+byvrHMgtVYjv81ZER2l5jnPpcCevvtt+9fkY/GUw8sH2bn2jyKqTu42ajJ6Qw4zuXlKBejWKnt8LL1BmG0PvPXwDQ6WPc++Cu+SzHVhxt1cy5Hl+Ko+wgcjOfiuTRfI172PPyvnaOt/X2El3O5iY+tnyMY2Ad7+DxSWzV/FSP+a1x78JzLH/VwClP0aq7rGx9sdeMRnk75G+V+73l1Liaf09VHxercnXq+nIsj/O7JF3kw7lpr6NTxMTCN6rpyWbFwfQ6mmo+uViuH5GyLo3MwgDtjfYa4Juo9cDBu4YntczHVuKv9eh8cp86fc3GYH2RqtcsXOtcYO6yj+iT+jHtrNRjDa34S0zmYRxwEM31i11jW5nI1luursO8pvK7ozylMF7U3hQ+zc+0dxZQDPhslmxafbJxzNilrL8HxUx/58MPXqH2I1IMVX6PxKIbOXn2onIsFm9fAxAPlSF7A4fESTH5jcCmeS3A4Hsvk7Si2SzDxwMK3uTq3fi7BET7gIecM50vFZ972yHsx2bffiHhvn3oz1OHB7p61e7HiB9s+l2vO6vnIvsyaqotdj4+ByZyC3Zzbfyefi2mPv3BBzcWnufV8hydzezF5fxE7ew/b0Tn6fNmLA1+OEzyjuqi6Iz1sMz4GJuq4cofPU+NeTHtqxzk9B89eDI4lnNefU/VJ3vZgOwcTdo2n1gR48W2uqq7jPAeH11nm7DvnbPH6vfIerJdgMWexsxdX9EZ+g/lUY+nm8tU3lk4CBV8La0Q286zbKvxzkvuUuimgL33pS/evyEewhIccDDlI8gYpP6cOsy0/18CEfQ63PW/cWMN4LRw85I7wci0MPADDQ3KVn6P1ew1McFL3HtyfO16C6ZIaqTgvwVFt5Zq8Hakd7F2CKTWSHz+wOAfPrZ/guOTbEWDhTUjio46O8rOHGz8z7Bt+jQGe4Mj1XfGjc0/wV//T2cfPHqzoZuQ8ztjteccF7qwDl7HbruVrY4ptaj58nYMFXOdiOuKPNUnbnn2wFxM5Sdy1Xoivjq6/5Lre9/VeHKw5VUPowceR58tjYIKTPTVMDB73YiLurVoNh/k59z3IXgzGHRzZ6+QtfrdqAvyn9PBxDiYwZOzOn9ikxrvzJ/fwW8dzcNS1XHdni+e+5yf+3sP72XNzh4+MYM2zL7LvIdtvzgDmM8LRfRGVOqLOuceYNZwlzDG6HkZ+g7M2lrn212Et3zeWX/7yl+/yGgXpoGaWQ9CeH4gcJSE2/ECvZI8SlHVbxT8zd2Cj6NNcXloP5hfO8XPOeC1MztuRB8wlOHxgU6NHOLkEgzmnpr/vwz/88HuER2v3GphcK/DjPWjse+RLMHFwp0bySQA/R/BcgqOL09jqA6fT7+YuweQ9BC8Zb72fEhdcxD97yXORu/i35vZw472cfVTtmSN4Yb9xbfzUFTrmlXvVR673YO3WGb85Gs3D6RYW/FwbE3YZ4cg8cm80HsUUe3v9wdHeN5xHMOGjy4NzR/2wJ0a8ZP4IjqyzP9cQvuDtyPPlMTBd+nw5ggkOaq2Sx8yf83w5goF8OP6tujC2Pc+XI5i2asdnJ3WcsXJIXIxHcLCWscsXc9lz2dv+OYUJu3XcgxW/9jHiBkzJq/PMfMbk1bz7XmRqovMb/MFMn8hXYWk03VAiv+rGEhJ9UDsxHJjokeQkIT9+iDCHTi2m53KdAvriF794/4p8CW5zSeEesXcNTN6Uzts5eC7B0W3qI7VyCQZi5eGRujYv1Dt6e8drYGL/1APPe3Mvnuhdgon9XrHk+tycXYKjxusaOpqrS7nJ+i5XR/b3pdyYjy5XRzjag8nnWmql5sl7inqhprjOGvahaxxu95xRe7BWbLk2b+bIcTmfHc7Obuaujan66XisOvX6KKbY2eMPflKD5rPi8PURTPhxvWDTOWUvuNbQq+MRHLFhfzVmcIY774WqV7Fw/RiY2Fdww9hxCQ6PRzCNaod5MHjcytkRDMQw2tvcz7iVU+tZPoLplJ8uVz6P7B/5CA7WMpIX54C55AgMzO05o7HtcQ9WfBiLeQGL9xe6nosd+7bc6XV+syaYR41l98nli2wsu4TXjdWRGgK7+Uo2B6cPBOS9B5UTPJO8p+j34q2c711X9S7FZBxdbVR/o+tLcWDXeLY2PvoeL8XA4USdut73PviNJ/KlmKq9XHuPcYh2eqO5SzCx310r4PHcyLfnL8FhO5Fr7ur9vdeXYKrcnHqTsIXpEhzY9V5Kbn7w5z/48C/Lj1U3jrnbv95TPOzhjevgp6bYi5kjx3vq7Ch/xu89P5oHp7HDfx2vjana73isOvX6KKbY2fLnPOf5by4rhnp9BBN5cL1Uu7n2nujq02uO4Mj6Ua1Qv2A0R3v5uTYmx4sMl24YuNeNRzCNaod573HweK7iOIIBG66J0blYc8farfEIplHtxE/lZkvXuI7g8Hr79jkHHs/B01auqm1f78Ha+aVG2FvYrPPec7GDXkbs0q8wosd9x5t1wbzVWNbm8qGx/NVf/dX7xQbx3OSthNeN5YKF1MTbJaWSzTVJ8Xi02GbhOgX01ltv3b8iX4Krcn7U1iWYqInkyHk+guUSHNUfNVQ3cNWr15diwK9r1vK5eILvUkw1xlx7f+bg7HS25i7BxEFtLqijc/f3JTgcX3cu+f458lFMo5x0fO3BcxTHlu2jecLmHkzORX3Ix47PPWqXfeeagjfbOAf/HqzE5XGUx9F8h932LF8bk21HPgcLa49i2vJnrpw/fJ4aj2Dq6mXkZy9PR3DEp+OnxjOPXz9TLLv+R9ivjanzM8Lf6WbuCCa4qDGTR8/v2fdHMBCPz6T4Yp7RZ1pwM39qPIJpxP1ovuOr4jqCo9ro8tXN7clVte3rPVg7v8zV8wZ+mB/lEr3sx8idHj5cm8EezOkR01zyVdjIfB2W8T1fhc2C19ZYhixIJCGZ8wYM+daDbBJ07pvM2Jr9tafo98ZgLrvDbK+do5hGB9Vev1XvKI7wkE9SsGdc1BT3To1HMWCXmvfD3vK5eGL3UkyxEX7CEzjZY8F2pHYuwdQ9OMDjswKsW+MlOGz3WnspNo9ict2mjsBHTZ1bO0dx4DcPxmDi2hwZH/f3jHsxUSOpT8dtjvx8gCPqxw915oIPu147wr0Xa11vjDzj0Kk4zWnVZY3Hx8Bk++Az577fyUcxxdbI32i+89/NHcE0OoOSo6PPlyM4Es+ohuDFzxTLe/J2bUzBe+nz5QgmuKgxd3t8lFvXzhEMrPc+jn/mGU/dR6+ORzCNasfz4Q5fIx65n/EIDq+P3Pnp5rr8VVtb13uwbvn1eyI/R6gzz8UOWLDJOd7xjQ62WBvM9IluLEfN5f0nlizIYgw9x3Er4d3G8ZwPv8h+2FeynZC6rtu0z4nL1MAXvvCF+9el9WB+L+HlKCbqoeYo13veuNW8HcVhHiqWc3k5iqHGwrUPIQ4c7u0dr4GJB2vlxwfjXjzRuwSTOal4zuXoEhyOl1o+Ure2cyk3ozyFpyPcXPLtiNE57LO7xn7q+px88VyoNcK19/YWb8Zbzwrfq9jPweq15q3mrPonli0ctv0YmGwfzusbH+tU+Sim2On8mT/48Vg5rXhyfQQTNVRzMcpZMLkGr4UjdszBVrw+S7f0jO0IN6cwwZ3zFHnv8+UIpq52gtOcVDxbHB3BAK+uka4mjj5fjmDaqp1RnsLTY3EDR12+urmjXOEnnJ167nV+t+om/DivrKe+wl2d417G3As+dOr5Gsz0ibWx7JrLV91YhkgXOURDMoXQkT1KspPL+uc0HjkoRvGdOsxG6+r8UUwcAOTV45E36EdxdDVW3xzUmEfXRzGM7LmOtw7u0frMXwNTl6ujeK6FiX1P3RzZ29fgJvGApR74W3kZ3bsUU83Vkb10jRx1++pSfs7lxmccdTLCQA6jFzn1nZ96FjDf3XNOz8XKWvPW7bEa0yge7Hl8LEz4gMNbYIrPzp/5u09g+U/HKfgZj/BEXdR66fBUHfzW8QiO2LDPrXiPPF8eA1M9s5KyLdzX4KmrHdvlPuVz6vlylJf49J7u/IDlnH0Vu0cwnaqdmqs9z5cjOJyLyB0H3Rz49uCqPvZy1vnFFveom26vm2Nq3Xsxc/6LzbE54gDMW41lbS4fGst33333vkgAv8b5v7b6GDnKBv385z9//4r8GD7OtTkLphlwzICh5m9hGp8Vi5ttbq717Yhak0evZ8zXKJYZsS5M43p3HmfhaRYcM3IzG6aVq/HempEb14/lYJ3tuWd8nRzM6RHTXPKJZeQ0lH7xu5b3jWUWrMZyXLQd0S91bsYNOgumGXDMgKHW/sI0PjsWN4ubul+udb1qa1xb5njxNOZpcTPmZrYaWrka52pGblw/lp8TVnAHM32iG8tRc7kay2fwB3VI7i3GFNDnPve5+1fkW/g85WMWTDPgmAFDzdfCtP3AW/up5yd1M+O3I2bLV91vXK9919cV/DAunsY8LW7G3FA/GWfgaQYM5mQWXmbCUfnprpPH2Z57HU7PBfOoseyay4fG8p133llfhV1N5n0NfPazn12NZVMLMxzsM2DwgRN5Vkyp47yCr2K+1XV8z4DD8c6Sr1lwzMiNMY3kWWtr1fvpZmWW3M2CwzU+67nw1HW9eBnvqxm5cU1bfk5YwR3M6RHTXNZPLIeNZRasxnJctJD7GsYU0FMfoJXnWTDNgGMGDLPmx7hm4WkWHIubfef7jPly7izPiHVhel51tvL1fPK1cjXO1Yzc+Ky2/JywgjuY6RNpLNNkpqnk5d+1vP/EkgVZjKE1jov4JXMzY9HPgmkGHDNgqPW/MI3PisXN4qbul2tdp7Y+85nP3L8iX8vuJXZWvY/r3bzOwtMsOGbkZjZMK1fjvTUjN64fy88JK7iDmT7RjeWouVyNZfOVR8h8jWMKaMY3KzNgmoGbGTDUfbEwbT/wZqhd52yWfM2CY0ZujGkkL/7G+86cLZ7GPC1uxtzMVkMrV+NczciN68cyWPPNwMi+N6scnHsaS74W+9BYvv322/dBxsB6vW4O/EZ4llqYBdMMOGbAUOtiYRqfGYubxU3dL9e6/vSnP32X17XsXcPOqvdxvZvfWXiaBceM3MyGaeVqvLdm5Mb1Y/k5YQV3esQ0l/UTy+5Ty/vGMgt4felLX7rj9cUvfvGO11tvvXXnF/8fFkb+yhEjf1mPkd/bqyMEj0YenOeOb7755t1LeZ0b+9L/7Tdbi4fFw6qBYzUwOo+fYn7l8FgOF2+Lt1UDqwZWDcxTA0efn7Vvqtf0WR7pxRjp1Rjdz0Wm12OkD6Q3ZKSxTJOZppIXv2uZcdhYYjxjBQCwjIBmdGCRKwG53iL31CZ4Kc3ic4jjVC7W/ac/sI7W0Yy5OxrLS1k3Y05eK6aXUlMvLY6nqseXxuMt4nnNuXqq2I/4vUUtxMcRbI+9Ziv2x/Y9sr/VH3Gv66syV/uvXNObMbp/i+z+zn1f5K65dGPp5nLYWPKR5xrHH7e/Bm7YbDPFOgumGXDMgKHWxsI0PjMWN4ubul+udb1qa1xb5njxNOZpcTPmZrYaWrka52pGblw/lmkqPTe73H1i6cbSX4l9+MQynWkC+4++8V+t1yvmIDXgDTpDPcyCaQYcM2CoNbEwjc/Mxc3ipu6Xa12ntj71qU/dvyJfy+4ldla9j+vdvM7C0yw4ZuRmNkwrV+O9NSM3rh/LzwkruIM5PWKay/qJZddc3jeWfNyZxRha47iIXzI3qYEZ36zMgGkGbmbAUOt/YRqfFYubbW5m/EesGc6ause661Vb49oyX4unMU+LmzE3s9XQytU4VzNy4/qxHKyzPfeMr5ODmT6RxjJNZppKXv5dy9VYvuJPJ0cFNNsbq1kOjRlwzICh1s3C9LweeLPkaxYcrucZMRmf5RmxLkzjs2DG3K18PZ98rVyNczUjN97vlp8TVnAH897GMg3maixXY/meT6lTQJ/85CfvX5EprKccZ9mIM+BY+Rk/XFyjs/A0C47KzQz/eDTDfjIvkWfMV8XI9YxYZ8U0Q72Tt5nqbOXr+TxPkqtVx32+Zqxj73fLM+bR+Do5mLvGcvSp5UNjmb8AlMWd0TXXF/NL5GXGDToLphlwzICh1v3CND4fFjfb3Kw3SmN+6j6r16u29nG3eBrztLgZc+P9NgNPM2AwJ5FnwTQLjspPdx2ssz33OpyeC2b+Sqy/CrvZWPInZrPYxpa879B5STylBj7xiU/cv2aph+CY4VPUGXCAITla+Rnvz3AzQx3PgsNnFDWUPfWUNTQLjsrNDHVjTCN51tqajb9VZ/Ofk67xla8+X4uXnpfUzoxnoWva8ox5NL5ODmb6xNpYds3l/SeWLMjizuiaGxf0S+Nmxg06C6YZcMyAodb8wjQ+HxY329zM8A9GrucZ82V8lmfEujCN633G3K18PZ98rVyNczUjN97vloN1tuee8XVyMNMnrsZy4/cnP/j/vnOXny+9+5t3f/LbP74a6q9yNeMGnQXTDDhmwFAPnoXpeT3wZsnXLDhczzNiMj7LM2JdmMZnwYy5W/l6PvlauRrnakZuvN8tPyes4A7m2ljmdy7zaSUv/3XYF/eJ5ff+X1+4bxi7/+QeRK3Gst+kW0X/X/75j9x94jO//h5qu8b8f/pfPnP3a7/+W+/RC99wv5WjLLJu1owwjez8wke+8uALnxmNq/rwvWAI/sx5/QgHtUTAdW29jx6j6xJ/xmOsYPj4xz9+8muMIxsdb/YBBkbsJPepAeYZwbTn67lwYX/5h53U0ehn5Dd5zk9Xg8EUjipPna/OPjjBVHOa2KtOdGsuRzjgziPxVBudrw5z9GpuR9yc+roiOU9MzlV8+F7ud9xUnjudrbrZe9bAX83FHn46nkf5qva7XIMlI/qVO+vA4whrx4HtjbDGR+U/eEd+rN/VizFv1Wj0tjB18XT+4C6Y/ePYwVR1uxi36gw7jMS3B1fF03Eee9j2OOJpr42q1+ElFjjsdEY4grX6GNmpee32es1TbHX7L3638lV9xU4XV4e9+uswxV7NK5i654lzCt/2E3nrB18d3lrLW7wEx8hXV4OdP+MmLvQ6jrd42Zsn/FT8FUuNrcY0quO6bpRfckeuarx74+lqqsZyKo+Vi2Aynr0xwa2x15oiv8Td7d3YCea9jWUazIfG8q233jr5RhWgM48d6ZCWkY1MAThhM8d1K2yjDRr/vBEyn5HNYS1U68L93hwR8wjTyE49dLDjwwMsW3HVTdbhGGHwWmrNXFiODTAyjrB2GFhTx5ENzxuHOYktH0jRq4cS/vZgqrVjX1s1M/Jre66/U5hG+XJsIx3ntHJjHp3PPdxUf16feEb1Y8zR6/J6DjdwV205V+bdMZubPTrxEW5GDe7IRo1nlIfKTfxV3cozmOobyLrOcVcbFbe5i/0OR4e12sGn7W3VVq0p1ne+XDeVXzBXezVu9LYwjWKqPkf17thHOeni28IE7ozGtxdTuMvaEZ7wjo59dZj22hidl96DIw5rXB0OcI782MYWZmpkjw4+M25hco6o6YzGNMIdPTDFz4gj1xm4tjBt7Y16z5gj42uk53rewhCcIxu1/kZ6mSfejHvOhRGmPXmyr1ojxjLCu4cbx2Du4T0YRnXgmtoTT43B/hxPOBs99yrv2DCWPTGZW/NnzkYx+RzBTjCnR0xzyVdh+Sux9RPLF91YmhwTyCajmJwwSHzN4+igCCfh8Yd+6ksPhw8Fa65zqIfjbLKs8WZzUVeOsdXlY4SJHJLTatPX2GejdgcLvo3Zeh2O2LWOa83zxhI59/LTcbKFtcNQbed6y8ZP/+y7D1//dqzmsXs4d1jj6xSmiiVxb3ETm/af9Y7RmGOLvFlnhCm2bI882EbuG1+X02D40M+9+1Dnxuu1Ixxgxf99MXz1P8bnWMkPeLzvsoYf+8ePx1OYbCs2bQ+88GV86AVnfjodYgieLRx7zprYAE/8mTfHi2zdkX6HaW+uK2/xASdgcJ3kfn7qvjKncMh6jx1W7geL+SB227Ofr0J5yBl2MrIWnYy2bd0tTHtzSv1U7uzHmEZY0N/ChE7lwjyx3xI3mMCIXtZnLvnFZtVhPmOHaa+NarfDF5zmJTI/nu9wgBO7xMi8R/LAWeT6Ds7oJq49ZyV2T2E69R6EWMEUu3AGJs+RU/x34wgT8cNtRvPb2QKfec2c12HXOiMM+GCNY+Qeo/NTzx106l5ITMaBXsYRpr17HVtgh0e4MF7iQtf5HeHY814n9vAXPJH5YX5PPHvrfIS1+g4u+PG4Jyb0zV9ics7ZE+TWeYdr7ATzqcbSf8Tn/hPLLHhpn1i66LpCoTghNQRCtMnv9KxLAY6KgMQ8l3Gr6GsMI27O1XPxs5FtY4QJ/6e4x35qIvnOj9dgx5uJWrDeCIexbm1O9Hhgu0a5dwrrHgynbOArI7qVE+YTP1x4X9jGKUzJaWLN2PFvW8j4dE64R74+98XfuM+l9zA6wfSxj33s/hWZ+TriZxRb9M/JaQC5hk/hSCzBD0d1vX1jl9xQP9bp+Koxb+XLtrtcwb39wGHujbCwzrnawlExd+vBWmu3rs01ey7+w1vlmTV7MGGr2iCHGTvu4gPMiQfeau1lfX7IL9jqeKq2rN/5Ile51/HL+txLPMRX40Yv4/vwZSgAACAASURBVDmYRj7BGn+2jQyHwREbzI/GPTkFS3emdPkY1YAxdOu4v5enaoOcJfbwhD04q7XE/RFnWziIcWQztju/cOm9Do6M2B3V0Z58Ya/zBWfGjV7HWfSxNxpHmGJ3796Ibedhy2/H6wgDmIkxI3N1RGeUm+hTY8FwSv8UJvxv2aEegqmezdxzrZhDYt2Do1sHPo979LbiwVaHPfdGWOG97m3sdeMprNQR5xp7YuRrFFcw0yeOPrF8FY1lkuOfupE6AkkC5CeRVc8Jsf3I0e2S/5zmUkBbb8g5tIm98lpjdeGH33o/13Bs3q03wsQ6sGTsfJDX7//RL97/i03N1SinFc8Ih7Gan9GDAzxHsO7BgP1z4t2qXexVPoh7D6bouha2/HEgd2+suRcsiS8/XQ1uYap1M4qL+EY5dTz3QEpTmfVbOLCfkbhip9aN7+EnIxwaR/41P3zwg459BVP9uif3yfU5tRNfcOi9RF4855xu4Qge8x4f2AMrvMRm4uZNSXTNIf5zP/PwYx1sjvJljuG2Wx871u34xxdcwx3z1Gfm80kPPzX+EdZqh/XVD3oZ8Vl9WAe+Y28U+ylMWeefzh+8WM88guNU3sF+ChP2wk93pnTcnMoxNZcYOt5PYQr2zsbIb4eR+DNyP5wlXu5t4YAX58H5Mr7kDJvk2L6MG3u3riFjD9ZTdUY8Gbd4yn1zNYoreuShqwnuwU/VOYWhro8d5yX+iTkjcvSqr+gab+WO+1uYqAPi6WxQQ6OzGRuuJdY4vhEO64IjPIG/G+HRPqMHFux08eyp82Dtnr9eu/Uc3xsTeJNnYiLPtkEcnquxB3NtLPO12NHXYV/sJ5Yk36PJgmhITeGw0SA/c1WPZNkWc17XFexzmBttULATq3kNR9z36I1inkc6IzsjTOTLWCJnHh/kL3PeONVXF1fmsJNxhAMd2zAG7mfcegDtwXoKwx4b5gHuRvkJZnge1fcpTMTveqj8o7Plj/XsPfjusG9hgiNiz1hzDR581LrKffDYTuVoCwc+Mm7VRe6TA3w5Zq/lvsca2wgTvFy6V8yZcUQmd4kpOLoHLLx0dlw33X382Q/cZa1zVnkBU/cPa16Hj5prcFvXeLnPCK5qh3n8eLTuKI/YJ59e38UcfXRdV9hhdJ2N7JzC1OXMHHVnE/jR62yg47yDewsTuWIdts0D+TD3rItfcOHPMWCXe4xbmKIzsjHKwVb+uNdh3cIBF3DLCDcjDljn2K2LHfMJLxm3MOU+9rGTsebAPKFnHfPLfUbrgesUJvsLPtZ5NAedj8zVH9s6hYE6rTYyHxxbMWcNesYMJnLue5G3MO3JE5jjx/wQd+ffcYB5hMO68DKKJfHgL7qRHe+eeBwD/mqdB2v33HMNsdYjnOyJCVvESlzG0sWDP+9d8rway/IGxsmGWIiG+JBHkaPjQkOPdSTAIzouxucmjzZoF4e5oOjRc9Fu8YLels4eTN5s2Kq2rRPsYCXvbCbXi/W2cGAj9cBhh32PcOYay/29WLcw7LVhPI61YkKP2Eb3tzBhI6N9mdeRTuLhXpe7Gi+6GfdiIjZybxvcO5XTrOEgr7p7cXi94zZn8E/cYPZaas/rmCO2DhM22Tsd31kPJ/i2H+eUOg8fwc0nb9iPrQ4HGOtoe/AD5vjAt7nIHOvgznixY197MNlH5Ta27ANc9oEMl2Cr83CceeLwXLB+9KMfvX9FZn034svrrYd958f3Izvujrvo7OEPu/hM/kb2zCU87ck7PrYwdTWObfMATs8Zl7GboxHXW5hyb8uG/QYXcYIRjjLv+LxHWJPxknzZvvdBx6F9Oj6vQ+cSTLEBF9TVCCf+MppXc4jOKUyOyfXA+oyneLFut19PYfB6x0zddnNZgy/0bAcuu3vR24sJO+Qka5mDb+cADuHMe8lxxMZeHLaPT2K1zdFeQdfYHY/vR3ZNuM5HnHX6xmwb+PJ9YvIcPFauWc984sj67jkd3WDe01jyddgX+4mlCzHE1M0Dod4w6JCgrKt66CQR9af6JHnPaRwVfReDCzg8oQNn4cfz3Gf0Zu42DXp7MdVDaCtXwZY8f+f/9tmHr8YZKzG4FjocjuFU/kd8Jc49WOMrGEZvJvfagFdGYvVe4J6xmQvf73jxfeSt+NEZYfGhW/cd1xyisbXFE74y2i7rz8mpbcG/eboER2zXms6c8YUv89rFEFzG2eUL7HBZx3P3iv1Fxn7lpvt0sK7NtWNMzJkjd9531vvwL375fo/XWHzdcTPaX8bVxcN9YwAr9zyObLAHzFVXB3trKz7hKrFTI8aCz9EZsMdGdM7BtJenio1YRnmvnI8wYcf1UOVwVf2PuCBHsVHrylxv8XTKxoizWkvW28rpiJuKN9e2GU58Djnejq9qr+L1/WA6ei6MMMHrFhdbuE/x5FqKL8cTeYSr6nHd2TuHl9ghZu8TeN+bry1O4uMUL8SzVTt1z3EdjF0M1dY5OLp4bG+rPoglo9fEpu9Zhm+f5aM82iY1tKduakxwBo91dD0Ya+QOb+aD+VBj+YUvfOF+cXX03K4h1eQ5YRROTYZJRcdJZY51tv/cONrCu3VQ5HvfOfBYD9cpXDZXdyCiX8e9uh2m5MZ/aa7LFZukbiyu65vl6IORtfVAqG86qQfqg/XdCF9d7eAPbHUER8cFvvbYSCOdvyrGmo437jFiFwzMM25hQiej9yH14vvGEp++51qp3HAdflkzwuS/qBZd8hcbrGduK6fBk/2AP8dmnkY4WMfo+MCRe9SM8dlXsHa8VR38ZAym+saNHMNlHROT/xHG+WEtccd3MOETPh3DCAdr9pw1XYzm8f/+0NtXaSz35hrsHS7ueay8cY+c+5yAQ9fkVm3tqXP8Zezs+35kc+satd4Wpr059flkLl1f4SE/wX0K2wiT46n1znXitB7+yB35ME50zEuVO0x7bVTfW/jgrPrnusPBvZovaiTckH/mqFXHEJyxFXx7zkr8noOJvUIt+Cx07OB0vk7VGXgybmEixnBgbrzeOYI739+zX7cwJO5T74fir/KQOerJfIGt0+dexhGmWjtbebonrflPcHX1BCZqboQja51j1wZ1kLVb8RPrqXiit7fOw1l9/ma98bF3HH/i3hOTuW5offh1lNiKT2KE166Ggzk9YppL/ngP/1/L7vcsHz6xfGmNZUdo5kJeiIREFxhz3Vr0nOiq1x0YJO25jKODwpzVuOFmSydrrBddNoAPiI6nDpM3YcUzyoPXUAenMFuv4rC9iiHXHA7ERH1VHrjv0ba3MHhNlTsbW/VrP7Z16uCtvHitZfvufJ26b1uRqZ+OzxEmYqn54qFqzqqOc+o3ClXP9TfCUWOxPa/fwuN9AxcVyzncGJP9OleRRz/ojbDU/RBuugdscIz81HhGeuTTMUV2jZln9Lp8OTc19s6GfcAJ9j1SixWrua/+bK/Din1s1/XVF/rwWPnlfkbz0MUdnS1M+KiY7NPcWc+1Hj8jW118W5gcX2Rq15gyP+KTfLDOmJEr9tjrMO214TzgIyOYRxyiC+YRjsznNeLY+3jkyzGP8AZPV0cdN6cwEXv0tngE+x7c+My4hSn3HWMXE5jMi+2P6sv1vIVh68wwnlHco1xQA+bXuEeYWEfNMY7sxKaxGfPIFrnM2g6H7eGfMTarT+55RG+EwfG4BmwjsuMJ1tFzjzqp6/GzJybnBxn8rqeRL/PK+mBejWXNylevnVyIJmEQ6A0eudMbbWLbx95zG7sNSgxdIdYihK8uBSOuXez48jjC5FzF3+jQxpbzFpzMZ6yxdbYqDtvr4jU31vW8MVi2vrFWDF5T5c6G58DcxWpb8DzK015MPhQdE77IwSk8Vb/WVe6PMHX1aSwdP/CUkdw5Fu6fg4MYGP1Q6s4RcoCvLhe2Eb1OZ4sbsGQ0D+Yn98gTWGq+6v3oVRuncHQ24N44Ozwjveg6bx3PXd14DTF3uQaX9bu40SOnozxxH58Vb4cV2/Fbf7awoL8Vl+urYsHvFqY9OXXdgX+Eqdob5X0LE7gZsdn53MoH68Dsse6P+OownWPDuYgv15DrzziQXQcdjsoF6zJ6LXrVX+Wu3o+dqoOtETfc7zjq8l75ic+sxc45dXYKU+7bn/3gj9pxnriXkf23xfVWrmIDH9jo6i56NfaRnnGN8jXCtDdP8cHLdVI5rPzUOuxw1DjDS43VPuHNI372xNPZ6njrsMJBRtdSsLhm9sRkW8jwZ1tdTMTLOsZgftWNJUSs8Xc27DlcnCr6c2xdS3cWTDPgmAFDzevCNN5ri5vFTd0v17pObf3Kr/zK/SvytexeYmfV+7jezessPM2CY0ZuZsO0cjXeWzNy4/qx/JywgjuY9zaW+QM+L+6rsBCxxvEm3OJmxqKfBdMMOGbAUOtnYRrvtcXN4qbul2tdp7ZWYzmuL3hee3DM0eJmzA31k3EGnmbAYE5m4WUmHJWf7nrGPHY4PRfMaSzzOvU7lqux1MfwJvE1yzMW/SyYZsAxA4a6Pxam8ZuTxc3ipu6Xa12ntmZsLGfEVP/o2rVycNTOLOfCLDjM48LUn5mLl56X1M6M3LimLT8nrOAO5tVYrobx8NeiZiz6WTDNgGMGDBw2jLNimuENbriZAQe5yjhLvmbBMSM3xjSSZ62tVe/jN8DkcpbczYIDXjKuc6Gvn8VLz8usNeOatjxjHo2vk4P57MaSBVncGV1z44J+adzMWPSzYJoBRzCsN26n9+MsPM2Cw+fUDHUcPLPgqNzMtr+Mz/KstTUbf6vOxuflrDU04yfMT13Xq46363i2mvFZbXnGPBpfJwczfeLoq7D5347ka7APX4VlQRZ3RtfcuKBfGjczFv0smGbAEQxP/YCrNb8wjc+HWbmZ4SE8w356DrVcMXI9a22t82l8HsyWu1VDp3OVnM3A0wwYqF/GWTDNggNetsZgneH5u4Wx3gtm+sTaWOb/Z1n/X5b3f7yHBVlcDa7rfQfPS+FpxqKfBdMMOIJhvXE7vSdn4WkWHD6fZqjj4JkFR+Vmtv1lfJZnra3Z+Fs8jc/Lxc2Ym9n22srVOFczcuP6sRysr66xTNDr9bo5cNHPUguzYJoBh9+4rfyM9+osPM2Cw7UyQx0Hzyw4zM2M+TI+yzNiXZjGZ9KMuVv5ej75Wrka52pGbrzfLc/43DO+TuYDyN2fWL711lsPH3N+/vOfv8vrc5/73P3rs5/97B2vz3zmM3d5ffrTn354vfnmm3e8PvWpT93x+uQnP3nH6xOf+MQdr49//ON39fWxj33srr4gfjRSRGv87f+P2YiHEX9r/qMPb2ofi4tRTmacfywO9tqdkZOZMO3lcen1+3qmXC4s28+sxc/iZ9XAqoHnWAPXeP7WXojr2jdxTW/FSN+VkX6MkV4tI30cfV1Gej36P/rBjI/eWLq5NFDAZ3RwBMwIIYwQV8dTSXqOhXdLzKf4W/f7N6Ez83Lt+pkx1mvH+FztzZibl4jpudbHwv3bb76vXZOL18dral5rrq4d91F7z6W2j8a3te4asW/Zv9a92gdxTb9UR/oqRvde7skiu1+7WWPZffy55sYfvb9UbtggM8U3C6YZcMyAodbGjJh4kFSst76eBYfjniVfs+AwNzPmy/gsz4h1RkyrzsbvY1a+xtzMttdWHY9zNSM3rh/LzwkruA9/YhkD/uiTj0P5eNQfmdLtugN2d+yumU6asXbcuaYr9wj5WyOH4msftzg6515qAH3LzD3FaByWb43Fvi3fEof9Wr4lhurLOCxXvce8rvs/OJizzNytRvu2jP/H5GRkOzi4Z5m5W432bflW/quf5CQ4yI1l5mYajc/yU2I0DsuPganmb3QdHNyzzNxofAzM2DQ3lrl/q9G+LV/b/4jjbj44mLfMXDeewlvXnNLPfa8xDsvWeWzZfi0f8bsn/j06wYGeZea2xiO4R2vMh+VOfwvT6F5n5+ic8VmOPfc/Ve76pszRVzG693JP5l4tMj2c+zp6PXo/+sHgnK6xTKAEzVhJqiRyvSd5o2J46fN7uDlXx4Vu+Vw719Q3DsvX9LHHln1b3rP2Wjr2a/la9o/YMQ7LR2xdY032fXCw/y0zd6vRvi1fI86jNoKDtZaZu9Vo35Zv5b/zExzUhmXmZhqNz/JTYjQOy9fE1OVtay44uG+ZuVPjNbFjy9xY5v6tRvu2fC3/p7jt7gcH85aZ2xor7i1d7nkNc3U0DstV7zGv7dfyJT4d+xE5OFhnmbluvATvaK35sDzS73CN5kY2js4bn+XYo+/pxtozcU1PxXi0saSpzHj1xjJdKV0qxu2Q7pZuN6M7YXfIDpCgGSHFY0dm5vYmcFQYz3l+b+zX0nOhW76W/SN2jMPyEVuXrLFvy5fYPHet/Vo+18419Y3D8jV9nGvLOCyfa+dSffu2fKndS9Ybh+VLbB5Za9+Wj9i61hrjsDzjMyT4wGWZucceO87NmeVO91ZzxmH5Vv47P8ZhudN9zDn7tvyYPk/ZNg7Lp9Y95n3jsPyYPqtt+7Vc9W55bRyWb4khvuzb8q1x7PFnfJZH/U/m3SdZpp/y6L7L/Zj7NPdv9HTu8+j96AWDc/SJJf8Py4xvv/32/ev+/2PJX4VlMcYwboeAMDADdiAOMLKDj2yCkEfk7klYdB77YfoY9vfGdgs9F7rlW/ge+TAOyyP9x5q3b8uP5a+za7+WO91bzRmH5Vv57/wYh+VO9zHn7NvyY/o8Zds4LJ9ad+379m352n7OsWcclkc2HuN50Nns/Buf5U73VnPGYflW/js/xmG5073VnHFYvpV//Ni3Ze4/xWgclp8CCz6NwzL3bzHar+Vb+B75MA7LI/3Hmrdvy4/l7xK7xoc86nuu1VSmL3OfRv9GP5fRfR69H71gcJ5qLGkqMz40lmkuWYwxjGfEqYEAzoDdWEZ2c7mnsUyDOSL5aDK7B/Wt545iv/U6Cj1+Ld8ah/0Zh2Xr3EK2b8u38I0P+7XM/acYjcPyU2DBp3FY5v6tRvu2fCv/nR/jsNzpPuacfVt+TJ+nbBuH5VPrnuK+8Vl+Ciz4NA7L3H+K0TgsPwUWfBqHZe7farRvy7fy3/kxDsud7q3mjMPyrfzHj/1aviWG6ss4LFe9x762b8uP7feIfeOLPOp3tprK9Em1n8q1+63ai7lPo3dzP0ePl5Hej14wOK/WWMYoDnBqIIDLaNAOyIHu/dRyq7kM2UeS6TWP0VTa/nORu4J2oXsDPGVMxmH51pjs2/Itcdiv5VtiqL6Mw3LVu+W1cVi+JYb4sm/Lt8Zhf8Zh2Tq3kO3b8i18j3wYh+WR/lPOG5/lhem9/xspc2N58bTOp7014LqxvHf9NfTs1/I1bB+1YRyWj9o7us6+LR+195jrjC9y9z780qYyvZb7MPdn7tvcz9Hj0fPRVGYMzjSW+QDya772A/evL37xi3d58VXY3Z9Ydo1lnAPGAA3cAUV2c9l12XwNto4jwjP/mIl/Sba3OOzuudAtd7pH587lNzhYY5m5W432bflW/uPHfi3fEkP1ZRyWq94tr43D8i0xxJd9W741DvszDsvRObqnj6yLb9ZZNtZby+bD8q1x7PFnfJb3rH0sHeOw/Fj+9tg1Dst71j6WjnFYfix/I7v2bXmkf4t547B8C98jH8ZheaT/GPP2a/kxfO21aRyW966/lp59W76W/WvaCb7uucccY+2HfN31Ue6zag/m/sx9G70cTWXGR2ss05nSreLEjgGTEZAGHtmBOeDIlRQTVmVI7sZLkv1X/+pfvXvjjTfufv/v//13H/7whx8aF9v8xV/8xbs//If/8L1e9H1vJrnj5ujc3qI/av/IuhGmW+fAB5blW+KwX8u3xFB9GYflqnfLa+OwfEsM8WXflm+Jo+654GDOMnO3Gu3b8rn+r8llcGDPMnMzjcZn+SkxGoflhWnOT1GdI8srX/Ply/mxvHI1x3P2VB54riV3ncxcxtoH+br2T7muPZb7r8juz+jZ3Me5v6Pnowc89xPLd955p/8dy66xjDOcGxAgMxp8DawGXskxcZ1s0v/BP/gH981eGsPIuZekuhH8+q//+vc0jH//7//9+zUf+MAH7n7kR37k7ju+4zvur6ueiyN60Y+fb/7mb354w2Gdx5Qd863kraL/N//m39z9kT/yRx64Dy/h71/8i3/xsFEqzj/1p/7UvT558n3nMbai6/vII0x1fWxs2SHnGbGdMfgTB+sZa2wjHNhlXWrmR3/0R9/jI35SK1U3/3CRuqWOTt0PBnQtM+cxGKjf2OVe/iGlxjviPrixE6ypAXMXecRL1cs18WXs7mcuPvgHHfjx3oZnj4nH/0Bkbix3seMDfjJWf+TUOpZzPgRPatLz9m3ZOsi2UbmBN2Ie5WIPx8GBfcvMZSTn8Vdz5Xu5Dzes786JTs++LceOa4CY637EX8aOn619FX149xgcXFv2swA8nY2Ko3tuVFvhL3P4zdjVaZ5h1jE+y6P1e+u8YqkxbcVvHJaDqe6p2Kn71vFF9hlf9xb7ZQtPbBiH5XMxnfLX5azL/ylMuZ8XvLvOOh/EnzE5/tCHPvS+873qsDfMh2UwMDp3tY46TDVXsXOKP3wZh+XcNw5iqjXU6USXcwo/8IudjB3u6BuHZWxlJL6Rjej47HRe670Or/1aBkP8OhZk12CXq+id4rA7o+LXOCx3Oag+upiDpfISvZqrWoP2bbnjpLNfeemwVp1aT+QhY55Jo/e+wcezy3Lm6H2+//u//z25DJ5/+S//5f399E71/p/+03/6obn8uZ/7ubtv+IZveM96aiHjN33TN93/kdP0cb/wC79w9wf+wB940P29v/f33v3kT/7k/aeWNJbpB4Nz71dhdzWWMU4HS2OZsWsu3VjWTy3TaLq5rI0l1xDbjSSjbs5uPgR6g7PpKUgKtSsgCsSbw8XIWm9Y1pwzgnum0YVuORjNuws1HNbmsm7oXDvOeh97aVxr82Iclkc2apNUcSd/xnJJYznCwKGDn+6NcmJOPRIvdQUXjNZx/Jbx45GDLXaIeYQjOpW3qmsc9mMclq1zKgfWNaf4rFjghrHWoHFYtm3WZsRPcGz5yvoR1tip9+3b8jk29tRF7O3l2DgsG1NXO50POHS9h7/6D1DRs05s2bflLT81zyNfzueIv1rvYOIMD6bI9Q0FMWeMbfR5xvh+ZD8nalOJbrihodvy5+YSfPFvOdf8Qyr2GcNLnmvR8fON+4ypY+Ia8efY0TUOy7lf6xNfNafJQ151H7K36jx2MgYT6xmDo5MztwfTHn9bOrXOwoW5sdzxZJ63aiPxJ7+XNpZw5THcw7P31ujZGd3Z8uXzZytf4Hb8WzVkbhy31yNfcq5uYYj9ioN8uf5G+coeTG2l/vaeC1t1vGdfjbAEt/dxZGLx6DoccWO+vXbPnnK9jOKxDjmueaj1NMJKz9NhTn7SWHZNJXH90T/6R+/+7b/9t3d7G8uf+ImfuEsjyXrGzP3UT/3Uw7dWr9pYdp9anmos66eWtbl0YxmZZrKOEDwacyjwxsWNSC1AitOHCA95dL2hslFOvbzpsNWtochmG0ecMp+it2z82Vx/42/8jYeHNBuobq7v/M7vfF+xenP5QOHQIx/VVvyPNiJrsGGsyGBk02SkLtDh0Bi9wUGvwxH7toet6gesmTcX2HZNEw+2zEmHARsea9xgjJ/YTw7Qz3VwOX7nKPfy8l5jbcZTmCqW2AKP7USufkc+o2vOqr0RpmAx/+TFsTMH78ZEbuIfPfjJaNvRGeHIvT02HCO+u7o4h+NTmKotc0vM8GV86MEX/BFrHbdwJMY9Zw14Ou7jD65cc129g63DlHiyJrFGL2Pe1MRmxjwTqp88E+ARHjIH3vCXN3J+nuTeaB1Nq585wcqzxzI2XIv2m3gSB3PgI2+Ji1qLHnxFH55GY8cfuntzij74gicv4oFXz6FLXWIj46WY9vhLTYQnuI1feDsHk30R9ynenTc4cvyRRzpb3GDDa4PJb+jBSw05bmoInVvlC7zGRCyMyddf/st/+WFPsyYYO75HPFF35Mox4ovRPFQ/2KFWgo/3uOAZYcA+NuCdeY+cU/jxPWTswJ+5qbZHmPbs9diNvcQa3xl9rubac/gmBvBl7QjHt37rtz7syc5W1sZu8gEn2HeOqs7IFtxlLa+6JytW3m9n9CeReR/NPXqkn/3Zn334NgKfUv61v/bX7n193dd93d0/+Sf/5D2/hsjXYH/+53/+4VPMf/SP/tH9B4N/5s/8mft1+cTyX//rf32fgz/2x/7Y/dyf+3N/bldjyR/u8f/D8uETy/xlH//vRtJUdo2lvw57jU8tt5rLEAmp3VgT7QL5xm/8xntyeFPqjUGSKYAU04/92I89JCvFgI7XRd8FR9FkzL34Nwbu+x461xw7bi6ZS9Gz3jJzHmkg2ZDcy3zmwmM2P5zmfmI3jx3XWW+O6kbkHjnc4hgMGYOp5st4qBfs13GEw3o5cHggcBDWOrI+stdVTvYcoNjJiL+sy+8QdzFbP/6iYz/YCLfstRE/p3jZkwPw4KvuYe57JP8drlOYsIM/2+jm8EWtZ33mujrHdsZTOE7Z2FsX53C8hYm8u3b8gGPPhyP2O3yxb7FhrswJ8hYOdBjxa5v42arvrra78wc/ezHVeuj8dPhYF87wCX+5lzls+Q18t24v1tjEh212c/gxz+gFF5hH4zmYOl/YJUc5v1KLyTH+u3XoWw9bl2I61x9+yaPPVe6NMGVN9DMmB1u1jS3yk5G5Oo50Rji8nrXdmUyMPj/hCzxcu6YeM1/sO/tzPJ28hSf6I54SW/yQt67+sh5MPlezFixwBGeZh3f0RhiqDfSZ90iczpfvR8avdcBXOT2FCduj9dxnrHp7n397cJAD7ynb77gPB/mkMGPWWadiTQyZO1UPYM3zMzLP0V/6pV96jx/maSozfvCDH7xLAxks//AfKRC6xAAAIABJREFU/sP7b4H6E8rv+q7vek9jybdIv+VbvuV+TZrJfACY/zNGvhIbO3/2z/7Zh19z/J7v+Z77uTSb4SbfWOUTy/SI9a/C0lj6L8K2jWUW1sbynK/DnvrUsn4l9mhzSWfPoU3ROKlsAjYT1xRASO1e6GEzOikY7NQ1uecC7e6zcfaOFNWtRxe6ZXDAOzGGK777jQ5jGvbkJ7pZxzwPI3KXefOXzYtuRnCEu8hwyJtNsGT0xkcvo3PJG2Dud3mlBtDJaN+WrUNswRI597CfePMpDJxYx3qOJ3LqCx/2a5n7GcNB1n3v937vw0FlG9Y1736QWAd7o/vGYdk2Im/lIPfhLv6CNzGMfNoWPNufcViODrbh2T7Mh2sJbNSsfZHf2KtY7Nuy10fesuF7YM5Y6zh2zEt3PzrBwf6ynDly7dqJHfT98DOWcJh70TMGdOANOxnt2zI6cI6NuifhZWtfkWuvNb66L4KD3FhmrnJMjRgrNj2HXuqLf5Unroxu+OKDPFjHMUTH+CyDldixcbTOOyzEiC9G47DMfXMSXDWm6LEHk9foRye6kXPfcXVzFZtxWN6L6Vx/jiG4zTs+jcMy97dqFJ2M3gORfQ95S8e+LbOWfKUG4KHG09WH88q6UQ6vnS9zF595cf4QV8ZOj3qyXmRzYxk9OHaM3MsIRz5XHTc1D15Gc22/lvFjnlkfv9zPaJzoOFfG4bXUQeXROCzHF2s6P8aE7HzYd4c5Ns2ffVt2PODwOvv0PFyGm3/2z/7Zw/souLLdyknlmZriuRZ8nZz30bEfnH/zb/7NBznXeQansUwzmes0l2ky0z/l66/5Gmzm00D679uksfzxH//xe/2s+af/9J++r7HsPrH012Fv0lju+dTy2s1l9+mlk5CmhYYnG9G/Y5CkUiTepMwlGRQUcxRKV3QuKBc/m4i13lj2yybySJHNMI6KHmzwHN54+Y0nehlHjWX0szabiKbUb1jDq+2MMEUPDB7r+thyLsFLDsidbYAv69DzgWWZ+7bT1Ua1n2vXS+zUmDjI8GG/lrkPt7HjWs08OhnDie+Dw7wjg4k6Zp4xODqZOcYuB9zj4UG8xIFPY4/MffTrfXNjOXrsc+cjucs9Y+RcyDy5hSf7A3vsYYf79m2Z+4zVBrwwkgMwEzf3GY0/HDHvMTi4tgyn8eX9WO10Z0DmsOl9D96M4S730LNvy9zv/BgLObEPZPIEb64jc+QcJxfBQU4sM+e15CD3vJfA4DE4sNHhrnXjesDOuVivUedbcVU8ic+cWd6KvdohZ5k333DkObjxmBrB31FMtnHKX8VvzqhD49mDyT6rfduCK9e370fe0nGOLGcdNUidB0d4rr7Qcw6M2bFYB9lcx69xWCaubv/YRocnvmouOlw1Nnwah2Xu2yd1yr1gi//kwbVhzNHt4rIt+7WMH/IMr4yZR6fzET1ybE6cQ9ZVDo3D8ige2wRTRvsFi+/X2KqOfVs23/DhtaO8UevoEj82PFZOgrva5ZmWMfi4tjx6buIrTSVfew2ufFK51VjWTyv9R3vyN3LylVhs1zGN5U//9E8/fMgYnIc+sczXYVnMJ5YZ+ctA1/7Usvvk8tSnl24w/cYnRcfmzZikUYi5tkyxok/hZN7FE9nFzoZwocZutVcTlGt8UEwzjy50yx1mOEyMfmOJrjeK7/OGMRuSN5rOJznEjnFY5n5Grw/fNKzo+B8iqn10GEdx2bflrKPGwkVkbGV0XeHbB0/mXGt5uCWejif7tWw/xG9O8Asu58Z54L5HYgOX70U2DstVb5QDz1Mn5KDzuRUXPo3DMvcZiY2HQ93f6JHDbi87l9FjTUb7tmydyM4HHGTe3MBFVxfYs37NOTrGgYzNU7VjvoJ5jz9sZ28YE76DyzI4PVIPPms6u+Yxa1jnvHmvkS/O8eDo5Pp8wB66GW03OPPthOhF5vlh/lI3XoMOb2qyLvhqTeJzCys6jNXvyGatc9YzGm/qMXa4l7Ficg6rTG6IM/eZw7b9kavoec9l7+Zf+DPGVurCvlxblq2DjH9j6vz5mydbuIIT2x6NwzI6jjuYmPdoHWM4R8e+LXe24YbcxA9z8FXrCiy3zhd+M1LTwTji0udG9orXRzY3ltHzetcfZ9Q1zlX7tQwGj84DZ5XvI+/JX/Y1HGKLPR8cncwcY/XDfHBgO/nBPvhch9Qd+jyzo2s+LGMnY2fLc64N8OIz65kLzszn9zc7zNEd1UPuGZ/lrOFrrvn9yfQ79Xcq/Yllfp+yNpZ8FZamsv5uZT708x9e/e7v/u6H5jK/X/nt3/7t99d8FZZeMDj3NJb5Gux7vgp7TmN5rU8tR83l3gaTRP/BP/gH7/JKktnUbGjupQiTuCTWRUIhp9Ap2NiJ3BWdN6wPIB7cWVtf1TcYbjmmSPe8UkA08C76DuupN5WjzUVuzMuWLeOwXDF1dtHZso8O40jXvpHd5DgebGWEB9+vPjrsts2hh9/YtZzrrRpMTeYwjE18Zc41bMyWsct634tsHJarXo2Z+8ZT906uzVvWoF/nsZfROCxbJzK5iZ/YNefmhrMm50XisJ1qw/fs27J1Ohzc72I1RuoC/RHH3M9oHMjkuOM/c8n9z/zMzzw0SvYLN6P6MF5ziu+KyViRu7jg3XVQ9cDmvLGOnOOj4jA+7GSNY+cNUjf6zXT3PGENtsNf8GeMn3CFDs8mP6+Cj/uWM+eYIlcso+cYWPBT7eR6S8ecWe7s1Fy5ThJ/93L92Ga3T7hvHJa577Fi8j3LnT/myJ31q2wcltHbg8N5iD5rPZ7SsW/LjqXLQ/bcD/3QD72nVvHLWu857jGi473LPeOwzH2Pe3hyXY3qJzZzL7F255hxWAbL6EzBZschvvaeq/ZrGQx13OIY3crfiCvXUd4Xs944LHOfsXsvnXvYDReR0WfsYjBG1ti3Zeww4o/arPGjR966WtijM6qHrDU+5LznNpbEnblf/uVffthjaTa7xrL7HUsay7/+1//6fU3nfz+S/7VIbSz9B1nT1+X3LZOLP/7H//i9/6s2lv49S39qGce8DMgdcOSA50WAjP7+L3Iaye51qhGi6Ni0FEuS58Tmvu/lfi2wzNleZCeaAnZR+5DCXndQxvalr1NcXOt+Ch1bljOXfxUOr9w3X4mfecbo8i8w0YUD8wqHW/yx+bIeOXnIvxhlzLzzUnOd+/ZJLsFDXFyDJXVj3PiOHjK6nU/sdb5dn/FhLvHZrcOvMeCHw5D9UMcckqOHGDa6EbujQ3YLk+118eS+Y6+Yc1331Ck8sTnC9G3f9m33tQAu8hc/8M4cfo2bemV9xppL3xvhsM6WDXMDPuMJVtvauodehwlOO/4zV2vHPLCW+ghOsManYzDeDgcY657sbHSx1lz4Gt/g7fZsh8k2HBdYM6ZR8xsuv5EKL9yPz/A54i8xRR/OOd+oSWPusILpWnUePLGFXXNOvrmXcQvTqZz6DB/VYXiLXnDg1/kxr9y/BFNs7PFnXqgz/HfjFqbon7JnrrqYwU0tjXRGOLzfulzkbPzhH/7hXbW6hz9zNMIUnVM1FJ1g9z51LOQmNRNb+DXf59Z1bLgG7Tu8d/wxF19+JjtPrAXPFi/heM/7ocof50rwgJu5Pc+/EabqZ5SD+LBv8sHodeBzrshnhyN6Pru8Z3yOwjNzziX2YyvrwQVHI+y2AW7WVqy8X65NZOb9iWW+BusmMo1meqh8Shkcea+d36ek1/rIRz7y8Ad6+KM97tXyl2DzF8TTy6Wv4w/3xNYP/uAPPvzhnvSAwVw/seQP99S/CDv8xHLUWI6+Djv6C7HnNJdHPr006SHDm9JFVO8lwRQGxZS5WsRdAUePQozdvGLLuswz1sKiwDxSXE89poDAYDlzcEZcjOEwuWAdYzaXG0vmt2xls5iXyHUjZq7mFywZO76dn8RhH6O4XE8dji0MweH1Ix88NLZsccB3GBxHlW2TmF3j5iyy/dgW9Q5W34vc5afq5HorB1UfvqpPx2R+6/oRJmKpsduPcVpvxM85D5GKk+uRDcdrLJGzt7IOGxmNnZz7fuQRN9az39hh75KXiiXX6I1qzByfwjHy4/M6NkZ69jXKedY65hGmkY/EDB7zZW5qzWzZAs+Iv9h1zW/lcRSzeXGtjDDv0TGHW5hGscOh7SDbP+e654x7ZOdSTHv8beWs1sCozog5o31SF+fc32MjOlvc2F9k8uca2oqbWnUst8jXCJNx+7w1psjUmeM/xZPtdeux5XPCeYXbiiXX6G1hsN1qw3hGfshVcI7ydU4dj/x4j450gh+9rbiMp+NmFIc5TbzOnbkDQ3RGNWXeyHG1af5zL1h5nlrOHJ9IGgd88DuV/J5l1ckf7qGpzOivweaTy/pp5T/+x/+4/UcP/lcjfFrpxjLfbP2ar/3A/YvGsv5F2M3G0s1l93uW6XD3fmqZgBxwZD6trGP3yeXWV2PTiEBwCpWEZfTDNfeceIp6VDwpBhem13s+vrk32gSxZVwzyy50y8HcFX34H8XjP43ccUAORvnDrnFYdu5jgzfarPPonJEv6iHYwMBYdTgQWBMco3xjox461U+9H9uu2djxw7DDAJ5uND7iqRjAmnHEHzyDxbxGdk4sV72ag3rfMVAb+OReHgL+xwrm6xgczFnGruOGG/QzGmt0fU5YL/IWJvu2fMpG5YYcgBteqp5xJ656P9fBwbxl5jL6X0+rnVpDtW7MB3i7c8K+Lcd/9RE71QYcVt09+yprWO8xOLhG7mqGuKgL77V6D3uMFa/fIKHTvdmpmMGXNZZz3WHOHPYZXS/BTTzcPyeurDEOy7lX446/Llf4zmh8xO85uGY/eC2ycVjO/T2Y9vjr7ICty69xWAazfXZ5w19nGxt7dOzbMjY8UlOV61O16ljgpNqwH+OwHB1iwk7GWkMdnqrTYaq1vxdT9HzmBaPXWvZ+qnmtsXGust5cWOZ+YjQvXW1UH9GvOGKv8jPixjgsd35qDqgnY0au/mpstX7sG9lcY7fjJPHWmqn2u3g63shFrQc/W4OPa8vM+X1zcOcvvuYvv7o34lNK4qq/W5ke6wd+4Afu6yF1lL8G608r07t1jWU+taTfe/TGMg5w5k8tz2kua2N5pLncajBJyp6R5B8d9/h4rjoudMtPGY9xWL41Jvu2fEsc9mv5lhiqL+OwXPVueW0clm+JIb7s2/KtcdifcVi2zi1k+7b82L63zv3g4L5l5mYajc/yU2I0Dst7MD1W3oMD25aZe4rROCzfGot9W741DvszDsvWubVsHJZvicN+LY8w7Nlzl+oEBzYsM3er0b4tX8v/iOMj88HHOsvMMbqRrHL9QC7XtcfiG6OMtbHkg0F+vTGj+zway3zIGJwZz/rEMh9p8sd7MsaAP7Hc21jWr8Se+n1LiOhIylwl09eQ/5pH83EtOQWELcuZeyquvfks3xqPfVu+JQ77tXxLDNWXcViuere8Ng7Lt8QQX/Zt+dY47M84LFvnFrJ9W76F75EP47CM/rXeqFzDTvBhxzJze0diu8Zozixfw/ZRG8Zh+ai9a6wzDsvXsH2ODfu2fI6Na+sah+Vr+znHnnFYPsfGpbr2a/lSu5esNw7Ll9g8sta+LR+x9dhrjM8yfnn/PRq7foleyiMNZUY3lZFpKjPSWHZNZXq/vY0lfxH24auwo8bySHNZA3BwkR245Y6sU80lxJOQlzQS263HFDo+LTO3NT4W/958lh/L38iufVse6T/GvP1afgxfe20ah+W96x9DzzgsP4avLZv2bXlrzWPfMw7Lj+232rdvy1XvltfGYfmWGPb6Mj7Le9c/hp5xWH4MX3ttGoflvesfQ884LD+Gry2b9m15a81j3zMOy4/td8u+cVjeWnPte/Zr+dp+zrFnHJbPsXENXfu2fA3b17ZhfMhb76u5N+qR3Ech177LfVnXVI4+rXRjmQ8dtz6xfNTG8tSnlkeay70NZhJw7SJ4LHsUy2xjCh1Mlpm75riXWzZf9C3vXX8tPfu2fC37e+zYr+U9ax9LxzgsP5a/PXaNw/KetdfUsW/L1/Rxri3jsHyunUv17dvypXYvWW8cli+x+Vhrjc/yY/nbY9c4LO9Z+1g6xmH5sfztsWsclvesvaaOfVu+po9zbRmH5XPtXFPfOCxf08cpW/Zr+dS6x7xvHJYf02dn274td7pPPWd8kfe8px41lZmnmfToxtJN5ejTyqONZfeHe97ziWU+tUyQ/irs3k8sA8pd8GM1l+c0mCTrqYsIHM9ldKFbvjV+5y04uLbM3K1G+7Z8K//xY7+Wb4mh+jIOy1XvltfGYfmWGOLLvi3fGof9GYdl6yCfu+9Zt2e0b8t71j6WjnFYfix/l9g1PsuX2Lx0rXFYvtTuJeuNw/IlNi9daxyWL7V77nr7tnyunWvqG4fla/o415ZxWD7XziX69mv5EpuXrjUOy5faPXe9fVs+184t9IOP56pl5up4SVOZBtONZe3T+BrsqLFMD8hXYbtPLM9qLI80lxWwg0F2F330k8sjzaUTde3Cse1Z5K1CPHXPhW75KWMzDsu3xhTf1I9l5m4x2q/lc3xfm7fgwKZl5m4x1vjNjeWq99jX9m3Zfm/Bj30EB9eWmbvVaN+W9/g3f9eUgwN7lpmbaTQ+y0+J0TgsL0yfeKircGFuLN+aJ/u2fGsc9mcclq1za9k4LN8Sh/1aviWG6ss4LFe9x762b8uP7XeP/fo8Cz7mLDPHeOq9uj+hRK49Fr0Xo/u0UVOZ37X0H+45t7F89913797I/5OE/x9JgqQrpVPNiJOM/gVPA4ts0JEJhrEGvdVchqhTxOY+SXip4x4OrqmTGsCeZeYy3pprbz7LrxGH47d8ay7szzgsW+fWsnFYfq04HLf5sGydW8j2bfkxfZ96IxAc6FhmbqbR+Cw/JUbjsLwX02PkPjiwa5m5pxiNw/Ktsdi35VvjsD/jsGydW8vGYfmWOOzXcodh7367VC84sGGZuVuN9m352v47rs+dCz7WWGYuo99vdzKNZB1rj0Xvxegezf2b+zr3e/SBwUlv6P+PZfeJZdtYxsB6vW4OKOSZ6oBN99SYZsAxA4aah4VpfGYsbhY3db9c65o3Tteydw07q97H9W5+Z+FpFhwzcjMbppWr8d6akRvXj+XnhBXcW42l/3DP+xpL/josBuhWr/mpZTrn2lVf45NLmqGMJG3W0VhfizxrLhauT06/X1aOVo5WDawaWDWwamDVwKqBl1gDe/uA+gmlr2tfxaeUjHs+rfTXYPPJJT0gPWFGPrHsPq1Mg3mVxjJA/JGqwSMTmMdKwrWby5kazL1F89r0XuIBsWJaD75VA6sGVg2sGlg1sGpg1cCqgVM1cM77fjeSlms/5V4LmX4so3u2U1+DTXN5qLFM58lfheVjzzWOP3J/6dxQ6DPFyeZ8akwz4JgBQ83DwjQ+LxY3i5u6X651vWprXFvmePE05mlxM+ZmthpauRrnakZuXD+WgzXvsz03u0xzufsTSzeWb/4f/+Hder1eDlLcbixnqIVZMAWHD6+n4GYGDDXuWfJjXLPwNAuOys0Me3xWbp56jztXW/Lib99zevE05mlxM+bGe28GnmbAYE4iz4JpFhyVn+46WGd4/nbYRnPBvBrL1Rwf/seBGYt+FkzB8dRvOmfAUA+fWfJjXLPwNCs3MzzYZuXmqfe463hLnqXGjXFhej6NSvK28vV88rVyNc7VjNz4XLQcrDM8f43plBzMq7FcjeVFjSXf3U4xnSq4W9yfZSPOgGMGDDXnC9P2A2+2h8gs+ZoFh+s5mFZjOa5nc9XJM/I3a53NcC4sbvbV+gw8zbq3ZjgvZ+SmOx8zN0MtjbCN5oN5NZarsTzcEKaAVmPZP2xmOBBmwFAPn4Wpr5dZHyKz5GsWHK7nYJrhjZIxjeQZsc6KaYYmznmcpfZnwTEjN7NhmnVvzXBezsiN68fyjHvO+Do5mNNY5m/xbP2OZf4i7MNfhV2/Yzl+Y9iR/JLnUkCrsezrYYYDYQYMtf4Xpr5ewtPi5vlxM8MbpbrHuuvU1mxYZ8W0Gst+H67zqeel7rcZeAJD9nzkivEproNjhjNoFhx7ckAecybNksdTuINzNZbrE8vDh859ob/55n1zOUvRB8cMbwxmwDEDhnoILUzjNyeLm+fHzQxvlOoe665TW7NhnRXTDM8P53CWc2EWHDNyMxumWXM1wxk047nj+rE8Yx6Nr5ODeTWWq7FcjeUj1MAMB8IMGOrBszA9v+Zphjfas9bNDG+U6h7rrsPfbFhnxTRDvTuHs9T+LDhm5GY2TLPmaoYzaMZzx/VjecY8Gl8nB/NqLK/YVHzLf/Xv373xxht33/Sf/Xt3H/nfx28g9+p1SZtpLgW0vgrb53mGA2EGDLVeF6a+XsLT4ub5cTPDG6W6x7rr1NZsWGfFtBrLfh+u86nnpe63GXiaAUPHywxn0IznTuWK6xnzCLbRGMyvvrH8+f/5d999w3/67943hGkKeZ1qDjtS9zaMe/U6HzPNpYBGjWUa63AInxnDc/gexQAvP/Ct/8H7dDJnW9Ht7OzZiD/+3b/77uv+43/n3t53/Xe/695OtW9fkdEb1UuNbYQjdmw7OILHsVQd9MEQ3RFe8zLCYF/IHSfcq77sA53KS+UDvXMwwYPjxg6j68x71vPwdwQTNbllo8be5TR4iQdbNa5zuAFXcgMXGWuu8FVzVvXqfWzuwTSqncoLWGoeaq46/rZw1PXxU310/IOn5uFUnsxN90bJfIx8dHhcv/ggz9ipce2NPfx1WOOny1OHpfrq8lS5A3flOH63MFVfsVNjh6Pqs/O1RwdMo8byHEw1b3V/1f0HT1XvFKbKQRc7Osbv/O7N/9YexEfGkZ/c63zVMyx6t86XsXV1VvGQr47vPTxRH13swZKXz5Hqp/JYMe/BsMePeSHmjOB2rn2/OxtG+72zUeMBa81D5SV6dW/VPTXCUTlNPHVt7Dsv0amx7o2nxmJeiXcrjzVO+O8wV13z28UdW9YBTxdbzUEwv+rGks1NQjx2pELuaMSeD+1Od69et3amuRTQqLGsmw9uO15r0efacdb72Op43tqI2IT/2GFTjHzgC729m7DDMfJRD6buwDHWxDGyldiIs8PAvTp2nGz5MfcjTmpcsbcHU60duK+YKz5jqjbIY1d/I0yjPNjGyE+NfWTr3HzVvOfavNT7xG0/Ix3zh80RN9zPOKqdUV2Yv+5BBWbHtoVjlAP7Cc5RDlxfIx3zR+zBVJu1Ucx1/478OAcjHce1N/YOK3HsqYe9eRphzjz+GLcw7Y1r5M/52qNjTKPGci8m7wdqOaMxjTi3zhFMHc/YsU/XmeeN1zqxsbUH8ZHR9mxja29kDTZuna/4dc68v05h6vje4snchGvHjS9GY7KfEY9+5mxhwD7jyE/uV7zUB7hH54Kx4Ge03/fuqz11McLrOuxwjOKo+3aE1fGOdFxXW/7gNrxt5XEUaz1DnF/yZyyjerJOsIzicm2C+dU2li5SF12ISdKTjBCe670vEljt1fV79eq62a5T9FuN5d/587/zsGATeAMmHueBovfGctGHN6+ptnJvayPmPjjwVTdFdHih6w3G5vIc+h47HLFnf9gKFs9TH56z7ci5l3VwUu/nusPQ6RFn5WQv9+CFk1FcezBVLJUb4ze+6HnfBcOe+tvCFI6DB5/GxnyN3Q8MctPxUddt4cA/OSdPGcFRdfDNPKM5Qwe7195PxE1dgMFj9d3hi/5WLe/NNZzHpzEgg9c1x5ouhmDqGsusSR3EruuB+vQcOcC3cxCczm9Xf3tj77ASd+zaDzlxzMyBb5Qn+BpxjM+MW5j2xAVnW/nao1MxbTWWp84U8wIH5K3jk/wbQ5VHtY9dnwf4rDaMK/rUYvT25D96Ixz2dcpPfFNDWUe9wMOt8+W9CI/OE7GBc8QvehlHPGUtPhi972yj5tZ+wQLOjrMRBvuIvOXHuXS92AY6zqnvWw6mel7mfvCf2lddjJUHsIRb6gnOja/DkTrImtgAc7WfeezBveuHHO2JJ+v+yn/zux6eE8aOnfjbyiNYiBXcHp1f27UO3BKT7yE7zi296AfznsbynXfeeVn/uxEncbRhIJTRxHIo1LUUoufruuh0evh5TmMKaNRY1jjYBLUoM5+5bIBs/nAbmfUUveedv7pZtjYi6+Ln6/+T3/76c12PX3TtN/fA4xyzxiM4cpDe86SGFT3Xhg8H6sM8sIYRPkf4oxe/3UGOjYzE2XFCrOYA/czF96kYKk/wkjdvHS/UQcbUBX6MGRme/vPf99tfua6+0MsIX7X+cu8UJuzsjb36SiyJww+3jttTOGJ3a684zuiC22Pnt8Zl/S1MrOtqJzbwtZUXcmidyl9sbeEw3sjd+szja7Sv9uYJf8F0an91eLxnwGIuwxs+PKKztSdGse/FGn/w5Jx0c50v9IjL+Kt8DqbO15587dExrksxkaNur/vsIZ6M9t/JI0yJLX4yXvOsJIfOf3CNcBgza7szmVzYLjxkXeyg0/GXus99+9uDCX18OQ/sxfjv7rOWuKp/7nsMpu4fJ2L/1PkdO66h+j4FvOECzrIGfHC7h5ctP7G5xQfxYsOccq+OezCN/O6pC543rhPw+czci6PzCScd97lXYx7FU/U67NEZ1ZLtjvyOamXkm9qp93PdcdHpZS6YX2VjCUkuwBFJmXfSs8Yvb6i6uZ1Yr0HeSuQWnlnubRV9MJrnxGyuagzmOOu4jw0/aMyrN3jWbGEiP3/vv/8PHn7/c7QpOUBqjoyTPHZxBcepN53EFjuOGZzYz1hxgs86HRenMOCr4wR8W9x3B3fyAL7KzVZ+yHnGkV10wBb8+Kq5QgeOKhZs7cWEH/hwHWLbc+ixDp1RfHtxuAZdN7GLL2LO6LqAE7BljTFbN/e2MG3VTtYaJ3jMwchvh3ELR3xQWPpQAAAgAElEQVSxpvOT+3mBF52M4Yv7cGeMW3UYTKf2l9eb246bigdcjOBz7nJvT+ynsGIbbryXzsnTKY6JJeMpTKfiAvNWvvboXBNTlw84TTz4Ahf3Mro+0Mt4iifXWOx6bWR4jH38Or/RYR489f4eHHv8dPXh/IHDc1vxneIGTMRlu5Wnzjc6He7oc9/jKUze+64JbOCreyaPuKjYT2GIry0/vh89dMOja8N44LieT8S1helUnmp8sWnfuY8N++/Ori0cYPU6x+t54q2cxAZY0OnqzvjRq/UQrN0/UsQHnLA2Y/JEDLafT4SDAd2sRc/1yP2KF1/hIp+0jvRiM5hfZWMJSSGHRNZCyD3IZ1OZbCej6lGItomOk40eCX5u41bRJxbHTyHCQ43VfJKT6EQ/a829N7c3UvRHmLATfa/v8DhH9X4XU8UHjq03nbbjGIwNzhiNhZrkHqNthYstDKc44f4W9+fkDV5GB2Xu89rKAT7BBc66n8wx/JhDfJ3iKXr4iB3b6HzgiwccuTK+Lr49OIKF+OMn/okjI77AwEhdEAfcZY1rDj1sXrKfRtzgu+MgflkHf5kDR+o5MvgYWUO8GZ0nx2gd68HdqTzh81S+HB8xszYj/sDT6aBP3oyXe6dij94prLYPntjNWsdhTvFLnvZwDOY9mLAPnho7/G3la4/ONTHFVseDMUYHXI4tcuaNJ/Kp3I3yk7WcFdQWea54mDce8g+eLRx7/aBnP64peDG+rfi2MAX3qRoitoxwAFfc6/IJfmNH/xQmc1A5BkN4sF/8jNayDuynMKA/8mPfxOqROjUe3+dMgJOMW5hO5WlPXRATHMSn4wDzFo66poujw1rz2OmQQzhxXcOd6x7ORu+X4IS1jMQ5yg16YO6wRsc8jnxFr8OcxjKvr/naD9y/3n777Tte+Qosr3fffffujSjl5pe+9KX24Q5hs48mcovcFEJXmImvm4d8iO4KPWur3ux8jfBlg46Kvq6BixQinFvHm8D3yZU3uLmvm7XDhA02ytb6YKr6xlnlUVxbhxf5DxeRq01f+/Chrnw/suMhxsxvYagx2gacorPFvfGxLr7hpWLu8lPjyfXIrueDb8uX7YKnq78tnsxL1jpG7Nt24uVf9MgF97mu8RHHFg58ZRztFetENnZ878mp7XT5wgY27afjB3vwQA68zvug2s/6vdxEt/rBv0fXETXKOuKKvvXIE3a2MBFDYrW9ahPf6HuvRdccjeoPPBmJAY65t4UVHUbOJ7AYw6k8YSOjuSNO3z8HUxcXc+bXPsPpHp1rYvLehKsOg32aX8eCzimeHHN8sc7z1C5Yunywruaf+RGOvX7wTW067i2uOvunMHHfY/Xve5G53+XAusbT8TjiCRuuEfKSe5wB+Dc/wRYd+2Yu82AHzxaGPX7sGzzxQ214LvO8sN2dVVuYWJ+RWKgTz9mvuYhffHNuZZ3jgK8tHM6N7YCP+LlnDNhHl7GLh3uM9steyL1g3fMe23HCUWfTeO0HHBk7vDVu68EFNoL5VTaWHeGQYuJDsK+dCCeSechnc3NNovHBPHrMP7dxb9EnLvPYbUDnJAcEXHSHxZat7tCA7xxU3ct56PIKlm4cYelw2HbdjJ1t5tjotY64n7HjqcPAmj2cfN//8P7fDazx1utq39zm3hYm1mYc2SXOLo+ZG/E6sreFyWu2uDfuyHBL7F3+unrfy023tmLgGr7gpV5Hz3HWvdlhIr5RDogbDIzVj/dDbKLX8dXhQL+O1U+9z3X1U6+jt8X1CBN2wk9k/DF2OTAXrHEce+vPa7ATvyOsYPJYYza2U3mynchw0eE/B1MXV2e7Yt+jY8yPgcnYk3v7Q+5qgnunMNm+c47N0T7lTMAPY+WQ+RGOPX7+n+/43Q+/fuIaYi31cet8EVvGzrfvW97SHfHE+hG/e87Vf/63fud/j+dcs5azdwsDuqO6wAZ6GcG+FXd0RmdF7m1hwn7Grp47v5VHasl13dka4WB9eHHMYOts5R7Y4A19xtE67jPCt+2MsLLGI/iJ335zL7pb+cGW11FjXYzVH+uD+ezGMp9WPvdPLE1uLaKOVBLO4RcCXdSQjx6FQTLig8R6HXok5LmNKaDRv6bkO92JlZgownABX9zLaF7gKvPOB5sdXtlAttNtRPIS393LeRjhwEeNCyzOcXQ7HOi6jrDLmHj/x//2d96MOn5wpn79F8Vcz7bdYcDPHk78ENviHlv4Noc111uYwJbRcduG66jLJTVR8+R1thdfI0zEBe/Ghxyc4Z9rcux66PjANpxt4cA2o+15r+ypC/O6lVN8ddyAveM/c/BVc9Bxwxx56/Cd4qb66XIdu6f2lXmlRojVedrixjacG9ZkND50HHf1DZ+2gbwn9uh2ecRGeIl/rsmJa5i5rTzt4RgfpzDtictcV87I1x6da2KqPMW2MSTfe/bpXkzR62on866zbq+Syz35j71RDe3x48bS9QxfT5Uv81yxcO+adR2btR7ww1nT5crnKnpbnI1yFV+sP+Wn44O15DC5z4sYXAtZz3zGEaZr7XXvg+CMT2Kg1kc4vLbiJgbrYD/3Kid744leZxtuR1gzv+cMiU5sJc/gdQzEWfHCWdaRW/JqHtGjDokleX6VjWUIMMGjDQbxPgiqrkmtBXbKhwuIpDynMQU0aiwpui2+HKs5ppi5P7LFZkEv4+jwso43HDnmfreBuJdxL5aKwz4rJ7kmllHNeENv2TJ3FYPjqLJtmpM98Tp3js17A397MZkH48GORzB6PzFnPJH3YrL/aiPXYKJeqg75BCdnQ9XDTvT2cmO+nW/nsPqx3oibinkvJvt1PHv8jHh2vZ/CMfLjXO/1sydP5DT5+sQnPnH/ipz5EZbkAzzmq+aJuEd40YfnkT98bWHl3ihm76cRHvDG1h4dfGbcqve9cY2ww0/87NEB16WYRhzszb/36R5M0bFPx816j/Dq3I74sU5sbHFjH5E7P6OzMtwEAzZGeLrYtjCBgT3DWPcGftGv980vNjK69rGRcQtT7o/Ob9uI7HPCsXu98Rj3KQz2NfIzijs+qdNRTmvtxN8IE7w7lsiOJ+v31MXIluurwzGKIzic55H96JGjkY7jGeUwduB2izPnLGv88vpRXMYywmvOtvwRNzUVfmtjmQ8jN3/H8iV8YgkBGfeQGr1uk5n46FD43lR1Xfx1esb0XOQU0Kix7Aq68uU4vdG8MdCpearFjF53aHCP0Zuk2jmVmy6uaiN+Kg779CGADDedng8BYgAn6334oVMxMN+N9lvjyTV+Mtb7sef8Rcd7wP72YvK+6fzZJvjss8sTHHtt5A6T/Tt2ZDB1frhX/dSc1TrvcFQbuTbX1Ub10dVFbMBZjaf624NpVDt7ualcd/W+haPzU3NtjMTc+Un8lcPKMRwF05HGkvXVj+u3cgJmRmpsT+zx12EFR62F+MA+OhkrpsrfORyfwrQ3rtipPHb52qMDptEfPNuLqeMh/mOfV8Uz2qenMOW+89LlDZ8ZybVrjTlqa5T/rT1oHyM/mffZhb+nzhfY4eEadT2qocpBFzt4XEc1r5VH5zPrz8nVlh/fS75qnVYc0am1TjyjM2jvvoqdum86/sgj9VW563B0GFhfY666p+53nHjP4qfW3ak8Vi4qDnivOaq1UuMJnsoZtqrPjv/w++obSwhb4+889PZycc7htdfmpXqzYOoOr0tjO3f9DBgq5lnyY1yz8DQLjsrN1psk6z6mvOrm/PPZ+Zi1tmpjbsxPIS+exnW2uBlz41qdgacZMJiTyLNgmgVH5ae7DtYZnr8dttFcMG81lvnk8n1/FTafWGZRFo8Mr/l9B9Bz52nGop8FU3A89ZumGTDUGl+YxmfD4mZxU/fLta5XbY1ryxwvnsY8LW7G3MxWQytX41zNyI3rx3KwvuTGMg3m/f9uZDWW44J1QbwGecain+XQmAHHDBjqPliYxufH4mZxU/fLta5XbY1ryxwvnsY8LW7G3MxWQytX41zNyI3rx/JzwgruYN77ieVqLPX7ERD42scU0Gz/mjLLRpwBxwwY6h5ZmJ7XA2+WfM2Cw/U8IybjsxysH//4x+9fkX3vqeQZ+VuY1vl06X6YoYZmwFB5nAXTLDgqP931c8IK/mB+66237pvLr/naD9zlxd/m6f6Az/0nlnSiWYyhNY4P45fMTWpgNZZ97mc4EGbAUOt/YerrJTwtbp4fN7M1a3W/cZ3amg3rqvdxvZO3mc6Fla/nk69ZczXDGTQjN97vlp8TVnAH82os1yeRh/+BYMainwVTcDz1IToDBg4bxlnyA56Ms/A0C47KzVP/rjA5mgFH5eap97jxbMmz1tZs/C2exs3T4mbMjffeDDzNgMGcRJ4F0yw4Kj/ddbDO9tzrcHoumE81lv4DPusTy9WEvqcJnbHoZzk0ZsAxAwYfOJEXpvGbk8XN4qbul2tdr9oa15Y5XjyNeVrcjLmZrYZWrsa5mpEb14/lYH2ujWWay9FXYTcbywS9Xq+bAxf9LLXgfwV/Skwz4JgBQ83BwjQ+MxY3i5u6X651vWprXFvmePE05mlxM+ZmthpauRrnakZuXD+WnxNWcKep7BrL/K5l/T3L93xiycIvfOELd7w+//nP3/H63Oc+d5fXZz/72fe8PvOZz9zx+vSnP33H680337zz61Of+tRdffH7fB5pbEYjSbl0/NjHPnZ35HWp31uuH3G4Z/6WOJev3/4jHIuHxcOqgTlq4Miz4aWsWTU4Rw2uPKw8rBp4HTWw5z15dNwrRa49Va7dd0WmJ8tIr5bRvRz9Hf1eRvrAjPSHfGKZv80z+gM+D40lizLamJ3g2GAM0uBrYF3wlaBcb5F7dIM99cP+KO617mUdKFt1eG6ur2nrXN9L/2XV5WvL59beWfeO/WPrU/D22HV7KqZz/J+yNbp/jo8t3ZH9rfmRva01o3sjW9eaH/ll/lp+ntIOsaxx7jPq0hrZ6oG4V3un2l/V/su9mXs293L0dxnp+9wL0iNuNZZ8HfY9jSUfea5x/HH7a+CGjTFTrBymT41pBhwzYKh5WJjGZ8aM3Myyx2fB4XqeMV/GZ3lGrAvT+CyYMXcrX88nXytX41zNyI33u+UZn3vG18kXNZa/5y/8vrv1er0cpKBc9DPUQjD50HgqTDPgmAFD5X9hGp8Xi5vFTd0v17pObX30ox+9f0W+lt1L7Kx6H9e7eZ2Fp1lwzMjNbJhWrsZ7a0ZuXD+WnxNWcAczX4fd/YklnWgWY2iN4yJ+ydzMWPSzYJoBxwwYav0vTOOzYnHz/LiZrVmr+43r1NZsWGfFNMM/TJK3jLOcC7PgmJGb2TDNmqsZzqAZuXH9WH5OWMEdzF1jOfo9y/uvwq7GcvzmB2Jfyzhj0c+CKTie+hCdAUPdCwvT+PyYlZsZ3miHmxlwuJ5nzJfxWZ4R68I0PgtmzN3K1/PJ18rVOFczcuP9bjlYZ3vuGV8nB/NqLNfXeQ9/8jxj0c9yaMyAYwYM9eBZmJ7XA2+WfM2Cw/U8Iybjszwj1oVpfBbMmLuVr+eTr5Wrca5m5Mb73XKwvuTGMn/A5+ETy3SjCdgELHlcyC+Vmxk36CyYZsAxA4Za+wvT+JxY3Cxu6n651vWqrXFtmePF05inxc2Ym9lqaOVqnKsZuXH9WH5OWMEdzOkR8/LvWHZfhV2N5fpk833/kDBj0c+CaQYcM2DgsGFcmJ7XA2+WfM2CgzrOGEy/8iu/cv+K7HuzyTNinRXTU/8KQ62d8DQDpllwmJ+FqX+ezMrLDOfljNy4pi0/J6zgDuZTjWX+n5ZpKldjuRrL971xmrHoZ8EUHE99iM6AgcOGcWHq3wiEn1m5WW9q+5zNmC/2WR1nxLow9XU1a+5Wvp5PvlauxrmakZu657kO1hmev+DZMwbzqLHsPrW8/yosC7J4j5OlMy7w587NjEUfTE/d0CWvM+CYAUOt8YVpfB4sbhY3db9c63rV1ri2zPHiaczT4mbMzWw1tHI1ztWM3Lh+LAfrS2gs80df01S+ysbyD/3tP3n38S++edf9/Ks3f3k10uVT22tv0L/7Mz/wQH1kb7C98iWY7P8ByN3d3ZHcX4LDsRrTuZxcCwN4/sqP/K27r/zGr91T86O/9KGb5wccf+L7/tLdl77yjlN0v2+zf9E5Z7wmT6mV/ARfcN4ah+sFgo7mKtgv4abL01Ny41yYp3P3FXYu4cb+T+Wp4/FczJdgJV6Pl9Q5dq6NyZyey89LxdTVTt7jHDkrL83X6P1Vnil5tpCDc8ZLMVVfT13XruFT50LF7utr8NLVztHzO9iugYkYzdO5e/0SHB0no/3U1fu5z+JLsJojasmjsVD33D/y/oXcBDMfQPI7lquxHDSWIXxUQBD62sZLir5yVTfhuYcF9i7BNNqI2XTY3zteggMfl3JyDQxgyejDx4eSdU7J18A0ytPR/RlMH/nIR+5fkU/FMLrvxvvIwXwNbpwjHhIZnyJf3UM4WJ6KG/J26b7CziV1szdPo1o/93y8BCvxMl5a59i5JqZr5vRa33i5Jqaj59Oofo6clZfmq/LB+TRLY3nNuj5aQ3vPBfbQaEyujmLA5jXP79i8tH7AVevoyFl4lJu9+8m1RJ0feQ5fkscRVvDwniBj93PkOU2eP//5z7/nj/e4seRTy/f8jiWdaAIm0S9ldMFmgxMXm/2SAxBbL2m8pOgrD7W4zz0ssHcJJjA499g9dwyOo28G8AUeNv25nFwDA1jqIRVs3DtnvAamYDEX8HTJQXhprnx2JF9HsFyDm5/8yP/38EmpMR2t6WA6+hDm4XqEi1pTl+CotqiXo/sKe5fka0+e/MbuSCMAzoyXYLUd19TROsfetTDF3gw5JS7GGTBd86y8NF/U8zXfR12KiVzNUtd7zgUwb43X4OWa53ewXgNT7Fy6ry7BsWc/uZYuffYF69Hnb1cfwV/P7fDp91PoRM/znb1uLpi7xtLNZf54D3/A58X/jqULwm/EKtE0mvcZ+up/khxIZkPm1g/+/Afv32Re8zDFz1OPl2xQY4evbMLwlJ8jBR2bl2DiwHIujfMc+RIc8XMNTi7FQLx+Q5Ac5ecoR9fCBLaM7Mejb76vgYna+dy7b93zc+SBcg0c5oW8PVW+qOGjeXEs4eYaD1gwPfVZ49hGeaKmjtSS7Ue+Vm2B6ZI6B9u1MM2Y0xkxhfdLzspL80WdX6Oer11DM9Y1fB05vy/NVfilhq9xfsfeNTFdcn5fAwf11+0n+oVrvOcP1ms894LX9bT1/tp62RfEuncM5kONZRZl8V5Hz0Vv1FhSPCmU//Wf/5/D38MkCWzI+3eYX/3PNYpsNh6vsUHhPPyk2HNg5Ger8Ld4uAQTDxfnLbnf8je6dwmOa3FyCQbHRf1/34d/+KH2qXXr7ZGvhanm6pKH36WY2O/BEI7yc+TN06U4wj+14xo+mqvYuwQTvBjLEV4uxUFdws0MZw1YzE3NE/suI3L0j9T6JXmEP/J5aZ1j7xqY4HGGnBLXbJiudVZemi+/YaXuL31fdCmm5GymuqZ24CdjPReos63xmrwYy9HzO1gvxQQ3l+71S3Gc2k/czzn5Ux/58AN9R7i7FKtrxLjCpe9ZRu/o3gzm9Ih5+XcsT35i+Roay4dqkJCHuxOAzEOfBz4HVZYyh+5LGq9R9HCXYvaD5ykaS7D8/+y9Z9N1S1X3yzc4L893UPALnLIUMTxvzjGgvDKBWqdUTHXAhAIPPiJgeJSMpA1KFBAwIHGT2eQomZ1zjhir1qnfuviv+3+Pu7tnd8851+rr3nNXrT1Gjx7d4z/HGN2zx5rzWreFfM/m4l6K5RzfCMdcn8zBoGvTJgMmbew4Bbl0WugSmLAnXB6rOTlz3XXX7fiAr+V6lLPahMHAf6e6iXiM5JseLPLBnHjJF8Ih2oNnDg5dy1LrSvMJU0/eTMUp1S//QVv3JLD25jjXu2Seu//mYGKetWLKq/H4TFhb6BqY5vhpqb1ybg75uchzWXtni4+lqzXYG6+18rr3TytS6/5U++WS+zfxmps/S62ruTkztZ6E03NcfGs9MBer1onyHByls5tfW0lP86YomLfC0n7pNLWolRB+aHXnqx+qpPENtDc4qYCNJpub9PKj/ObJ7/5uue65mGTLc+GYG/uSPsEXcw4kurHo+t0nvXm9VHwUJ6g28t4DSq+fUv6IPnOcU3wvjty8vp60xnK6OfmS8VJus1e2ru+5OGRbfnDftGKRr5aKl2MRPs8trT/sKtddJjwlOgerY9G6n5PnwjkHE3OMGNMRMcnfUOVPz145N16OA145xH6gvIo6U+05mEbNa11zal9Q3xSd45fc3Mrtnv2bOedgkm3tj+6b1v17Do7om9R6SsmEv3XdgbX3SwrHqrWWu2/4WpizHhXnqcLSf8Bn/zeWGsAFO/DLgXfnkhypa1KAcL50lEhKei8sW5M+ZXNUmRZoz7eF7mt8mfpP/m25fmGioJqbo4p162YA3h4cS/ukB4P7Wnmdig0y5buPmeLnYkrNP3e99WJyuzkftaz/Xhwpn0imG1ruhiK9HAXTEjc25vfDALhyNlPyOTiWXlfCt2S8UnHS+vN9MKUnPCU6B+vSeS6cczCNGNMRMcnXoh7Llr2J8XPiJftO3V+e464zxc/B5L5YYv8W1jmYNIfoKda7bEc6Z/9mrl6/eJ7k4tSSP704oj9oew5pPSlmfj7qPUuCde791/2X8pPHtfec4L4Bs+rE+Cps6nXYrbC0b0kVIA+aEimVbO74y4Wfs0Ddb0tsFvJpLybw8D48lLkcX89i68HhNpfwSQ8G+RFKjpf+U777mCl+Libm91/Oo62NHKza3KdweH8vJl/nOT+14OnFoWvhBoFv1PZ86slh5pmDiR8uw0fCMydOc3C4H3Jx0n4urDW0F1NtnOQvj53WZOva68WKH5bOc/l2DqbRYso1jYhpyb1yTrzwD3uh74fw+o9cV1600DmYRsvr2n2hxj9z/KL5l9y/mbMX09LrqhcH11CznpTX/kAitZfLzyU6B6vm9Tz39af+3nuKxkcK5lhY8q+JUFRuhWXmiaUSRBuiU93spwIZA3Fe20skvV+7f3OSWgCum+N7MZU2rx4svTjidc3xyVIYhMl9dIqDgHBoI/S1B6/1J71aip+uvfba/Qe+dlxKTzcVLwZSeinZXByeK9E3p4hXbq88ZhGX8jMy91XP+maO3ni57VKcSnqtmHux5vw3J88159KY3F+t/nFMc/58QPOILoWpd39acq+cGy/lTMz53n0bH4NpyXgJY8/+rZj3YvJciT5q3b97MegaoEvu34pVbx47Lnj3Vetan+ObmvXk56QR4qic9kJX/nQ/Rqy0W/NOcb777rsv+vGerbC8//a9f0uHH08uHK+2NsitsPzersO5J3nrZqGFsuSmkVqIsjNF5+Dwuef4BAxLbeRg8g2zZ8NhjiX8krrh9eIRpqX8pE2852AyN14eH90k5uSwfNN7cJMvhKX3RjUXB+PjZ8660ly98WqJU9TtjWcvVl1rpIptT55rrqUxnTKmuqZIT41pyb1ybrz8XKQ9oXTOir5MtediinOeMq/jWsdHp1zv8oViNWf/xs9LxmrOupqDo2U9qS6Q//BnzLepNlh777+aWzhUn0gOdT8Kp9OecxWYuwpLBjHYAW78pYeXy90ncxboWr4ZBdMIOEbAEOO8YcrvE6P6Zu6NLeZATxvfjIDDsY8YL8fn/IhYN0z5vWDE2G3xOj/x2mKVj9WIvvH17jxYR7vvOb4UD+atsEx8m51y1ia7dKGOuEBHwTQCjhEwxHWzYbp0HclHm2/KvhntBjtivJRLkY6IdcOUz3eP3yh+GgXHiL4ZDdMWq/zaGtE3nj/Og3W0+57jS/Fg3grLrbDsfvI84gIdBdMIOEbAEDeeDdP5uuGNEi9wjHaDHcU3cY2l2iNi3TDl9wKP4Sh+GgXHiL4ZDdMWq/zaGtE3nj/Onyeswg3mUmEZf8Dn8Kuw26uw+aSVcx8OdMSkHwXTCDhGwBDXwYYpv3dsvtl8E9fLUm1y65prrtl/4Jead848W77n8939OoqfRsExom9Gw7TFKr+2RvSN54/z5wmrcIOZGpGP/rkRfrwn9wM++8JSAxisiTaaT+LL2TcjJv0omEbAMQKGmP+jYhrh0I1vRsDhMRslXqPgiL4ZLV6Oz/lRc2s0/215lj/LjJpDS/3wmq+XOfwIftryuJzHo+VMLt9GjGMOq+RgVp24FZbbK7HNXxSMmPSjYBoBBxi2g1v+BuMb4Qh+2uKVj9UI60n5IjpivIQt0hGxjopptEPnKH4aBYfnNpi2eF26b25+udQnypsR81jYIh0xjhFjbIN5Kyy3grK5oFQijbhAR1mII/hmBAzKFdEN0/m64Y20nrYDZD53tL5ydFt3db7b/JT30+abvG983Y3gpxEwuE/gR8E0Co7on1QbrKPd91I4XQbmWYUlE2yfh7cP/EnPKLkwCqYRcIyAIebFhim/Z4zoG7+xxVgesz0KDr/mEePl+JwfEeuGKb8XjBi7LV7nJ15brPKxGtE3vt6dH/G+5/hSfHdhedddd+343HnnnfvPHXfcsbv99tsPn9tuu23H59Zbb93dcssth8/NN9+843PTTTcdPjfeeONOnxtuuGGnz/XXX7/zj34VUFQOj1RJU6JXX3317uHwKflg6zv7MYvND5sfthxoz4G4747W3mLaHtPNZ5vPthzYcmDLgdPmQMu9VPWQU6+bxKuuElXNBfV6TDWa123UcXxU16nWo+7jozpQdeEqhaWM1xSWfnG6YFE5BOpOg885fmpBPByKyZprnPLT1n/ajWXz/+b/85gDuX15bfl59NWGeVvjWw5sObDlwJYDuRyovW/G+oi210/wqqtEvfZKFZYUmCouc4UlBWaqsKTApLhs+vEeBqUef26y/KP3y8JoKoQAACAASURBVNU3WhAjXd8omEbAMQKGmBsbpvw+sfkm7xvdZGM+nbI9Yrxy/hgR64Ypn+8ex1H8NAqOEX0zGqYtVvm1NaJvPH+cP09YhXtWYel/sLnxdX/YfTn5iSTypB/h2kbBNAKOETDEnNgw5feJzTebb+J6WapNbulNFvil5p0zz5bv+Xx3v47ip1FwjOib0TBtscqvrRF94/nj/HnCKtxg3grL7Vdhuw8ZIyb9KJhGwDECBm02ohum83XDGyVeo+BQHkNHxOT4nAfrVljm1558NWJMR8E0Cg7FCrphSuf05pe0X0bNGc9p50eMo+NL8WDeCsutsNwKyxVyYIQNYQQMceMZFdMIh258MwIOj9ko8RoFx4i+cUw5ftTc2vI9fwBWLEeJ3Sg45Bfoti+k82fzS9ovo+aM57TzI8bR8aV4MG+F5QpFRcrZl6NsxKQfBdMIOEbAEPN+VEwjHHDxzQg4PGajxGsUHCP6xjHl+FFza8v3/AFYsRwldqPgkF+g276Qzp/NL2m/jJozntPOjxhHx5fiwbwVllthuT2xXCEHRtgQRsAQN55RMY1wwMU3I+DwmI0Sr1FwjOgbx5TjR82tLd/zB2DFcpTYjYJDfoFu+0I6fza/pP0yas54Tjs/YhwdX4oHcyws77nnnt299967u++++/af+++/f6fPI/jpWH5ClkEMTk26yfIJfbn5ZsSkHwXTCDhGwBBzflRMIxxw8c0IODxmo8RrFBwp3xAz8HnfaPyoubXl+/R5YZTYjYLD1xaYRvwBwVPn9eaX/Loa0Tee086fJ6zCDeatsFzhaZUcfLnTEZN+FEwj4BCGkQ6+wsRhAH6ENQKOUx8E8MMoODwmo8RrFBzRNyPkjWPK8aPm1mj+2/KsfCDf4pX3j9beCGtty+N8nEb0jXIn0vOEVdjBvBWWW2HZfbgfMelHwTQCjhEwaLMRHRXTCAcmfDMCDsUKOkq8RsGR8g0xA5/3jcaPmltbvucPwMqhUWI3Cg75BQqm7YnlpTm0+eVSnyhvRvSNsEV6nrAKO5i3wvLp37v76u3X7Pjv5vtv3/3Eq37jogPCB6/+1L7vgf94aPcrb/lfF/XJkQ9XOifp/+wDV+z+47//M+lz+bNGR7qiczBpDqjiDnV5Ld+DI2WTnCP3cv+lclYYezBorOjffuYfLzHd6xPmnINJvkitRfnOwYJd11GiYOo54Mpm9IdwOhb4FG7H1YtDc6Ri5RgiTo0r0TnxYl6tYeGY8kEOy1wczKt4CYtoj1+YbwlMuetdWj4nt+S3kp+4b7IX8V9pT/LrWgtTXH8tObdkTOU35VmtX9xH8D1+kg9S1x7XJPhKsRWeHhwam6I6d6UwpvRTsiXiJV8pTtDae8dSmBSTVI704FvCL1ybYiTfnCJWWke5HG31z1K+ScV+adl5wqprB/NWWNriSS1qJfWcBSWHX260J+n9AMJmlfJ5jU7Olz2YfC5t8NpIc5uZj0nxLThKNlObprDl/Cc8LRg0JtJ4Y5HtY/jFsTiOuBZjvggjtOaAgJ9aCstSvMCci1nE7dcH34ojjh+tsMzhmfJDvC75Zu6TCe3lnh/wx87l1PWtLevJrak8d8we69Se7rri18CUW3t8icn1yHaOgmlunuX2o1q/RGytfirtlTn/1KyDVhzxOrztudWzH2iuufEq+aPm3iEcTlswxVyJOdKLrwWDY3c+t1/2xqsVk+dILj993/F9vRS7Vhzuk2Pz5wmrfAPmWFjywz2pH+954IEHdpftj/doI46LGkdpcfUuJjn7cqStSZ/aJKPPa3RKvmzF5HOlNqm1D509Nt1Ha2+gH7/+C4cn9X4TZM2472r51vi4Td044lpE5xPXf/HwtoH7pyZ+YKotLGvipRtixDnloxYcU3OpX3hbsWh8a7w0zuOmNd4aF80F7cXhc2ifr8kJH5fjl8CUm3tpeWtuKW+05nIHO3B6XNFTvKeuYQ1MirHyXWuxhN9xLhFTnRmwWdqf3W6Jr/WTrzls85/8oPmJFT5CF5mPmYpbLQ7ZylG3mcKYG5eSz42X8ty/eFAOQVM2p2S1mOK6wRcxBr34ajGUroU89vwVFnC6vDSH97VgclvY47+4b7v/ot/cbuRbcMSxx26fJ6zyDZi3wrLziaUn9Xfyfp/4Lmch+E0mbvIKxHmlrUkv3+ATbd5xQ6jRKfmrFZPPxWbGDQZKrFKbmeuX+FocPTblu6kbXy2G0nV4n2JzDL/Irg4hXKvW0tQ68sMk/tVcOdrip5p4yX7M7Zx9yVtwaEyJerxq/JCaqxeT2yZumlu5ewrfyHavL3QNor2+0fhjUrDWfnkCrpo8F3759e5v37ffM2tj2+q/KUzaKwABpoivBlcrJtkQzeW9+ntoLSZdP9deu1eCp1a3NYdy1yp7ypep/Tw3D/Ja3+TmIKf4z3ND+DyHcuNT8lpMyhXsaQ05DubuxVeLIYU/JxNe/AXmnF5O3oJpaq1jQ3FqzZ8WHLlrOZb8PGGVT8C8FZZWWO53mMz/PHl1cIyqJLovPm2crhc3DgXjPNI5SZ/bSN0PNTquDz8Hk+byGPZsoD04am0q9/wbVuGOdAlf6LDiOdzrkx6/+DWVbiTuP2Hl5uTjc3yPn9xe9IdiJBxQ3z+WxJGbC7n8NWfP6fENtt0/su+yGn/4tfXi8Dm0n3hcYuxcf4pfAtOUjaX6wdpSWMquxyzlKx188W1rvvX6L4cpJxeumpzrxSR/ae2zP//L1z68/6JS+Va7H2ku0R5MtdfsPiOGspmivTnkc8k/7Alv+eJ79q6piYvP4XyPb3w8fGpfODYmYdBe6RjVpzyCTuFbwi+OAV45VXP2iGNp92Dy/MS+zyu/QMXjm5QPfVwPDh9/TP48YZVfwLwVlpmNxRexL2Q/aPviZgGwUfpC8P65i1JBG4nOSXptBKVNoEYn+mMOJs3lMYybmXSmaCuOWpstPmnFkLomz3etCc/r1JiSbA4mraGUffefcJZyyzH2YHJ7MUd02BYO0RTuuTh8vPMlfK43xff4RnMqXrp+p1O+0Byic3AwRyqPhSfGTzan6FxMU/Mv2d+LtZRHKhIUS8V7zXWHT3KYhIe4ehEnXMJZ8muvnzRnbu2D6ZgH8pprdj/W+qbnywn5RvbkB/mqxrbmiHRuvJjP82bunsB8PZhK9/UefD0Yom+9rXzCP/DeV8v3YFLORLul/Rxd/JnD1YMjN9fa8vOEVb4Ac1dheffdd+8XjyY677S0qLWgtPnlEl0+yPX75uA3PY07j3RO0pd8Ll/U6EhXdA4mzZGLofpraCuOGpuuU5NDrRimrsvt1x4e45xzMMW1GOdW29da6QYj/R5M7oupG61wc8Mrxa0Hh64h0iUObcw5F5PWsG72arfmDziuvfba/Qc+Xm9r2+PXikW25vpG8xyD9mJ1P3meu1w5rTyv9eeamBxrC65eTIqh1p0fhH0/clwaM0V7MOmadW6JNhxnTieO6cGhObwQkA+Eoda+5nI6BxPzyE/amx1nzb3DsYjvwZTbF3vx9WAQfqfuD89p16nlezD5PqO8wZ7j8vyRH10W8fXgiHMcqw3WJe97x8ANZmpEPv/H//ld+0/Vj/c8nAvLqZtEbiH4ON2IjxHkNW3MWaDaAEqHkBqdeH1zMGmuXAzVX0NbcdTY1E2mtGk6tlYMPjbHt2KI88zB1GK7JXd6MNXES9deq9uDQzac+k0XP3hfK78UJuzOwQWOpW+wLfmU8tuSvknNv6SsF2sud1UUcNhM/aenUqVrWBpTDuvae4Ffo+7zfv05XD6uxPf4qZTb6iNu8CXb3teDQ+Pll1SuSNZzLpqDKbcfKbdr77O6RtEeTKkcnYOvB4Pwi3re9vpCc0F7MDmGmKvymd/jlNslvD04/DqOyYN16fve2vjBvBWW9ipsqsiJieqL3ZOXBRBfhfX5tAj8hrN2gNeef84ClT/cRxFvjU4cMweT5iptZtKZoq04pmx63vlGWsLRiiHOBSZ+FVZyx+C5r/4aOgdTXIuyx6GFv2dS231Zyi/p92ByG/GGBxYwaX7h5gBVOjz14JANp36IK9nzMTlemLi5wef0UvKnvvP5F+lrPffsgdiec4ONuezxq8mR1PXJN/zzFK2+Sc23pqwXq/vJ81yHbxUFkdbEeGlM+E85pv3J14Ljz/m6F5PmS/nLMfSsxx5M2nPkB+Gbg6UHR8puzBW1j+UbYfL7me8BOd9p3BTt8ZPy1nHMwdeDIV5XClPUaWn3YEqtJ9lMxakGcw8O2Tw2Beuc+96x8WIPzFthaTcjX9QKSCp5czdVdH0haMN0SuJr7vNO5yzQmg2gRif6cA4mzeUxJKaSt9BWHFM2p/pT2FoxxDncpucw/LH84phSa5F+PyxFnDWHlR4/uW+iL4QzYpla+z043D/itT/VHO41JkfB1Htjy/kh+itn2+VzcDCPx8vjMsdHS8XLr3Mtvher+20qbop36j6auq41MOX2glhgpfAg68Xk88kPnmfwtX7xuXoxCUO8bskjNtpRdwkccQ5va5+asutjIj83XsKQ8sfUfh2xqN2DKXfW6cXXg0H4ob7uU74hj1y/hu/B5DiiTe+LGPFbDlMPjtxca8vB2nv/XRtbbn4wb4VlR2GJQ1M3MJLZk51/W4+bif7r3ahyATy1fM4CzW2kfk01Oq4Pv8RC9BjGzSzay7VbfTNlUzeYloNwK4Z4Lf6NqXK4xX6cj/YcTDoUxYOI+044o04Ki2Q9mNxmzBHFSligUUe2nfbg8PHie9aNxkYKpt4bm+Llfijd8KNtb8/BwTypXG7JEccifql4ab41aS/WUp5HvIp3bQG1FqZ4b67Fw/X0Yoq+iHvAnHt/DybFIua45L4mxUfdeE09OOIc3paPpuz6mMgvgSnmC/7o3afA14OptGf34OvB4L71da/8cEoeuX4N34PJcaRsxn295nzSg6Pm+tbQAWvv/XcNPDVzgnkrLJ/+vc0LpOTcqYVQGnve+kZM+lEwjYADDLymN9Krehum/H4zqm9GuLGNsJ7i/jxivCJGtUfEumHK7wWKG3QUP42CY0TfjIZpi1V+beGbEe5pnjM5/jxh1TWAubmwvOeee/aDGKyJNnohibfC8oIvTpEXoyzEEXCMgCHmwIYpvz4232y+ietlqfaWW/ncch+P6qcRviDENyPgOA/xOnXhMmoen9ov5M6IvvGcdv48YRVuMFNYUitW/yrsVliWb1BbYVn2j5JvLTrKQhwBxwgYYpw3TPn1sflm801cL0u1t9zK55b7ePNT3k+bb/K+GS2HtljlYzWibzx/nAfrddddt//Ae9+oPDhTheV9992343P//fcfPg888MDuEVSfW2GZT1gCvRWWZf+svRhG2TRGwDEChhjvDVN+fWy+KftmtBvsiPGK603tEbFumPL5rrhBR/HTKDhG9M1omLZY5dfWiL7x/HEerKPd9xxfigdzTWFJUbkVlgv/LWYqIOdNNuICHQXTCDhGwBBzesN0vm54xGuEG9soODyfR8xlx+f8iFg3TPm9YMTYbfE6P/HaYpWP1Yi+8fXuPFhHuP86pikezF2FJU8tGTxlYOvPJ/fl4JsRk34UTCPgAMMIf9Pgub5hyu8Jo/pmhBvbCOvJ8xh+xHhFjGqPiHXDlN8LFLeR8myL1/mJ1xarfKzwzQj3NF/jOf48YdU1gHkrLLcnkd1fEIyY9KNgGgHHCBi02YiOimmEAhzfjIBDsYKOEq9RcIzoG8eU40fNrS3f8wdgxXKU2I2CQ36BbvtCOn82v6T9MmrOeE47rzhef/315+ZhHph5+MjHf7wn/o3lJa/C6oklE2yfh7cP/JufUXJhFEwj4BgBQ8yLDVN+z9h8k/cNN1fdYGNOnao9YrxyvhgR64Ypn+8ex1H8NAqOEX0zGqYtVvm1NaJvPH+cH/G+5/hSfCwsY1HJD/gkC0sedfK566679p8777xzx+eOO+7Yf26//fadPrfddtuOz6233nr43HLLLTs+N99880Wfm266aafPjTfeuPPPDTfcsIsfOT1HlUA9VN+mjkx7rmsbc/YrW5sfNj9sOdCfA7k9dxT5Ftv+2G6+23y35cCWA1sOHCcHeu+ZsR6Kba+f4FVbQWPtpZoMqlpNtRtU9ZxqPNV8UNWBqgtrC8sHH3zw7Fdh77333h0fDdREmtiNCYAAQR2owEP9ouIFuzPER4epHR071e4N6HkYN3Xtl1v/eYjJaBgvtxzYrufSL98ebj4ZbY2tiefhFtuH8/WumUfb3GdvQ0z54eGaf1N+ebj2HzsfVOfkqOojp7Geou31lheS1GJeo3ntpnrOazzVfaoDVReqTtSrsP7PjOhJJUXlSQtLHOGOgs85FnlvsC+XxdF7/XPGXX/rvbtRPlwHsbznB3/wpJ/WfPrQ527ePe+f7tw98RX37n78fz+we/Qzv737v57x7T2ljZx+9FrnHiU24FCenTo+bl+YTu0n4XBsp+aFafPNpfvJYR0OtP/l4jRKHB2fMJ06x92+MDnOU/PC5DhPwSvfuS+N8hGmU8fI7Y8QL2FwXCfnv/PnDKfIXbc5Ys7kYjNkHCfud7MLSypUVauqXr2iVZXrla9XxLVPLVPF5VSBOafIVDA3WvcEhEUxgq8ch28kp+APm9d3NtNc+3Xvv3X3+Bff13SjRp9xtT53v9SOWUPPcRCTNWy0zuk4HF/rPHP13bZjmjvvnPGOw/HNmbNnrNsG0yifw5oeZP/L+db953xO/xhyx+F5dgzbORuOw/Hl9I8hdxyOr9X2IVcn7kc5PWyrb5SiEhzyg/tJslNQxzEnXnOwu13HM2fOuWOFgxwC3yk/uhZhUnskSv0CPj1Ec14yaHzo5u1jPK2k7lMNSD0IzlhY8jeV+hSfWJZeh8WQiksVltDW4pJHtCnHuOPEu6NL/EiJcx6wlHzpfbmkdx34ta8ZHLKhjUvtY9Fauzx5/H9fdqGg/JFnP7h76hvu2b3hA7ftPv6lm3ffvOasqIfSRk4/erqxM555pq7N/TKlu2a/48BPa9qqndtxOL7a8UvpuW3HtNT8pXniOlUbHOLBJ35pWsJGX/TNsf0T8WHfMTi+qDtC2/E5f0psjsN9eUpMjsPxnRKT43B8x8aE7VhYqr0Gnbo+3QOl536S7BTUcZwqXm7X8ZzCH7LpOMDnGKWzNo12HdPatuP8NfdQ8EnPeWSqfVI0VTfF119Lr8D631RSt6mOU10H1YNELyq7C0velVU1qvdpNbEMeWEJAIHKFZZcRO7JZa64zD3BxMkKRAuNQT/P7ZbrXko3Jv1S8/o8NTHxjSJuIjXjl9Cpsfs377v9UBz+33/24O4V776jqchCn3G6uTJfCbv7paRX6vNY9PKeJ/hJ88hnx6RuW7zjk+xY1G1vvrn4h9uib/BPKVfX7lOeyg74xI9AY866/5yPesdsO46Ha77X5Irnlue9cnBtKoxuW/cd9Z2CRgzup1PgkU3Hgc+0ptaOU7Qlu77OJKuhup6laPSL59NSNqbmUQyk55gkm0Nr/Nqi47ETnyokJUsVlMjWKiqp9VT/qR4Ep2pE/Y1l7mnl4W8sU4UlE2ryVHGpwrL01LK3uCwVmL1FZkvg0Z2TiLmxrRhOra+kHwGHfBo3EcnXplN2X/LOOw8FIU8g9WSyFRfjGK8bLPP6HB6LkeIjXPgpxUu2Js3ZPqWf3HYO35o+0dw5245Puseibht8jtExeP6vyQuDbIBP/JLUr20O7/5zfs6cc8c6Do+n83Nt1Ix3e847vpp51tJxHI7PeWwvmXeaCxspXvcc9Z2CRgz4aS6OJWJYG68lbPkcng/OOx7XX5Kv8bvHB3yeWzXjl9CJdoVpSV8sORf4VDQ6L5lorqCsKSprfrCH2q3maaU/saRW7CosU6/DUmCquHQgNcWlP7WET1XZJQfKySW6ZNAfTnOVfEqfkv7UPgGHMGgTURu6xOY0NYfspvT8SeWL3nFxIZjSd5lfh/PMo5ss83ufePeLZKegjgM/CYPzkq1J3Z7zjm9N+6m53bZjcj41bmmZ23Pe8S1tc2o+tw0mxzU1tqXf11uJjxgcX4u9Y+k6PuePZT9lx3F4PJ1PjVta5vacd3xL22yZz3E4Pudb5pNuKb/Vh40Ur/uN+k5BIwb8JBy6xlPQteI1dS2eD847nqk51uwXDmIEPs8txa2W9uKUXY0XJrVPSVNnbPBJ7rxkpXpoblE59Qps6mlla2H50EMPnf1zI1ShPU8tc6/EAj73Yz654rL0eqwcLcfX0lMm1Bq2a697Kb1U0vfOPccfvlHETWTOvC1jc3Y//PlbDgUgxWDLnFO6XlxiJ+q7X2LfUu2aeHue4CeNcV6ySEs4oy7tkj721O/8Mfwku5G6bcfkfBxDO3Xtc2TY03jnPXbqX4qmrstl0TdTPvGxa/DYdwyObw17c+d0fM5r3pY4asxc6jjcl87PtVEz3u05D75av9TY6dU5pZ/cH/A6+MeiTvK1qftQGCRzP0l2Cuo4ov+m8NTmW0oPW5I773k8ZX/N/ugX982adn1ubLpdx+R6a/GKTy312IlXjVOiqYdyyOLDO6+94P3PFf1hoB4S6qGhF5U8TNRrsDxsBCe05olltrCcemoJAIGqLS7ja7GlAnONIrM26JveTYeNTEl/LJ/kFj441Bc3EcnXpjm7+qEeXl9dA4Nei8VOnN/9Evu8vXb8PE/wk+w5L9ma1O057/jWtJ+a2207JudT45aWuT3nHd/SNqfmc9tg4uN5e2w+YgDfsTBM+SrV7/5zPqV7LJnj8Dxz/hhY3J7zju8YOKIN5RM4xIMvxUu2NM3Zi0Xd0nZr5osY3E8145fQiTGj7Xnj+eR8atxcmc/vvOPptbGErzw+4OOzxLwtc0S7jqllnl4/to4DnwpI5yWLtLagpKZqLSqp31KFpYpKqApLPYD0V2Hjr8Hy95WXFJZTTy1zr8TOKS6nCsyaIjMGojXQl6N+9ElPeyrpa/z2rW99a/ec5zxnB63RT+mAQ/K4ibRsHOi+4hWv2H3gAx9o3vxSdt/wwbMf6+EHd7517cU/TNKKy/V1rdCrr7vp8IM+2PM+94vLW3l88sEPfvCiuVvmcBz4SWOdl2xN6vacd3xr2k/N7bYdk/OpcTlZ73pye847vpzNkvytb33rjk9JJ9fntsHkuFJjfI2k+C9+8Yv7vSbVVyMTBumCT3yOpnAeS+b+c/5Y9lN2HIfH0/nUuJzsS1/60j6muf6c3O057/hyY6fkrMFnP/vZi97TZNOxSpaiuXyskWNDes7Hok46LXTuGowYiFeN/ZSPJOvNIY2Het54jJx3/aV4n995xzPHVs/+7fHw+ICPj/evyeu6ZVftpXyj+Xpp7swNPvU5Lxk0V0xK3vKU0l9/zf1dpT+tjEVld2HJr/uoGmUSfdxA6Yd89PRSj1n90Wt8LVYVdXSM2nJcjrrz1+Z7Eyo3bm28S8+fS/paO89//vN3v/zLv7w/GEBp53xTkvtGETeR3Li4oVE4/eiP/uj+QMCh4Kd/+qd33/zmN6s3Qdn1eZ/wkvv3r8G+8j0XXoHN4ZkjZ35uuNjzedwvLq/l5RMKfz4/8zM/sz8s1cZXep4n+Ely5yVbk7o95x3fmvZTc7ttx+R8alxKllpPKb2UzO057/hS43Kyf/3Xf92vJ+UOa4sDXEo/l4/YVh+Y+KjdSp/85Cfvnva0p+0/rO2eYjdicHyteJbUT/kUmcfO+Zz+MeSOw/OsNraOkZg+/elP33/Ym4ip95f4aFu6jk+yFppbg63xBofGuG+cV/9SVPcubKT4WNRJp5Y+6UlPumgN/v3f//3BTu0cwqBrdj9J1kJTOdQyXrqOw2PkvHRb8mlKl/ml43xtHgtTpOzV7Nlx/456U+3ol5Q/puaY249Nt+uY5s4dxysWc6jHzvlczeNy1UlOVVOJxvpLdVksKv1ppeo7fwVWTytzhaWeVkJ5UqmnlYcnll5Y+lNLJlRx6Yb90amKSn9qqQuJF6gLd+oOct6dOcXPCfI29ubDxhV94Ukf+2rbb3vb23aPeMQjdtDaMej5gvaNIm4irjfFs5l+//d//46bzZRu7I92P/KFW/fFHv/+ZNRdo61/5xK7mn+J+FAgyCct8XFdx4Gf1Oe8ZGtSt+e841vTfmput+2YnE+Ny8l615Pbc97x5Wzm5FdfffX+ywgO/fA5vZzcbYOJj3K7hz7vec/bfdd3fVf30/eIAXw9OHJjcn7olbv/nO+db4lxjsPzzPkWOxRyxPRDH/pQU365PecdXwsO1+1dgz6H4wCfcsZ5yZambsP5WNRFuzXFoa9B6cd5Su2IAT+V9Gv6lEOpt3I8JiU+xku6+E/8GtTnd97x9NrlyTt7t75QrvFl1PH4gI9P1Fm7He06ppztXp8tMU6xo66Bn6pvvC5y3uso8bHmUi1WKiqnnlZ6YUmtqFdhVViqqEwWll5c6omlF5YUmGsVl3KKO835Kce39i+RHMee47d/+7d3fErXyg3vu7/7u/c34ZJebV9N0pf8QNFCEee0pJ/r00KkP24iuY0jJefbb24u3Pxan2hEu8//57v2heXT3jj/xpe7bpdjh5vuC95x9+FG5n5x3RYen3Bo4+bbWvzLjuPAT5I7L9ma1O057/jWtJ+a2207JudT41IyX0daVym9lMztOe/4UuNKMuUMeQNf0k31uW0wOa6UPrLUukbGuiaX+fII3/S8ei8MsgE++ByWU8vdf86fEpfj8Hg6X4uPfYmYKu9bvrxwe847vlocricsTr2/lnccjs/5qbmUp60UGxrjfCzqpFNLWYO8NTBnDUYM+GnKfslPc3LI510iXj5fLe/54LzjqZ0r6s3dv5nP4wM+z6epuNX2R9yxLbuSL+EbzTWXps7a4JPceclEvQZyXvVSpKWiMhaW/nDQ6zo9SPSnlTxsBCd0VmH5HsWJmgAAIABJREFU0pe+dP+UiSdN+jzmMY/Z36wdhIPzJ5fx6WW8YLWjY9R2J+Z4Ob+HUqCxqHJjv/zlL+9+7Md+bLJAYx75B1oq/HJF3zXXXLP/xig1Fow8TQIP/Skdv4a3v/3t+8Lywx/+cPbaXH+KLyV9aiz4hDfVj6xnoYJD4+ImIrlTDpaKy5wnGL7xya5kv/bK+/aF3t996I7Djc8xRJ74CxO09SnPmz589jrsr19x/8EX7pdoT+1o123nYtQq9zzBTxrvvGQlSv64j+BL6zTOJXtcO7x8UOMn6aYohxO+sAFLqr8kc9uOSVjjNcz1QZxPbbfnvMdOuqI9uVPyReyLvnH/RF09HY35Acao29vGvmNwfLk5KTBST/yj79BBNzdPTq5YpKjHzvmUbo3M87xGP6XjONyXzsdrlV3Flv076ng7ZTfKsCeZ845P/SWqe1pP7Bxz5MEhmfvGefWnqN/j5Lea/Yn7FzZ0H3M+FnXSSdE5b/+k5pNMGHTN7ifJShS/9K610ryOw2PkfByvvCrtXdLJUeZXn/M1eRz3IPKk9dwRrym2o19K/ohjabP2OaMph6Gt8cOm23VMKZuSsV7i2xARjx7UaIyoYtJDPXbOp2qdj3zkI/uzh/zzwhe+MPsDPR/96Ef3ui960Yt2/qSyVFTWPK1UYUlRWSoseQVWn0fwWFMDoExCYfn4xz9+/zO2enr5+7//+7sf+IEf6C4uuTgVlJGqoMzRlMNrZQo8BdzP/uzPHhL4BS94wWHBSoeCjEQiiNBSgUbfFVdccZiD4o8FkZqX+dVP8Sd7UNlkLDrex02NDzLnXafEYys1b8p3qXk86VP9Litdh+vV8lrAUN8o4ibietrApw4mPqaWj3Z/4i8f3BeWn/rKbYcDQmmu17/+9YeDpXC2bPLY4aaLXdmpiQ83F+yQ/7W+b9VzHPhJ452XrETJ8dz6KY1Tn9tz3vFJt4WCiz2hpcjV/G7bMTkvXehcH/hczrs95x2f68Ozf6yZO7JNPoOJj3I7Uq2ZJQvJaCNiAF/UiW1ygtzwPQes/O0SVD4lrlrvks2l8h/zON87r/J8zhp0HJ5nzjs+4jl1r3X9Wt7tOe/4puZa+p7m9sChXAJfipcsRcm3mkIyNTZnLxZ1qbGSpfJefXNoxOB+mppXRUFrYeJxyfGeN55PzufG6uFBPPvl9F3u8zvveFzf+dZ7/5R/U/0eH/DxSenlZMSMv/Wc88VNtOuYcnb1haAKR/ntT//0Ty86h5PnqTO09HuoYsc5HD51HkemovIf/uEf9sVkbMc66nd+53f29yIvLOMDP38YWFtUlgrL1Guwh7+x5F1ZLy5ThSU3ycc+9rG7T3ziE/u/u6x9chmfXpYKTByVKy6jPBeMnJybJYXlV77ylT2l7brXXnvtQc4NhWSCus4ULxtsJCldbtx8vI8x2CLB2XjUB85HP/rRB1lqrHRzlPmYg7lyOiV5Kel9nIp2MC69CFm4WojwcRPxjYNNwA943jeXj3Yf/cxv7wu9a67P/41qySabPr5ig6vZnK694ezfy8Su9N0vkkVKfq1ZHGDPceAnYXBeshzVzRe8OZ0pudtz3vFNzRH7WUO8vcCnB5vbdkzOy+YSPtBckbo95x1fHMP1smeCK/Yt0XbbYHJccX4dBE5VWEY8tDkUkResL/a+lI5k3Eu+7/u+r/hlpXRrqfvP+drxrjc3zzWX4/B4Oi9dvkjFf/hGsqWo23Pe8ZVsaS0e654mLI5Vskj1JcupCksVA+T90vfbnsIS/8gnilftfTX6Ntf2vPEYOZ8bm3uokNN3uc/vvONxfedPce8HY+ncE/v8HBT71PZrSvHYbPUNefIrv/Irk3vynNj5Gdl5Yqe285Kp1uHpJPff66677lAXUTzyiUXlP/7jP+5+/Md/fP9RYVlbVFLLpV6B5aEiRWVNYaknldBvf/vbu/0Ty5rC8pOf/OT+iSWU4pKCBaoCk+r3n//5n/c63/jGN/b/zuXv/u7v7itoPcb9p3/6p8Mj2o997GP7gzUOYS7p4Ew5TQ5eihI4LyAVyEj5ZoBDPzT2ldo6iGEjpUd/LPRIcL4lIYHo17hYFKLHBx35Ks7FNxuSoSs9qOTMr6JV/dhOYU4lvfA5BRP2ImbXSfGpTSIl8000biLS1wbARiUZVJvTXBrt6gbotlp4bajgrh0XbbpfcnMoNupPxWGuzPMEP2k+5yXLUa1LciinMyV3e847vqk5vJ/YcPB9z3vec8n6dL0S77Ydk/Mav4QPNFekbs95xxfHKHeivNRWntVQbEsPTHzUjlSxWKMIka2IwfFJR1SFB/mqvVl9KQpu7ik5/CWf5vo8ds7n9HNy7gdz81xzOw7PM+elS37piwvJlqJuz3nHV7Kl3Ce++rK0pE9fKu45GTjUB74UL1mkyr14r4t6uTb2dD90XvcX9aWoCjhsU1SuVVgKu/tJshSlyNYZRPFK6fXKHIfnk/O5/ND6Yu3ndHJyn9/5mjxWDvvcvdefGxf9AsacbkpOHs394hubbtcxpWyyprHJfb20JzNW58o55xL3P7zHDj5X38TCkrooVVh+7Wtf2xeUV1555e7nfu7ndhSWSxaVucIy97TyosLSi8uXvexluyc84Qn7C2ZSnMGrsbwOS2WLw3/+539+95KXvORQWFJg/t7v/d7+Q5H58Y9/fPc3f/M3hwukqOSpHAUlTy2htCl4cAwyikxkvCus4jJFc4GokVP9czNLvaus8V5YSjZFdShsmVcbDvaURMyDrdjWY27Nr+tALmxeWCKLbWQqKvV4HRlz4BP/ZgR5Kenp5+M2nI+LqaetTcE3iriJSIdNm8MRGwA5pKKZG4505tBoVzfhnjm1WbHxt4yXTfnSNyjJIo1fMOS+RIjjWtqOAz9prPOS5ajyUnGD4p+cfkru9px3fKlxKZnWMxicT+mWZG7bMTmv8Uv4QHNF6vacd3xxzNq5g23lP5j4qB0p69vXNfnBWo96c9oRg+OL83ox6Xz0odrk0dJrz2PnvGzWUM9t52vGpnQch+eZ8xqH3/CL55l/ASq9Hur2nHd8uXnJK+FwPqffI3ccwkeOwcdci23dP+JeGfVybbfhvO4vuXHIPdedL41p6YsY8NPUeGKkYtL53Lil4sU8il1pTs53qb2rNEZ9Pr/znj/SjdTXFbnSuv/k/Odyjw/4+Hj/FM/69zxWHKfGeX+065hcD/9wH1Ex6Xz0ndpLrX+dl+O5Gqze5/xXv/rV/T7EmZ86SH9DSZ2kuuj6668/FJM33HDDnn/xi198qLsoMHOvv9Y8qaT+421WcEKpE/WrsCos49PKSwpLFZcUlh7sRz7ykbtPfepTF/37lv/yL/+yLy75VguA/JuAP/ETP7EvKOOFcHE8xeRvNCkwaauw9KeYcgwVtxw3h3qQxKsgU4EmudOewpLijJsRyeBzOR9tqxBjjNuMesyRKv58PDpTbXS4bi9GkZGwLDYobX1KSY+OY6Yt+xyQNUekOrwov9hYtIhzFBzq0yZC2zcNNgDm9G+/dBilz3Wdl47wsBl7v3jZVTveACXPUb5lZmPHDjcZ7OqaaqlsSt/9IlmJyvfxBhNjpLYKHeIqWYp6nuAn6TgvWS3Vzbi0TuNc2NP1Oy8/ub70clSHJsbIby1YZGuOb1p9UFp/HgvnHZ8wp6h8EHMn5z/pl9a34sIcYPKY5ebV+tJ6L61t6ULB4XuD94kXBrXBBx+xMJf7QbkS9dR2rJIxh/Ycn0v97NHqz60/j53zqfjlZNjR/UAx68lzze84PM9ibGWLa+T6/LrlD80ZqfuGvZR1EnWibfU7Psmc+j0NTL6mhDFSvxaup5TzGgsO8e4b59VfouSn7mHYVe6WKDbU77zuL+qLlC9pfQ0p76Oet2MRPLVeIwb85POJl0+4dhUKyJhfXwpIJ1Ld17S+GBN1Yrs2Xp5LOZ6cUt7ndCQnPil+Ko8Z49egHNXa8r4UL/2pXI5+ifmreNVSckrFZQpXSoZNt+uYXF9xV7zjWnddeN1/3QeaQ7mjvZk9UzJR5aHiJ+qxc179XvOouNScKip5EMeHt0L5wKt+UmGpmktjRXkgSN3Gw0HJ/vqv//pQ3/krsLMKSypPikp9/IklF8vTyvhjPvFvLt/xjnfsgfLrXhSaempJUSrwUF6XpbC86qqr9hsAlDYfOUbvCMt5ou7wXl4VPomQm8MLrZyO5Ao8C5aCUPIcxa50dVNHV8UkiZOy77qaG10Vs8im2uj4Tdnjwg0au5obStJ7G17Jr+vWwkKumzB90ouUhakCFp6njH4wiIubtm8UcRORPptFqmBjo8LfFHbSFWWzYxw6UxtftKsboOZqodq0tfHUjo025Zfo41JbG6PHLaevzXJK1zdH/KT5nJeshSqfwFwzzu057/hq5vE1ir7WJvKa8a7jth2T864fefmgtKYYI4zaD+I8bs95xxfHxHZL7oCb/cVvyjHPsS0ZmPioXUOZu+agJNxTuhGD4xMe9ou4bnXAlo5T+lLFj68p9mTPrdiOcVDbY+e8+qfoknkuW47D88x5dJWvXKvGQnWYc/94P+N+9Vd/9aJ7hveLd3vOOz7piipP3Da84i29SBlXuqdFfdrgUJ6AL8VLVkNTeZkbhz3d75zX/UV9TplfB37Jlfdqp+hnPvOZHR/6KAK531NspnTBKwzC7n6STFTxAptkNX747Gc/u+PDGPINTMyVipNknjeeT85Lt4bGtZcb4/M773hyY6Nc/vL8Rke+c4rO1P6NvscHfHx8nlZeZ6PSfSPOGe06Jumm5iX25LSfP+Uz4sP1R18pd9Ar5Q7j+Wg+px47+HjGVlvned7oRKbaRYUkdRKvvlI3UT/x78bSprCMD/do8/CPYpJ/iosPf9bIG6iq5Winiko9sVR9WP3EUo80NdALSyblUM4/N/LOd77zoqqWV2OpdAEHT3FJUcmH12IpKnkllotS9UxhSbunsFSBWaIKSo4qOKWnoqnCLjUfehwaSnPFcZr7fe973z4JSB7pcJPlExOKfvVJFxr1ptqapxZvKem18Lw4dZ5+7PmCSvFcV1y8UU8LkU0ibiLaOHyTkAw6dfjkRlSziUW7+vGe6268tWsjzW3y8drVvv6ms1+Fxe5BVniNQjqRpr4QiDq00SM2HOJq48M4/KT5nJeshWI3Vyil5nF7zit/UmOiTP7xXHa+BQ9zu23H5HzE4O1aH6D3jGc8Y19opYpQt+e843O7KV6+mcoHDv/kDnhyN1fmd9tg4uNrd4qfWtsajx5/x04uc8CQPNKIAXyuo8OJ54PzXkCqcNKXiCl/SoY/8Rdt7g/gZLz6c9T953xO3+WKpeN3vjXPNbfj8DxzXrpcs65bMuHK5ZhyK5XjmgPq9px3fK4PX3NPi2NSba4ph1/6jsPxOS9dp56PztcUVNLHRoqPRZ10/G0bzxHxqS90NdYp64cfTCm9rRMx4Cefw3nWtTCkaGnvkU/Jp5ovKnrjJTuRgq1mb/B8cN7xxLlz7am1pXFaY1P7N/rCQVzA57nlsarltcfWnMmYEwyyK/zCpDaU9ZjKEcl8H4Kv2f+UO+zZbgs/E1uon9fFgy/FSwZVncKZ3usd3vQEG7UYb4AKf6T0UXNRa6km40klH/+hHniKSeo35uQJpT7UfvqAWfWhF5ap12APr8LmCksuUBPzS7EUl2wyAOFDhfvrv/7r+1+25IkmVTBAoVyYF5pUy8hUWFJw4iB/YukVt55ipqg7upWfeirKfASPbzKgufn1Km8MfE5fcr594Lr//M//fP8Ht/r7UvpVGPKtg76V0Dh/5C2Z9DXHVJtxFJXMT+JqnkiV4L4AJCtRt1/SU58vQF+YkfeNIm4i0o2FmjYyfauqdqR+cyIuzBN1aMuu+vTPjXzma3dctKkIzxSNeKf0scNNF7vSdb9INkX1xQZUcUhRNlfiKZrSkczzBD9J7rxkLdRvvjXj3J7zjq9mnqjDDYQbBXhi31TbbTsm50tz1PiAdcSaZk+Cpm5obs95x1fCQV/MnVyugdk/OT1sqw9MfNSuoeQmn5IuXzhxcHzve997KCxz+hGD48uNQR5xKF+msMnf6LHWaEM50LEXcViApuKJrsfOec3bSnWY6clz2XIcnmfOSzeV2zHHpCuKL+Qb/JPD6vacd3yas0R1T8vFII5FT4fKUs6AQ/3gS/GS1VD5koO56+t+5RR7ajsfizrp5OjUvTWO01oEY+xTO2JwP/l15XgKCK2ZnI7LhYk16/LIOw7PJ+djLpTa2jNKOvT5/M635jFz+dqK1+dtcsk/3hf56BcwRp2Wduu5iLmx6XYdU8l2yh/EJVXwp+LEeH0J6P3sGbl9CT2PnfN+Dled4H8qSD/3ePLb6ybVSNRPPJH0J5YqKnn1leJRNZqKS+o4nlhSv1HbqajUK7Cq/8BZW1j+27/929mvwqqw1CuxemKJEzQxAcL4U57ylL1xALEZUFj+5V/+5eGHfQCs93f9x314gsmNgGKTKlqFpZ5oInPHyFlLUgJTW1gSPC8sv/71r+8DSmHGPNBY/HlilHjG8foFh0DwSFc28FNMqFRhiQ44Gcccsa0k9OuA11NWt/sXf/EXBxySk0zia6huwiwKX2iRR2/q0OQbAjjUjpuI5FAWM/5gc6LNTcafIrhuimc8m0q8OaMb7f76FffvC703f+SuA7bUnMg4bPBFgvezgYGVPpfn+Ld89O69vd941QMH3/qmFH1Mm4Pin/3Zn+2p2uQcH/pSY5ARH/DBQ2nndJE7DvwkXecly1E26Ve/+tWHsbSVp7kxUe72nHd8cUxNWwdu1nyNvuu4bcfkvPR7faAYse6IbWr9uT3nHZ9wQHtzx2+2OpwwXyqvsS05mPioHSlrmY/k8OwhLlOfqL5R5vBYc4CMGByf5kxR/K/1wrXiA376vVSM0Mf65xp8fZFj5D1zMBdtnxuZPh4759XfSufkuWw5Ds8z56Wrw5PWleznrlfjRDXe/ac+t+e845NuiTI3cUqtKR+H3tQ9zfUdh/CRW/CpHHMZufyqV73qoEebnGG9uV6OdxviOcvFok7FXo7WFpb68jZ3b3WcwiAZfhJfQ9kPau6r+Ip4qYjw2KT4VLzQU+xSYyQjNzxHlSsuk26kPr/zjieOoX2M/Zt4eHzAx6cmTtLhXORnINZ+Tfw0HhrtOibppXzEHssDJO214GDfVjs1Bhn7FbmTOkfhd4rN0hzg03naeclEscPDOM731EGqXbBLraTaiNrJ6yevu1RYUndRWKqghPI7OVyHHhjmikoKSnBCqRH1xDL3tPJQWKLgxeXLX/7y/a/C4kQVltB3vetdeyD+yJQnmbzyqvdzBZy2/33la17zmoueYqYKS/4+M1bccpqonNlLa56Kpl7TJbgEWX8YS6FHUFIfCrwSPvoZR+K4nhLHk0n9KizVhjKP68Y2OsLpelwfNyJhh6fg1NxK7FLSS8cp9nUTdrnzvlhLBwPXA4fa2kRoa9NwqhsG18Z1cdP1/hLPxsKNxjc66cuu2i965737G/HT/+6+yfn1BEP+htbe0HTd//NNZ4UsdiVzv0jmVAc1tzt1aCMPnvjEJx4KT/Jn6gboOPCTMDgvWY7qCw/HOmU3zuX2nHd8cUxNW35kvdbou47bdkzOS7/kA19DzoOJDzLWkwpL14HHnmRu2/EJB1TX7PGYyh23zxzgYj36vM67bTA5Lq0zURWSwsPa5uat/hQFrwpPdPXtckoXmTCo3/E57shjx32jg6OwOnU9zYOMdUYbn4mn7etR8RMFX4qXrJUq5sqn1vHoCxPYPZ7O67qhugfIR37trpfjwcon9rs952tjqvmIpe5pkpWormdq73Icjs/5nB1y2e/f+E55rtwtUWyo3/lY1EknR5X3uf4o516c+5s26UYM+El9kab8o3hxD0/1Rxm+9OIi9qs9J15xP9B5q2Z9ER/pOQ8eyaHCKaq1rHUFTe090oem9u/U2vIx0S9g9P4cr1iCyTG2nouYH5tu1zHl7COPsU+tK2FLFZHszXqzUXaQ/dEf/dFFsfE4wXvsnKdPZ3BR6g1hgKqoVD3kVPVTLCypyf74j/94/89DwuuNU1H/U8f4pFJPKcGpGrFUWFJUZgtLPbnUpF5cwntlS2EZf9gHwCowU1RVdI66s5bkFayNnv1Y0pQfSKYpHe+PC6imzaY7dZgAhxZu3EQkb6Ha1CKtLSyx9fEv37kvLH/k2Q8esLVgaNX9H895aG8PuxrrfpGsxuclHWLhG5n40mETHJqT+KR4ydakOduOb037qbnddg5falyNzN9wUJygqYNLzrbjq7FZ0iFHHIf43IEG28pb8PFRey7NHRL0bXhq/ojB8aX0e2Qp//mBji/nWIPSU2Hpb7aoz2PnvPpPQR1HLueWxEXOpfamnG3HtyQOn0v3NJfBe76AQ23Pe+fVvwT1ex021HY+FnXSWZLyRROf3JzCoGt2P0m2NFUO+bwxdp43+Ez9zku2JPX5nXc8S9lr3b/xl8cHfHzcj8fgo13H1Gq/1ZfKHY2jzR6udoqCT+dm5yXL0alaKFVPUX/x+itPK/nBLBWToqrleFjI26ix1lMNCM5cYcnfVOpzSWEZn1rWFJdsDhSVFJcAFNhIU8WlZCln5GRTjt36zx6J1/ohl8CStyS9xpQoi4ynpXp1V09oaxaiNoi4iUi+BOWGlzsEp+z+wl8/sC/2Xn3lPYtspqlNCBnzc8PFnusQH2+vwXPIrYmPbOOnFC/ZmjRn+xh+yl2X287hy40tyVPrjHXFN5pQ+n18zrbjc/0l+HjT1Zxaq9gWDz4+ai9NKTR5Ysk3+bm5IwbHlxuja2qhxId9UGPwk4pJ+ngdi4KSfuT0S9fjDj61nZfs2BSM4BDWXM6pfy6NvvL5crYdn+vP4XvvabKZwprLtyXk2NM8zntRlyv8WuX8SCFv7GCPL26nXjV0DIwhXsI6h8rXUDCxD8DzpY6vN9dz3vMmFS/XbeVL6xRb6nfe8bTaq9XP7d8aH+MDPj5z4tQzVnaFa03fXHnllYc/X4v7D+dZ3vZi71bMUhR8kjsvmWjtOT5VL6m+gvLKK4Wl12X885H6m0rVcbyR6oWlikooOFOFpQpKqIrKi55Y6n1ZDRb1yd0oPEBS7+f6BTjvFzvFp5w1R1YbpE3vQnFKMpX8oQXQQuNruH5o0sYQKTgki5uI5D0bEmP8VYzU6w6aV3bVhr75O3/3+P/8+UO7G26+8LdPriN8vfTGW+7YMT83XOz5PO4XlzvfEpuUrgrLVJ9k4BCPn1K8ZGvSnG3Ht6b91NxuO4cvNa5Hxo3OC0ufI2fb8bl+iff8KvFTBxNsazz4+KgN9XU0l6ew9Fe843zYixgcn+Oay+sLNT3RJWbI5HPfI1l/kkfqsXM+6h2z7ThyOTcHj/sG//GlV2q+nG3HlxrXI+Mg6a+mkvfMU8oTcKjf89559ZdozOOaNjak53ws6qQzh8bXQGmX5osY8FPUL/mjpo+c0dpTDk2N87zBZ8oT5yVbkvr8zjueufZy1z61fzMu5jEYc/OtJcem23VMc2ym/JrKHemV7r/SgXrsxJfO2am+XC2Uqqv4lzviv1NJYel/qsjDQa/vvO6jFgQnlDrRX4WtLiynnlxikB83oaB81KMetfv0pz+9B6RHqk69qEzxKSfUyHJO3eRn/9RLyg+p5JySkUxTOlP9vqB6+FE3L21Yv/yKs6eW/A2kZEtR/KW/rcRO9J82pSg/dttx+M3P+WNgcnvOO75j4HAbbtsxOe/6a/Fuz3nHt5bt3HrAtvrAxEftU9CIwfFN4VnLd6V5PXbOl8as3ec4PM+cXxsD87s95x3fMXDkbDgO8Cm/nJdsKaoCDRspPhZ10lmb+vUJg2T4SfySNBeXnDzGS3qeW5ItSX1+5x3PkvZq5vI4eHzAx8f7j8FHu6f0Tcl/OiuDL8VLlqKpM73LcnVTqu7yGg3eC0r4WFTmCstcUXl4YomCnliK6omlqBuDj2DUjqDVTl1gSpZz0BpyD8zGX1qUsgDcL6mE75WVFmDs841Cm4h0jrFxYUN2o71PfOWu/dNEbogvfXf+Jii8LfRl77nvMPcnv3r3VljeWf7bYGIk/zrv+aP+Y1DWht9EwKT14rxka1K35/ypfIP/3TaY+MT1dcx2xOD4jpEvslGbB55bzteOX0PPcXieOd9rt8U/bs95xzeFQ/bWoODQvOBL8ZKl6Jx1gT2Ndz4WddKB9hSXPr6WjxjwU2lsyjdryFrjNZVbtf2eu87X5PEafohzRr+AMeqs3cam23VMS9uujVtJz2PnvI/xc3eOL9VEqdoKmeoxUdVtorHOU/0HTtWGemKZKyz//d///eyfG5GCBopqUqfRsABFKuA5mrvwKXnJmVvfPcUfTZJ/coka5SRTlE21fXH08KmNABySx01E8lpaukmV+kp2X/+hs7+BVHFZi6Wk50Ul86d05ZcePy85BhyaDz+leMnWpDnbjm9N+6m53XYOX2rc0rKcbcfXazOVmzUybEsPfHzUPgWNGBzfXDy9vi2N89g5Xxqzdp/jyOXc2hiYP2fb8R0Dh9vwHAKH2p73zqt/Lo33NWxI5nws6qRzTCoMumb3k2RrU4+ZeM8bfCa585ItSX1+5x3PkvbiXFO+9viAj8/UmKX7o13HNGUrXu8x2h47+KkztffrDJ+jufopVYfFmi3Wdl73gVN1YSws/W8r4S8pLFNPLpnMDcBHALQjSG+nLiolyzllaXkuKJv84sKUZJJPPLl7+d5Fq4XIJhE3kamNY6n+Kbsvf+/ZPz/CjZHXV2+6tfx0TbiiTxj3jDefvV7LXK94332Hm1jUlV+i/Nhtx4GfZN95ydakbs95x7em/dTcbtsxOZ8at7TM7Tnv+Ja2GedTzotiWzyY+Kh9ChoxOL4Unnh9x2yzB4NPe7Hzki26kHoUAAAgAElEQVRNa64PHNLzPHNe/WtSt+e841vT/tTcjsPxwadybUmZ23BeRd1ahWTNNQiDdPGT+Dl0Kh5T/aV4TY2d0x9zQ3M5HslOQR0HWB0veObEbGqsrjfadUzSOQXN7b/gU5/zkjnV+XuKlmqkVK3l9Rl8rOlizQfOmsKSojJZWNYWl7kCc6kiM+WMkvO2vgtF4FQS1vaTTLW66PmCqOVrFjw4pBc3EclFpzaj3n7ZLY33J5f84M7fvP8CbuEr0b/9wH2HH+rhBvuGD5fHu19K86qvNiateuDQGPzkvPx2LKprxZ74Vj8xTtcwl47kG12Lx8jxqR8q361JPS7KD9krrbO1+iIGxydcS1L3dw/vsXO+Z66lxjgOzzP59phU1+Q4HJ/6e+mcXACHxoPP+WP4SGsIW+JjUSf5MWnEgJ9S9uWvY9FTxkv5uWQeL+W36BfP5aVsTM2j9SI9xyRZL5Xvl6Tg03zOt5y10Z2qeVI1VCwoa4pKCkpwpgrL1NPKQ2FJp16HdaqJRGMVq3asdtVOXUROlnLCGrKpYGz99x4SlmRqTfaUvhZRC/WNABxqx01E8rVprV3+FlI/6MNNkn9/kieQb73q3t0XvnXP7ubbzn51F0obOf36dyoZw/hPfe2ewzVzbSnf+aaU6j+WzHHgp2PZLdlxHI6vNGaNPrftmNawVTun43B8teNTej3rD9saByY+ap+CRgyOrxVPykdLyzx28Km9d46sB69j8jzrmWupMY7D8S01f8884FBOHSvvUwUatiWPRZ3kx6L4QxjkG/eTZEvTmvh53ng+1YxdSsftOp6l5m+dhzh4fMDHZ+n4TM0X7Y7gG/dl3IPBJ5nzkpVoTX2Sq5tStZdqNVHVdKKq/cAJT32oV2FzReVFhWVtccnkMhqpwKVo6qJqZDknPdzlNQk2V4dkKs1RWgA1fb74Sjw41K9N5FR0apNT/1s+ds/uF1/64OFGqRtmiaL/91dduFZdc466X3I6x5A7DuJyDJtTNhyH45sat3Q/tg9rgRvvPRe/bn6S9ndwcK3H9o3WBxTbap9qPafsCpPjQ7Z0bvh8PXngueV8z1xLjbkIx0L57n4S34TXcFyEr2Ityt7SFBya0/cqyUSVi2tRbGvu0r3p2H3ChJ/Et1L5cAlaGy+31ZSjFbm436u+o9eSx45paT76JbWfHkuma3NMki1Bl4qnx875OH/p7B37SvVQrs6KdVqs51RUQsGph47NhaUqUE0g6gbERxCxHUGn2rkLXlpecvrWd9/hl6JispJMo3y0MRxrk8rZiTc34cpRnjy+5N33737z1Q/uHvtXD+0e/cxv74tNKG3k9KOXmyMlZxMaJTbgOGyKHOJG+dhN+JS+2nyT30eU28PkjH0xcsqcqbWt3KrVP4aeMI0UU2E6xvXX2hgl93VPO3bxWLInTLW+PIaecuikeT3IPc39PUoeC4djG5VXLo2KL4VL9WCqsNTfVoo+AiUVlE41iVMVlZHGojLVThWWJdnSxeUo853nQjYWnj1tLageqo3jcqE9PtjGDPDEr+bb5Ye5zuWyRqeu41TrsWfvnTvmVNf6cLA7lWdL9KtYG5UucY2lOR4OeTTiNZZiUts34nXVYJq758bxNfVDqdaJNVeqVov1HW2vA2NhqWLS6b6wROBFpXifTHzKqMtSQHOyeJFLtEtO3fruP/x6b02CturERVDbrlmgUzq1G9Sx9KbwjtI/FaNRcJ5HHFO+HaH/1H491nrstbOmf0aI/4ah/Oce8s+aedA6d28ut45bogBttTlHv9WPS+srV84DXfraL+f5ThnPljN4qb5J1VapusxrOfGq/USnCsv/+I//OPt3LFVpqqB0qskildESTQGvlaUccd5kpUCfh77U4/BTyVo3rptuu2f3lqvu3z3jzQ/ufu7FD+1/HOd7/+jbOz78UA4y+t78sft2N9569yWvoU7ZO5UfsKuN7pQYom1hOulrQuEVXGGqpTfffm9VzpBX6NbOK73os1O2han0Otox+g7rLMTupHk04OtmuVxRHHP9p5BvmPKvfns8Rsn9nmLuGzfcs3vdh+/f/eEbH9z9zAsf2v3Isx/a31vZM7jH0kZOP3ro99hhzMFPE2+BfPPGe5swoZ+aW/mbox7DY/PCdGy7JXvyYUnnGH2j4Ki51hHjOIWbGpDa0AtL1Y6iFJWXFJa5J5dMFgtLb5eKy9hXW1iupXfeitNevEsUriRabp6Wb1JSulpYNRQcrqcNJEU/+01+ZfXBw02u5nDMjZAxjE3NmZKBKSWvkfm1tPLuC+db51lS33GctCAIxUntNX7uW/d15wxja+24n2rHrKHnOFgfa9hgzqm1gO2DTojdSfPICssDvsShdi2/xXlT+ycy4qg+5yU7BRUOrsHzLF7TMduOw/ljYoi2HMdJc93+prim8HvPZ+/d/X9/2/ajdLoHM47xslNaWy197/3cfbMwMT7Gp9T22JX0evty69btOt9rZ4lxjsP5JeZumcNtO98yx5K6uRgiB5/6nZdsiubO5C7P1Q25uirWabS9xgOnHjh2FZaqPDVJpG4sxacA1shyF3w5yXPBHkXuiQlPMkVZTXtqYaT6S4saHKV++rgR/fk/XnzDe+IVD+1e8b77dx/98r276265d3fX3ffsP/DI6ENHNz4oc9Tc1MDkelP4lup3XzjfOn8qBjnZ1NyOQ4ekqTFr9rdgSOXMK698YPexr3ADuG93z71nH3hk9KVyJnU90Z/4KcpO0XYc5HwK+zFk2D6sIRWWiQLuoLN2X8Dgeb2kP5aKucfR+aXm75nHcTjfM9dSYxyH8y3zLxl/5gKH5mzZrxiz2HoI+V6a9/PfvLSgfNJrHtzxby9f9ZV7d9fdfHZvZQ7us7SR04+e32MpMJmvZK+m7wvfurSgxNZrPnj/7uNfvW93/S337u6+58zPUNrI6U9h+uLV9x9iotikqMeuJYfm6nruOj933tQ11srcF87Xjl9Kz207P2f+uX7NjQef+pyXLNKaM7d0crVEqY5K1WextgOnakEVlqoVRfW0MvnEUkpQTZSi0XCunQK9hKzkqIdrXy6peuUkE2OVtL00LpSatm8I4PB25HlqxKutunk9860P7r54dXmMz4EuYzSeuXh66TqRn8IU9XvaKT9hV3LnJTsFdRw6JJ0Ch2zWYEjlzJeuufALyZorR9GNOcOcOX3k7qeS3tp9joOclz3l/9pUawE74hUztaE1h8sWHZ87xUcM+CmlVyOTT9ekHkfn17Q5NbfjcH5q3Jr9jsP5NW0ydylPwKH+mHeSt9KWtbDXrSwseZWVt3pYrz/0rId2L3n3A/vCscUehSbjGM88zMe8tXNEX7z+Iw9cgonCMeqV2uhHTMzLmFJuHDOHHIfbdd51jsnjJ89j50t+X6PP/eH8Mf1Ra8vxOd97vmZc6Yyfq4dydVis5aj/wKk6sLqwpML0gjLymjBHI5Cpdu6CRpPnAnK5yEvJSB/JVNKZsxBqFyF6vvho+8b00a/cv/+bSW5WFIQ8ifT+Fp6xKlD5O8yPfPliWz4XmLzdwrdce9R1Xzgf9Y7Zdhw6JB3TfrQ1hSHmDE8i4xy1bcZ6zjB3bqz7KadzDLnjYN3IpvOStdKpdYAN6TivmKnvFDRiwE8lHK2+masf91vwSea8ZMeifl2eW867zrF5x+H8sXG4PccR866Uc3P6LiniKgrL577jgcMXrk9/04PNBWW0SYHJPKx9PsyPTst1Pe9fLoxnrtaC0uMAf8Ot912Eifmjjrc9di5fm3e7zq9ttzS/43C+NGaNPrft/Bq2WuZM7cHgk9x5yWpo6VyuvlKdkqu1UrVbTWHpTysPTywljAVlbOcKS5engLXKchf9cJGXEuKYfSS9krSW1iyKlE5pseY2Cp4QUQByg/q91z+4f22x5QaV0uWVGeZiTubGRkoPTJKXsC/d575wfmk7LfM5Dh2SWsYvrVvC8PmrL3wRoZyZa5/XZT1nsJGa0/2U6s/JUuulR6b5HQd5Lrnzki1JWS/Y0LpxXjFT3yloxOB+WtIPzNUTvzgGfJI5L9kpqONw/hRYZNNxOK/+SJeOdWo+cEiuvFPb6ZrrQHbdhheCXlTy+qj31fA+b+SZj/XPh0Iu9ufaXlQyR07PfVjLv/ZDF4roUnHpscvNHXNqibbnrvO9c+ewt8jdF863zLGErtt2fom5e/2bGwc+9TkvWYrWnr/Rm6oRcnVUqk5TbQdO8aknlqohRff/3IgaorGgjG0ZaKEp0KeW5Rx8ucinEmyqn2RK6bQkObqphVKSxc0AHFFGW0+KONSn+ksy3ZByOioUsJHSyWFK6fbKUj7CruTOS3YK6jh0WHEcvdffO04YUuNzOeN4e3nPmdQc7qdU/7FkjoODnew6L1nKh3Nk2NB45xUzrctjUWGBCoNk+El8D5UP16IeR+fXslczr+NwvmbsWjqOw/kl7bXmBzg0Juad5FN07hqR3dQ8vBLK+uTzto/nC7jU2FoZ88qGXkEtjXVMb//EAwf/TfmppZ95hekNHz07V8Q8WSuHop3YdrvOR7212+5Pz2PnXecYvNs+pW9qfO/4nPexrWfs1Dk9ykp1TaoW8/oOnLSpBWNhqbpR9D//8z/P/rkRCZzGYjLVdsNz+NRFXS6yUjBH6IvJ522Syds5vnUR+AKq4X3xaZP6i386e1JJocATI8mXosypIgRbcV4wRVlLu+a6UzruC+dTuseSOQ4dVo5lO2Unh8Fz5t77Lvybrqk5emTM6TkT53A/xb5jth0HhyjZdl6yKdqS8+hiQ2OcV8zUdwoaMeCnKRxT/lm63/da8KntvGRr0dI1eW45Xxqzdp/jcH5tu6X5waHcinkn+RK0VKjJbtThR2z0N5Wlp4JxXE9bTwmxh93cNTsmxuT0euUeK8f0pWsu/WL8VDnkdp137MfmHYfzD1ccqeuO+zB+ksx5yWpo7iyek5dqjVStFes5cKoGnFVYqsjUZDU0ghm1nXLkeZSVkmWJPpIpl6glec3CcJ3UYnQZOLzNq4YcSvlc9dX8zSh1k3nta1+7+9SnPlV1Y2Ju2YmvN4JJ8zu2tXn3hfNz7L7uda/bffrTn77Ixy3zOQ4dVlrGL62bwhBzZmmbms9z5gvhUOJ+kn4v9fWT4kvzOg7yW7rOSzaXao2IYiPFK2bq66HXXHPN7q/+6q8O87fOETHgJ80x1w+58anY1crAJ13nJTsFdRzOnwKLbDoO53MxOYYcHLKjvKOtfFubUgTKbiwIn/Sasy9t+fvF2DfV1hrM6aWu63+++cwedlP9yIQJ3ZxOTi4/t1DHFMd57GJfqa187KWeu863zBfxvetd79rxifLatvvC+drxS+m5beeXml/ztPg6pws+9TkvWYqWztu5vqkaIFfzpOo2cKoG9MJSdaIoTysPTyxh1JGjmrSVpkBejrJckE4tn0quUj/JlOrPJXJOnlooOZkWsFNwePuP3nJ2I/qTtz10kdx1nOeGQ+H02Mc+dn/w5PD5hCc8YXfbbbclb1I+Vr/8iU2XR0zetxaPz7Ar3zkvWQv9zGc+s/vJn/zJ3XOf+9z9B5/cfvvth/mZq+Za3Bc6rNSMW0snhaE1Z+ZgIy8poLDp8ZgbL59rDu84vJh0fs71l8auVVg+5SlP2T3zmc/cfx7/+Mfv3vnOdybXdu7wiTzmjed16Zpq+ubEKzfW4+h8Tv8Ycsfh/DFs52w4Dudz+jl5TZxrdcAh3Zh3kjst5W1vn+z6+Pd9/uzLVH69lR+18b4pvncNYke/Fov9aGcKk/tpKf7G2+4/YLryCxffBz12uVxZQ+6563yPreuuu+6iez/nAGSpuUo+dV84XxqzRp/bdh5bqWs6pQx8su+8ZNDcWbpGnjqzR1muLsnVZuBU7afCMlUrXlJYSpBSdpkmX4LmLuLhKs8Few15TLRUm2RKyV1Wk+hRxxfQFM/GAA5tRrfeeeE1nX+9tu11xmuvvXb3mMc8ZscNUPNNUWxwGOZVHWxL3zFJ1kunfOD92FXbeclaKTeTH/zBH9z9wR/8wWHe1jkchw4rPkevX3rHCYPGt+SM4+7lv3zd2d/pKGc0j/tJslNQx0FuC4PzkkHlxyUoNjSP84pZPFS2tF/60pfuHvWoR1W9kSAMToVBMvwkvoW679bkwae91XnJ1qBT1+O55fzUuDX7HYfza9qcyhdwSCfmneQ1tGV9RF3ZdbmeDP71e9p/t4B5WIOPfOQjq9ag28Ue+0HqqaVjqvHJUjovfe+FJ6meK8fKIbcJ73adj3q17TvuuGP/BXvqC+XaORyH87Xjl9Jz284vNf9S87Ang097s/OS9VI/l+f4Ui2Rq7uo9cCpmi9XWKqGhO5/vMcF8F5I5ngZSVF+MewXf/EXd6985SsPYFJ6p5TlnDiq/KlPfeqOTwqfkuW9733v/mD1+c9/fidZK/WEJJm8XcP3LIqpRQsO6bz1E2c3oF971YUDau2N5E/+5E/2Ty5f9rKXNb3+8cQrzm4w2JYtMIkvUeFeirovnO+dH5/w5BKfvPvd7z74uWU+x6HDSsv4pXUjBs+ZpW3l5iM/OShhWzruJ8lOQR0HGIXBecmmaCn3U33YkNx5xUx9rZQ3EshlvjziiyPeRmidI2LAT6U5pnzT09+yf4JP+s5LdgrqOJx3LD1+mTMGHBrvvGTHpuQUOJRbMe8kn0O9aMvxsqv+q2++8KcfrU8rmYM/MeGtAV6H1RrU3FOUJ4TsB3zAoWt3TOhIvhQtxf6m2y/8kM81tzywSg75upjifT05PzWO/tR1vvzlL9/f87nvc/9P6UzJfD05PzVu6X637fzSdny+Gr+ndMAnufOS1dKa87jr5GqBVE0hmWo0cIrvLiwpLq+44ordIx7xiMPne77ne3Zf/OIXi0WnDPN+PYUlc0h2anrllVcerkXXBUaK4BS2L3zhCzuuWbrQH/qhH9rddNNNSX3mUDBS9H3ve99+Poo+77/77rv3vkoVjRTmslkqLDVfzgb9uaQqyUkm9XuC1vIskOuvv37/ROwP//APD4uptHB84YoHh3i90njF+y/eLOONhoMmTy/YMGNfaxtb3PD8dVjHJGy1dM5TQrcLX/Jl7KOAxCfcUOirxTul55h0WJkaM9VP3MAK5ind2B8x5HImjvM29n3ttz7RfdUHzr6M+F9/f6Fwcz+5rRin2Fa+CI/8EvVq2th1HOS1sDgvWaS8Ks033MICTX0hkVtj2FCf84qZ+iKlUIx2sT3n74OijYgBP0nH/cD1+vVPfePv6455auJUowM+6TkvWSv97Gc/e9H+0DoefcfhfM9c+/m+c/9g/XXP0egnj3WK13ps3RN8Lnyjdsw75Vwt1V7Z8nfyFHqyq6KPX0FlTT75tdN/x0jxqLd/NL6Glq4Ju9gHh/Qck2Q1lH2hZY0qFpEK0xs/duHPGjx2UZ92zFPli/D07t++npyP9tSO+xT22at4UimdEk1dW5S5L5yPejVt+alnXblt592untAqDlB85D7QXu06vNHFOdb15vDg03jnJYtU+7IwcZbWGfzOO+/c/cIv/MIh18F6ww03HPrR0xk+RVU7pKjXReBUO1VYxoeTySeWT3va03a/9Eu/tH/XXU8w3/SmN00Wlnq66YWlZAJ1KkphSSEJthoMFJaPe9zjdjfffHOV/tScFKQUiRR/rqsCVgWkB9iLSeddp8Rji3lvvPHGi4pZjUklmstIJm87r8SeohQxLIjawtIXlTYFcIj/+Zecfav58a9d+AZRfU7ZnLDLTdfl8H5jin2pNra44WFb/Y5Jsloqn2gD9Wue4rErHeclK1H5RIVlSbelz32hw0qtL1J6usHoBpzSKckihtqc8Tlf//rX72/AyIRH8ZJeyUeeM9JrjZfGcbP76Ec/eog78cM33HCk00IdB3mtseJ1fSmKL972trcd1oEOL9CUvstYd9jQ+nNeMVNfpCpolywkow1hEGbPa8mgXD9+gNdhRQc215Nf11x3suExlayVskezZ87ZHxyH861YpO97pWSt1HE43zqP9CMmj3ktDw7pxryT3GnMVbX15x3sBy2FJeNlV3M99e/OCjt+FVWyHOWVV3Kl5c9KcnNJrl9jBYdkwvS6D18oNtUXqfvL16j2jqkvgHy8eOyyTz3tTRf2ydYcYp9eYv92u84rLyN9z3vesy86agvJOL6m7Tic97Hy5RT1deW6PleOd9vOuz7F4dvf/vbD/c7vXdIjVvy96ZKFpOYWdXzOqx+qczUx1L1eMlEVlV5owlNo3nXXXdmzu87xqgNS1GsUeHBK1lVY3nLLLfuC6ktf+tL+131iJapCsUQp3ihMeWJZ0jtmH1hUWMquHJWiFKIUZUsVlthQcej2eCrJtww8HcWm+mIhmhqbSgiXqbBkLpdP8Uo8kkn8FFWyO/3c5z63+6mf+ql9onvyS8cXUonX4mOz+R/PObv53Xh7vrBkw2Bz4JMqLH3TquGxxc0F29IHk/gp6tdGkQAubnIcOL2vhpcv0HV+aiwblHwy5+CYsuM4dFhJ6U35Sf345Td/8zf334jjL8lrqTBIvyZnpAtNYcdnKh5S/VF20x1nBxJsq8/9JFkP1VsAxLRrvH05QV5rDucli9T9BK/CqnadYUNzwOtwqJipHakO0EsWlsIhKgxqEy/xJcp+wx5OsRn95XvRGutOeylYxffQuD/UzhGv13Pc+ahX09Yhj4MS94+aMSkdx+F8SndKJkyt+3fMH3BIFvNO8hrKXvkbv/Eb+71ybmH5sy86+9L2k18vF5bY4Yfw8MGShSV22RPAofUfMdX4JKXjazTVL1mM/6e+cbaPg0N9c3Ood/92u84LV6TsN6wdCpDYt1TbcTjfOv8pzkUqzHxfZh9c+gml+4J9FT9pf3VeMlGePHJ+Zs+RzKmw+hNKePDzZ3G5M/vU+V81iFNw0qZ2ioVlrBFp759Y/td//dehiLz11lt3P/zDP7x71atedZClBsZXZb2IHLWw5Emsisop6k84S7ru/CkeH8ViFUwveMEL9kWv/01qLGxVWKLDN4V89JRTdr2QRF96rktSqWhVPwU3r+TGhCOZkOUSNCVX4vONCZsayc+hIFVYStcXXooHh+T697Xuf+DBvUw3BFEOdxRQH/nIR/Y3vtoDr8an6H33n93wsK1+MImHCl+J6hDOTY4DwbEKS25k+IRvTYmJb6QlvLV9Hh8dkmrHSk++xDccWMDKq1ZzC0vmjzkjmy0Un7UUluQnhyRsy477SbIe2nswkS3HAUbJnZdsiiqn8Y9iWKLYUL/zyhv1QXW4hFJYksMth2efq4aPGOIa9zncLzq0EheXz1l32htLFHzqd16yWqoDzMc+9rH9/vCKV7ziMG/tHNJzHM6r3/1T4nXo8/tHSb/UBw71Oy9ZLSXXdU/r3b9lCxzKp5h3kk9R7ZXc67RX+pqZ4mVXej/y7O98aVv4W0Y9/eMLHorKJQtL/Z0lOHTtwsTfO0rWQ7VGU1/+KCYpevN3viAEh/rn5BBzTO3fWiuRYlcy5yWLlD05nrt0DUtR94XzLfMvsa7ctvMlHNpj/DzEflMqxqOPe9rg0zjnJRNlHwYLZ2nJnFI8er/O48ScsWo7jWf82FYtESk4VQd5YZmqDS8qLL24fP/7378vSp7+9Kcni0uear7oRS869PG3lzxxYxzGedd+tCeWFHAqpKDgowCWsyKNhbMKwqjX0ua1V75NgBI4nobyui1t7OmJKn1q629AhV/Fp34giQJSSaBilMIRmReatEkiFZX0KamYI1VckkzSEfUkLfFeTDrvCyPyuU0AHOrjMJo7APsh1/meG1EcE+06JmGbohxG8AV68snUmNjvdp2Pemr75um8+pegjkOHlZ55KSJ1QHK+da6IIcaudT6+MeR1FG46LWOjXfdTyzxRl9wp3fyifmw7Dl9LzscxuTY35fi0Lq4db2NDbecVM/VFSj4QA9/DOSxGvTntiAE/ab7c9euQ6IcTdH2tOe/zxP2vtQ0+jXFeshqqLwA5iAjnmoVlDSZ0tD9Gvna867lvnEfH4zHFCxN6zk+NS/WDQ/KYd8q5EvX90fk4RkVjisqu+vQF3L335X8kRwU1Y5zXHC00Yk19gStM9EX9mjY+pphkj4prVP4v0SW/IFRO+v4tWQ313HU+NxY7vl/qnpHTl7zkj9jneex81Cu1fS05XxoT+9y281GPtq5T9y72cJe5z8gb75feHAo+jXdeMlF8wV7scQSPnlBSWKqts7j2c8ZIJqozfI6qjkhRcKrWaS4sKS5VYOrJJU7OFZiqVlVI6imn2hRH0ilRAT4WFT79HWmNXQo7ikuK6hr9lA6FLAUcfqFfhSAFJsU5SQJ1PQUZ+154IvfxpbYKTXQoTFWMKsH4QSFsxx8WIpmkk6JK2EhZDPomhT5tFlowNdQ3BHCozWE0dwDWjQ5dLyw1NkXZXLSRlJ5IRbuOKTVvlGFHGzt98knUK7XxG3blP+cli1R2kOvgCBbXizbdJ4456qntvtBhRX21VAd0igXG+GGpdg7pRQwxdtIrUeEhN1gbtEv6qb5o1/2EvsdgiveYxPhNjY39jsPXkvOp65GMAltrhjUneY76ARAbajuvmKlvipInYKgtLnlzQes7N7dj4FrcT35t2luwr79/8X54rTv41LrzeGqNeZz4MoMvWfhzApc7Dz61nZeshgonujqUnLqwxDfuE8dYc01Rx33jfNQrtR1TjG+MfU0bHNJT3qktmstTFUrKfd8rc2NSctlVMehFnGROtYZ4aolc91vXcR6bwqr9QphTeOYWlvIbtGaNun6Ory0sS7lDn693+Cn9VL/nrvMp3SjTHuTrKup4W/pTWB2H53TOn1Heu64cK3zEEfvV9nsX+4rkOYqOijd09Kqp8pn5kMtfkpf20Bqs2ouZjwISGzpLE0P6hQWMOoNjl9q+RykAACAASURBVDGc8SXjN1aoXZDrLUc/z8cHUKo5nIJZNY0Ky1JNd3gVVkWlUwaqwOT1WIoqTQaPTI6ExsJSbY0ZiQo/T1lrcKkYVVEoJ7dSxutpKcUiH+bQ68MUi15kan7XVcBrC0v/O1ESzmMmnifOPDn1hCOZvF3ilcQsApKXZJZMBwPauQVckoNDG5JufnoVVnJtUNxQkOnGglw6KcqNTnJulCn92puL5omUzceLE65VPildd6qvZlPSOBX4bHrItPlxjdJJUW2W9IEz5RO/Ro+PDiveP8UTKzZLt6ODNXRqfOyPGHI5E8fl2ioydVOOeikfPvDg2Wtl2Fa/x06yHqqbh8epZR7HQXHHWK6ptrD06wcDe4jHzvsj78Wk84pZ6sCZk+mgS/7kdJDrcFsqLMEpDMLseS1ZpFpTvr7xhXIF30oHueLksWON6SCiA4X+Nn3NwlL7AzbBJdvCIqwt1HPL+do58Isf5BjXu1fKpuNwXv1TVJjYB6QrTDEfatvgkG7MO8lT1O9ryvm5haXmKb12yn2SuLCWpK/CUu0U/epXv7rjQx84eZ3d5/Ax+uc9al6FTfkmJ9P9xddoTjfK/VVYxb4nhzQW2rt/u13nfe4Sr0LE956cPjrs61N7geNwPjevy0vryvVqeLftfGlszTVq75Yfvv71r+/4MK9+QwS/8uHBDHJ49u/c3u34nHes2ovZZ3SOhjInX2ZyzqbtRaPixRmfB0ic1+kHS3xopLO83nxUwanawik1CDhVi0wVltSQxcJSRSbfQlEMqVCEchEqylR0qT+2awq3Y+v0Fpa6xhq8CoRTFY2f+MQn9j7V68PoqHhUwQhGjVWf2lDpUTjGNonh/UoU5tHrtJLlKMmkBKyh+qdTyI3UhwXBwtBC8YVU4n3x6YdY+HEU3QR08E/ZRFZ7Q2GjST2B6fkhFl2PNqYcNj3xkP4UdV84H8fpJpKzGw9vcbza+ITNTe0UBYdi0XJI0hht8Dms2JduDY0YUjlTM490uGYvdFM+iLKb7zwrLLGtvlK8pFNLdbCt1Xc9x6HCkn7npS8flKgXUiU9+rAhHfEcLhUzP2hO8bWFJfie+9zn7n8QikOm7EcqDJJ7XkuWotp/yGPxuVxOrTsOCXGNcbD4rd/6rezhhD0UfNpLnZesRGv3hziH8iJHPbecz+m7XIepnO90//AxNbzjcL5m7Nz9O5UvyMChvph3kqcoBV7OP8i5f02tG/XLrtr+QzmSQfV3lTm7xIWi0cekeNYeP8qW0/UfymE81y9M9KX8USvTumSN1oxRbnz6m2f7Ijgka80hjXPas3+7Xed93hKvNa8nYDld1iH4nvWsZ61WWM5dVxG7+8P5qBfbFIx6Ahj7aGtPUmHpOqU9Gv/l/Oz44OMeq7ZyRG2oCkkVlt4HrzO4/tSNs76KzNQZHr3nPOc5+7ch/c1G1QSqN8ApfrHCkgKT12H5xCKTAisWkrFdU4QdW4dfvaVKz/36bcTTWojG8WozD3Zf+MIX7v++kjZ9BI0ikz6KeApABRLaWlgyJlVY8sSUV2r1t5tKoBQlmVyeSsyczBOeb1BYJC5z3hdriveFqH864hNfv/AqYepGoY2LQ2WqPyUDY+rGgy0OwdjWODDBp/DWyLRp1Oi6jvvCedfJ8aVNMjdGPsn1I3ccOqy4vnzWQr2QaxmHrjBonOeMZE4da453PDkdl3vOSO5+kqyX9uYP9hyHF5PO53C538TPLSyZJ8ZMc5eonpiUdDjEcpjlx6CgSxeWe39+599aZO9I+W1q3RFLP4SwN/qhxfdK54mj2s5L1kodZ+tY6TsO51N+qZXNyfV9fBZ4ZThi7cWkXMU34ntyX2Oh5Lj+Np12qqhLyWRXffyTGuwB/BMbkpWo1l9Jx/u0FlmDLocHd+qf9hCm13+k7e9h3T/wpcIyxtbb2MUn4JCc2InvpTX5ozUl6uvJefVPUb7Un3q9nuuhiPJP6RrdF86XxpT6avySGu+2nU/pumyqsIzFuPsYf/LlH/umyxlDsQp1uXjwpXjJRB2bZP5na5JBdQ7Xa60UoMgoGp///OcfvoziLC5dCklqAR52Qf3NRs79Xn+AWe1SYamHkZc8seTV1xe/+MX7v7WUEsUXr0p+4AMf2MtVZNJPUaQnmHqalyo+VVidgoKHQg6KfeGjgJMM7Lzay/Wjw48TiafNNcfXgXuvhSKRx9PYpwjXPCo6+WZQT4PpyxWWKkQZFwtJ2no6ClVSwBNLCkwVjSQU/lFblGQS71SJWUNJepKZjy+EFO8L3nnfKPgH59no+QfoXcd5biS1haVuOPg8VVQyl/9j97LjmCRrocfeQMHmB8cSVm2m8klJlz73hQ4rU2PijT+2vZCLfVNtYZBeTc44Xmy/4Q1vOOSXcslfb3T9FP/qD57lKbbV736SrIZyYyAm0qUIITZejKivhjoOLyadz82DX/CP+uF5YlH7BQ42FBfnY8ykI8qTGn9tXU9uXCZdUT0hASOfJQpL9gvioeuHspZTTyKlk1p3vsZS3z4zRk8sU3slMuKoPucla6WOs3Ws9B2H8+rvodora8bK507BobbzkvVQYeoZyxhwKE+ncl96OUpue2EZ9WIRp7bsqv3Gj50VUU9+7YVfZVVfitYWluwN7Fd6FT3iUxu77AngkEyYfvt1F/YN9eWo1qj3a43S1xIz7ILp767q38dL+3dNTkvH15Pz6nfKWn7e8553KHq0tvV0znXF4xcvllRclvzl68n50phSX++6ctvOuy3uXVwfMq4ZnnsX1ykfKFZqK2+8SESffI6+1H1Z9wLNESn4JHNeMlE9nRQ+PY3UWZr2G9/4xkOhSNHJ2V5PK6WvB0l67ZV+zvPMw8MnFZirF5bxbycBS3GpQlN/d4lz+VCU6FVZdFS4UaxpzCmp8AgvlELRMXlhiZx+1/ciVIVgL6UgZG4V4ppHT3pTBayeWKrQpFCMhWVso8M4bPEkVK/MqrjU9RFf/VKtF5AkvbcjX1NYolNbWGpB+WYA7xvF2z91ttH/2qsubPRRn7aKAW5qqf6ULLepYYuby9s+eaGYdUypuaZkOVtT49wuvHwWaWoe3VzYqFL9KVkNTsekw0pqrimZHwR0WIK6vIaPGIgb8ZvKGeHzQ7/WCH5Qfw1VzpCv0nc/SVZDdSMTlt5XAmXLceAXyZ2XLFK+fBEO0fikrhQjbKjfecVMfZGqkJRNfDCVGxx8VXii21NYxuvXviIc0KkvHHzdxXVKW2vM+xhz7MKSgwjXooOM46nlfU9yvnZ8Si/ln5ReTuY4nM/pI49xj21hivLaNjikO5X7cS3Edu9eKbsqGq+99ezNHNZlzT/vEQvLiCu245NV79ffMmIbHOpzTOhIXqI9a1SxcHrLd/6cAUzX3dZ/78/t36X8S/V57jqf0tWe4/sUOZvSlYz7HutfRRS4p/YCz2Pn3Y8tfM+6Ar/7w3ldG1SFn/skfqmHfe+PxaPPR2FKEQl1OQUh8ji3dByf8+p3quJSmDhL69ytwlF9nOP9bynVr0KTcXo1VpQzPXVBfGKpB1Gi4ISn/uh6YunF1saf/UrulB9UGJ6SKgHm0Fg4kkxRFttK8hbqC6fEa0MCh/g77nno8O8SfvWGC5u9+udQvs1kI/FvNbHBjYUfYbn97guvvjqmOTYZW/JB7MOuZM5LNkVbsfrNJjfWfaHDSk73GPKIgbjpB3y+cv2FGK6FxXOGfJUd95Nk0KmYzel3O+IdB7ktufOSzaGpwx82JHdeMVPfXMphm+JTN11Rbvis79T8wqBrdj9J1kOn4sfhgX0HKt1TFJayPYfiM413XrJTUMfhfA+WnvinxoBD8ph3qdxcQya7PveTXnN2v3vpey88NfT+uTxf9KbebsAe+8GTX3thf5AtZPS97H2X9klHvlySYk+YfF6Pncvhe3KqdoznrvO146f0YgGsPbNUkDoO56dsLd3vtp1f2k6cL1d8U1TqyWIc4/icj3pqt5ytoy4YVFhydqeg5KksD5oUX1E9YErVEOCcKiy9Ttq/Cvvf//3fFz29c4WNrysup/x07KIzlRwtMpKQZIqFZK4dE7qmrYUzRcHhG7hebXzW2y8cir2/lqdo0qsRjGGTYBP18djg5uKvNNIfMfmYyE9dX0s/dqXvvGQ91PHiE771kizlE/WJui90WFHfKWgKw1I5U3M9qZwhLkvFqyfGPsbjRW7rmpyXbCmqAyA2Urxipr6lqZ5Y8jQjzq1rFAa13U+StVD3ufMUkKwxybTG1IbybTNPLF3P++E9n+Br9twWnWivph0x1YxZW2ctTC25EHXBJFnMO8lFY74u1ZZdn+/9Xzx7avlDz3poV/uE0MdHnr9t1t8184UOvwrLWnQ97GCPvQH73gefwyT/rEF5WvnDzz6793/gSxe+HMSW59Pauevzu13nXWdJPlc0uQ3H4bzrHIN3284vbfuqq67a783Myz6uX1zljT99Mag3P1qfWLbszbW6FJV6FZZXXh/3uMdd8naiP7HM1Qj4VDVM7oml10CHwpLiciswlyki3cElXoFam+aSZUpOMuUKyZy8NuFdb2rx+0bBxv6l685uQtyIPvmNizf9lptMfGWGpwbINId+gAU72JQcCiZvOz91PXP63RfOz5nTx8ZXaPQqiF9f5N0XOqxEnWO2Uxg8Z/yHn5bGRT6SL8oZ9+0a8fL5a3nHAU6Ng1/aH3E+bOjg6Lxipr6lqReWEZPawqC257VkU1S+LNHUGuMw4mO8sPS90nnwqe28ZMegjhn+/2/vXHquW4767s8TCfgSQD4BMMuEyzASF2USgSFRBmYUCV9gwsUMooADUZQIKRE3I0XYgoibnUhOhCDcE2NzsZ2J9Ua/5/B7z//U6VrXXnvv9z17sFTV1dVV/9VdXatrr/3sJ2Mr+ap3y3biSH4mhrW4qP3gUFbjTvmIztwX+q02fUP4L37h3b1adba261fnR79jgB9ywehtJX6Yh8Q0mpfZssRU4+SqGKp+ajv9Jl/1ZrWfheW7z0bnlGLRN3xQi0c+AMxvyCz9EitrZ25OXtlMyjkdLGLmbyrr2X1GYVnrnPcVls8C87bFZV0Q21cWm2sFpf0EPXwNxC3tI5vDzVvpKIn+61/62svD6OWXWr8y/0DM/yH010TxVR9cYEpZxXxVO+ci+av8pd283+RzLjysZP+t+Q5DxgzrexZXzg3833/lnV8O5pCEr9p/6/Wq/m0nDrAqT17Z2Tmq4/GhLHnXbOuBda+ePpeoGNTJuFZWqfM0g+7NmeBzTPLK7kETR/IjLDPmbIsNcKiXvLIraY0X2+CQr3GnfCvduxfU169t6ef/6N0/Nzn7a6za7Ki/usqfKuC3u+eKqdObIU9M//2P382PxsktYyj3DX5tJ69sC/UeZtGci+Rn2d9qJ30nvzZ+y5zN1gGfNpNXNotuOaenjuf+EQWnNcnojaV1i7QtLB+xwBTTbOpkPDJ1UWfTURApI5jkoRmEW/gjG2SUCMAxklv4/fOfe/ewOuPBgg1scvDFR9oUR4fJ/qto+k3+Kn9Ldp0XcMh7WLF9D7qE4WjMLM2DfRkzypLee73EkjiymExeXemsdcxiMvnRmnWH0TX5UawVQ8Z1tem8nKVHcqRjwDfild2DzsB0dk7r+Iz35Kvele0aP+BQVuNO+RG6tjeyX78pk/fXWNmj//G35v69pfeFXexz5a+u2l8pOuoztvafbbP+/+m33/WBv1FMXBVDa/sVv+okr+woHd3jVlnORfJbx8/SS9/Ja//o3FwxDnzaTV7ZWbrlbF518pw/4sFp7TGlsMwi7urCK309An/1/R6x7+LOpKNAQkYw1b4akGvtI5vEZCAFh3xSvt7IP6DnYcOhnjdG2X/kQYMNCwRs4yNtyneY7L+Kpt/kr/K3xS44nGsPK7bvQZcw1JhZenO55d7RqTHzucGn3Og90np5b+ydEa+s0rPriT9tJL+0ZupfTSuGjGt91/k42j6SF+sY8ClLXtk9aOJI/h5Y9CkO1gr+6JrNGGccgUO+xp3yM9QCcYnqt9P52H9+t8g6+uayuwffCpID8NPpVXnFVPu3tkdr+W//67v3+/H/8v5vnDhmVgwZn1upcYx+8lvHz9BzDqQ5F8nbfyXN+8n5SD51HoVPfMnPwLd2Hh/11zN+bVNrgNOaoxaWozpm9Y3lWoE3MpqytfFvQ3/e7y15F3oGrcFEm2AayZGNArSTHd0wJiVwyFf62S989XVxydso/sat6mxtM9Y3WhSV2O7GLmHqxmyRr80VftVJfovtq3RyLjysbH3AX6G3hmEUM+LYO0ePEDN7Med67S0s8eVcHaFZTCa/tmZHfO0dUzEwT9rYO8cjffftLJr7P/lZ9o/YSRzJH7E1a0ziSH7J/mj9ZsrAYWzVuFM+m9YCUr9Vnu0s5Pi7w6Uf9NmClx/F8e8X9xaV2q+YsGlfR5fWjvH/8hff+dMaMC0Vldhh7ZbsdX1L8balL2M3+S1jr9JJHMlf5a+zm76T7/TvKU98yZ/B1J291+Td+T7ldyks34bC8Ip7eBsKTII+A6zya0Fb+49uHHB0yRo5b4gsCHkw8Kuc/MuHpTHZh66/5Ml4bHVvKh23hkm9Nbp3TjIRJV/trPmd2Z9z4WFF+92D/kq5GJZ8sL6zY6Z7U+lc5DwpuwdNHMS7GOBvcbku+JLfsmbqXkUrhpwn5+gIrXtzVht82kpe2T1o4kj+Hlj0mTiSt38LPbLuS2PAQT+xXOPuqviudrf65Suh/rsmfr2Vf8NBgVntLbUp3hjnr79ib8vXXzubiYlfb8V2LTCX5p8+Mfnrr2D61Gf6N5Xac+1sd3RLXO3RydhNfo+N2bqJI/nZftbspe/k18bdoz/xJb8HSz1bH23XM31t+9IKnPI3eWN5RVH2ttq8RbHp4p+hBhfBJN/RvQG9Z/OoC44ueafcH2fxcPxPP/m1V5/89DtvMf/8i+98ZZGvLcLzpok+dNSHjn50JX3Ib8WkvtR7Okrx69jklXVU/1fQnAsPKyM/3SFhtlwMa3bB+Igx063hEfloHXK9iPmRzl7Z2lyP+vGtfOuaqX8FTQzcf87T3vlA/8h67RmT+z/5PTZm6yaO5Gf72WMvcSS/x4a6R+JgNAYcyjPurojrzuYev/x4jr/M6vPyn/2br77iK62//T+/8lKk+WcFUIo25PSj5xgodvhRnA7XVjk2Rpj4Sut/+1/vFI7+eczLc///fuVFTv8I0//43+tFJWuWa+caQo2Rq2jGbvJX+dtiN3Ekv2XsTJ30nfxMH7NsJb7kl+zvPWev6Xfn+ZRnDQFO28/C8h/+hcojF6pXFZsGwVFKgBFMGWgdvxbEtX9pA436cvNlIh/xvDXifxb6CWs+0DoeXcasvXFKf2DKdseP7ueMLOci+b02O7xH5DkXHlYegW69F95eHomZf/Xvv7Y7Zvau02x95iTXiz2xdZ626m09GOJb3UeIFzF4nzlPyrbS2es2spf7X77m2rX2yO4ZmTiwkfwZm2fHJo7kz9jdGgedHjjsM+7uRd2DWyj/07EWc91ztcoZV/8n5BafSzrM4VlMn/7cvhzo2p2JnyNjM3aTP2Jr1pjEkfws+1vtpO/kt46/pV7iSz4xrOXtM/3dOb7Ks3YAp+0sLLv65fTfWD5y0famYesW6YzcYDhCCaZHuXLTwftQ7uj//fJXX/2H33qnYOQrj/zNJAUkFzwyigl00O3sdPJ7zotzcU8M1bfzdK/D0civmLbS//Olr6zGDMXknphxraB1zu7Zdk7q4e/WbQ+No/W7l8y5uef6bPXtAWOr/i30jPlb+Nrq4xExGWf3inP9ugf30D/6y6+8fJX1w5/66qt/8omvvvrHH3n3X5TwjKWNnH6+tor+HvudrnM2on/8V+/4+uF/97VFTPTzlVf0R3Y62SPE0CNgqHvuUTA9Co46P6P2m4RV/NYQb21h+fWvf/3V7OtRitAzReTSWINiL62fYiy1PeTsoW6wo7R7CNxSfhT7I4675bxVX91hYk1e7TxC+xHXNjHdao7W1u7e/TPnIef3Sn5Pfj2qeyX+t9H2zDga2br3PrmH/9E83Fr2Nsbq856+Nv1ry0fz7C3HLZ3da99SnfBWFZazC8kle49QZC4ViUf7loJlqa8G3VL7yEY5m+hu/bDB31nMjzz+HvP5tvh85HWt2G415/c4lK75nHnvdV6vaB/Jq1eOueIe3wabM+Oq2lqL6Te9v97vPdtvQyw+72F+AcmcXplXr7S9dG7PvqVagD4Ly6U65KG/CrtU/N2y716F5tLCHe1bC5rs96syj0BNkvfG8gg4HgFDXQcPAVV+z/ajYHrE9XoUTB6G7xkn1bdx41eAHpl6EKn3cM/2o8RWzsEjYjLOEuc9+Efeg/eYj87nI8TQI2Co8/MomMTxyPlabOZt228CtTZ4IwvLWxaMZ33dquA8WkR24wyQNUoCSZ38VGOJd9PspSaGSsGhrCa1W7cTh/wtaZ2LK3178FmjYFIneWX3oIkD/p6XawQG+XvSxHHPecF3Hmrlr6BbYxBM6vKwl0961drtzZfgcwy45e9BnRNwjHhl96D3wpQxU/mMM/h7Xu43MMhfQescdO06N53ebPlSbILJ/nuuVWKQvyet83IvLImDvAiOe+TBLT4zbye/ZewRnaWzeu3L837y4LT9xhSWZwu8Rxl/ZaHZFYlH5QbJEmWzZn8NwqX2kQ3AmFFiyqQBn+2R/hWy6vceGLiv9Jv8FfeMzS0Pb3Col7yye9DEAZ/tGXi2zLd+1aUtf0+aOBLjjHlZs+GBVb/Zlp9F17CM+sGlnIepPPSKNTuaJxmXhxJwn7E1a2zikL9i3vbYBIf6ySu7mmYMyYMj+Wwr30qP7hd8cjk+eWVn6Fb8VS/nIvmqd6R9dK3B4Vj4bCu/klaft/bf3VviSL7Tv0JO7sK3OSzzorJHookv+SswLp3RR3153k8enLYfurB8lGLwShxXFJpHC8nROAOlo2xW++BvfZmE8Jt8tpVfTb13/SQG+66knd+UX+l/ZNsHO30dPxp3pWwJh31nqPO9hXqf6tJO3v5b0fSdfOJCfmZ+to71nj240k7e/ltRceNPnoepvPM1i844ROShBNzavNWcpZ/03fGpfwvetcJXx98CR/ownpAln23lR6h7aAsVl7q0k7f/VtT7xV/H3wqLfpbixr5b0C141LkF9Z7x1fG3wDHKNZkX7X8kmviSn41xVDguyTzrjyg4lT9kYXllIfeIth+5uDRQOkpisE9+KTBr39GNQqJaS1gms1tRk6T+Onz2z6Sdr04+07e2fNBL8b2HV/dKuoQp+45gcB72UHxyOabj7b+Sdr4rRjEcmaM9Y/SbB9kRr2wr3YNBXbCMeB6myJ2TWfRoXqzj8lDCPdifvLIrafrbwoNl1lx2dsBh3xZe3SspOEZxhjz71DlL1/aMftWjPeKVjehZjI7P+9/CO26Jnl1LcGij8tlW50qKv/TZ8Vdi0Hbnu5M77ghdylv4sz/5zIv2PxJNfMnPxFjP4lvanvVHFJzKNxeWFGRXFEBp8xGLvlthynmYxY/eQB6RGSwjymZVnvyWIFXnyGYhAeHPRFT5bKtzNcVn+u34K3B0vjr5FRiwmQ9xfNvewqt7JV3CkX17MJyZS3xyaaPj7b+Sdr4rxsSwZ5726urXcbRHvLIraeebh2nOxwz+SD7sxuShhHtQL3llV9L0t4XvsMyYX22AYw+v7pVUTMQyvDENn23lM+moKNSvfbRHvDLpTFzayvvfwjtuRGetITi0Vflsq3MlxV/67PgrMWi7893JHSft9v9eOf4ck3zmRfsfiSa+5Gdh9Oy9l3rWH1FwKn+IwvJWxduj+5lVUKadI4VkHWOwjCibVXnyewL26GbBn4mo8tlW52qKz/Tb8Vfg6Hx18iswpE0e5vj2ob6FV/dKuoQj+7ZgyPs9yuOTy/Edb/+VtPNdMVYMW+bqiI5+HUt7xCu7kna+eZjW+TjTPpoLu3F5KOEe1Ete2ZU0/W3hr8BS1wUcyrbw6l5JKw5jGjmX7aupBaJ+sz3ikV2NKe9/Cz/CM3vtwKHNymdbnSuoewV/XNke8cqupFtwpM5VWNJH8pkXr/J9xm7iS/6MTcfuOZunruf8joLTvl2FJYVZFi1n+Ucv9O6B7+ycjsbXQnFv22AZUTar8uSRZVCu8Qb9Hoo/E3Xls63O1RSf6bfjr8DR+erkV2CoNvHtw30Lr+6VdAlH9i1hqPd5po1PLm10vP1X0s53xTjCsDRfR/v063jaI17ZlXTkm3ngYTqajyOyPblvq24eSrgHxyWv7Eqa/rbwV2LBNusDDtdpC6/ulbTiMKaRc9m+Fa1+E0Pyt8CT/rbwiemqNQOHtiufbXVm09wn+ONS1vH2X0k73538Kiydv8yLV/k+YzfxJX/GJmPXzuFL/Z7zOwpO+3YXljOKy3sUbG+Sz1FxeFa2t5is+gZMpWxcZckjWwpS+n71V3/15YJ3wyizvUTxZ6KufLbVWaJ/8id/8upjH/vYa3vojmRLNvCZfjt+yYZ9X/rSl1599KMffQVVtkQ7X518yZZ9f/qnf3pqTqpvH/TIR7yyJeqapM5Ilv3Jd76RZ1+OkXdeRlQMo74lmX7VoT3ilS3RX/mVX3nFlTojWfYn3/muGHNM8s4T9K//+q9f4heq/Itf/OKLDKpsiepXHdojXtkS/bmf+7lXv/M7v/N6PLojWWej+va+eZjKn6FLee5MXx5KuAdtJa9sif78z//8q9/7vd97PR7dkayzkf628J2dlI/8j2Q5JvmKw/VDPuKVLdHRfhvJOhsj38Qkcq4uPkdyc1L2IeO5krIlvvpNDMkv2bBvtN9GMvUrTX9beMZ386wc/7/7u7/7Hr2RTP1KwaGs8tlWZys1jpf0M5bh8celvOPtX6KcOzgPxV+/dwAAIABJREFUQdUbyeyrtPPdyev4rs2Z5OMf//hrTJ2e8s5f5kV1H4kmvuTPYFw7j6/1e87vKDjtWyssqWc+hFItzI4UOtXGs/31982rc3JkftfG1GJxT9uAqZSNqyx5ZaNg/bM/+7NX3/7t3/6SuEhe8J/73OfeJ0NvaSPhz8Rb+Wyr09Ef+qEfevWRj3zk5fqu7/qul8P5SNaNV47P9Nvx6nf0p37qp1597/d+78sBAEq701Xe+erkjuso9/+jP/qjL9fRORn55mGP3END8so6+oM/+IOv1+k7v/M7X/3yL//yq5GsG488/VU+2yMbS3NV46fTrXJ8cinvePtHlIftt33bt73EC4dG+N///d9/nwy90Xhlne+KUf0RZd5q/P7kT/7kK66MadqjOU6ZfpXRHvHKRpRikvn4sR/7sZf5IW4+85nPvGdukK0Vu/rmnuG9dx6m8kfpUo4725eHEnBrL3llI0oxmbmaXPDZz372fbI8gI7spL8t/MiGMjCxpjw7uMRUZUcw1fUF65Z1vdUeHMX4SDbKiyPZaGzKuH8uZR1v/4i6B8lNXGf3ID46HMrX1oxikngREzFU8wIyPhhbsoU/+yufbXXWqLGduIjjOs69kBR/XMo63v6Okr+/7/u+72VvQWmPZN145J3vTr5ky77RmcS+jnb+Mi92Y+8pT3zJH8E0OoMfkXmm7yg47TtcWFIArRUytd+i6Un7gjLnps7f2faeQrLqGjCVsnGVJa+sC+Avf/nLLwcCkjc8eilbOxSwwUwaJF14ky98tpUvURLnN37jN77n08uRbMlG9ZsYkl+yYR+fcn/oQx963xso+ytN+1v4On7UHt3/SDYai2wJhwcQdOS3UAqSb/iGb3jP26eRrLOV/iqf7Tq+u0fle+bFMc4RfpV1vP0d5QDEXsrD0EjWjUfe+UaefUs26GPuKPqJX6hzOZLZN6L6tY/2iFfWUd7SfPM3f/PLhxDqIPuWb/mW98jsG9G8/+R5mK7Nx1L/kYPCnjF5KAG3Y5NX1lE+4GOuONipM5LZN6Lpbws/spEyCrmKaSTLMZVfwuGaoSO/RnlmXb0HR7HZyUZ5cSTrxiPn/rnU6Xj7OzrabyNZNx5551s56wO/tk7265+4XpLZN6Lpr/LZHo3tZBnHnU6NZdr447Kv4+1fonn+UG8ks6/Szncnr+O7ts/Z+u2JTr/zl3mxG3tPeeJLfg+m7ux9RO55fomCk35qh4csLH/kR37kFVcWWR9E/mwhyXjeBPIAhtZi0fbf/u3fvvru7/7uVz/zMz/T6qA7Cio2rvLklXVB/NM//dOvvwoLj16VrW0ikwbJF94kDJ9t5R3l00vezpHQechwIEfGWygePsq68cqr38SQvPodFUfSTld52t/CO66jM+ZkDUc9LCwdKugbrclItmQHTPZXPtvqQLs5Uj7CYN8axSeXeh1vf0d54PqVO3j0RrJuPPLOd8W4ZIM+90zS5HlzQjvneMTr1z7aI15ZR9nHvDXhUG2hO5J145fmhofp2nx0/Wv5bUZ/HkqYP20mr6yj5EYOcsQTf6qA3kjWjUee/rbwS7aqf+K+ky3ZWcLhmqEjv0ZH+20kW7KT/ipPu4vRKifefX6x33gjP5LVcbWNz/Tb8XVcbY/2GzJyZ+7LOi7bI9/MJXLnNHllHdW/a4TeSNaNR57+Kp/tJRu1L/cWsV37aY/iGn9c9nW8/R3NcwdnH9ojWTceeee7ky/Zso8clOe0PS8fKqbMi9p/JJr4kt+CsTtzn5F7nl+i4KT/VGH5yU9+8tX3fM/3vPq7v/u7128uP//5z7/6pm/6pvfJLZC2FodbCkt98am418/+7M+eKkYZry3oqLhFtqYzus+/+qu/evUd3/Edr8A96h/Jqi/81jl3bjt678Lywx/+8Ov54o0gX9HrAnzLpkmdmqRMwMi5bEt5iIHB9ctPKtU5Q6vfxCBPgqbQF0PS+sZ0DxbtM2aNvwpDxbuGQ6weHnzDlnMCbzGg3hkKJsdXPtvqgJG44S1p4mINKY7qPe9t45PLcR1fYxcsYGAtHXuWdr4rRv1UTO4n5+4s1a92aI94ZRygXaP6VludvdR77eaGh6k6Sevc1PUij3GgFS+U+cv8NoPPQwn3oM2Xuf2HN2yJIXmLSMecodW3tjq5/cyJmMiPW99UOH6Jdr6Vs57w0LpWYoIa97n+R3n9pW95+0YxDAZz0qj/qAyfXI7veIrWzJHsRcfMovp2Ppxj5JV/pPUS24iC07ge9XeyUVwzD1z2dTz9vn00jsHhuBm0893J0yd7vJ7Tsn8P3/nLvFjt5ZnV+eGlR+qljuuX/Wf5xJd82gUTOJTVc7V/clbP3H4z0HuD+nKn2qC9VExmHzinF5YUTt/6rd/6Uox1Rc6oeBrJ1grLT3/60y8FbBZp8L/4i7+4uWgb+WX83//937/YyPtRt/pQZ6mgZQzFNosHTczardQxzEPOJUU8sr/8y798jzx1Kn+vwvJv/uZvXt6CEvijYB3J3CBbaU0aJmHkXLahJFISAAe+lM/kq9/EkPzIJweDMweUtL+FvwJDtbkFBzoePCwsZxaS2pamv8pnG33vh5jh73FmFJLalOKTK9sjXgwzC0n9SJdwZB/6a/vJ+T5DnRtt0B7xvI3h77ZmH2adF2jef/I8TFNPfmm9zG/8QIefuvthDznA/hk0DyXg1mbyyqQcMvhKp9iUn6HpbxP/D0Xv7PnIe9iEI/amaytljfmKNVTZWQombVQ+2+4DKP4p6u5VWFpUmrfJk2DhTWTiPMMzJ3n/W3jnUXrP9RJDUve8hUn2rfEZx/LMCVe2R7y52w9pLOSQq3+WbsGROvqr2JQfpekj+cyL1TZn1lpIpg795EcKNOToEu9rvwmSNtb4xJc84/BvUTg6X1NIWphDa2HpD2R6BlcfubKkWTwu8eCcWlhS8PAmrRZCtcipBVTXXiss6V8q5jq7e+X44L4sNkfjl3QYx3h0KBYJvrXC0mKV4hl/dQ73tmcWlqOvw7JZDbbk+VotQU9fBukSv7bZan8mCniTMXy2SeAUBjMPAPpKWv0mhuRzDPyMB17a38JfgaHa3IJDHQ4dHkg8oJw5iHRj8Wdf5W3X++Bh56Gt9p1t45NLOx0vhkcoLFmntf3kHJ+hzo02aI94DrBXFpWsTbcuPExdu6TdetUclm3eGswu6PJQwj3oL3llUP92cubbSuymvy08c3FlUbkHU65r8uDjStlZnrnRRuWzjQ57wQ/jwGGOco/MoPjk0taIZ+/V/UcOP4vHeZDm/W/hHSe993qJQwoefhyHDyco7pRvobln5ZkTrmxX3r8Drm8oZ+eeNRzgSh3aPNv4oTALXrGfoekj+cyLad/56QpLsLlejvMNYDdGvT008SVPXmZfkac5X9fCMrFQMIK1FpajM/jIFnqe7bdQcPrndYf/xjK/Ckuh131Fkz6ra6gFE0WTxdYv/MIvvLzN440nhdWWwnKp4LOg+/Ef//EXXPj9jd/4jd1vM5eKRovMLTp5r2uFpfNqMbtWSDKfOb91HUaFJTI/0WDsJz7xiZe3i/g2MDpaA4zNqkz+z//8z1/eXv/ar/3aQxSWmTS3JO2jOtw/l+M73n7pjAde56uT61s6A4O2pJ3vTp4FiweZ2RTf2qx84vIeoBQJHPg5xKV8Bo/P9NvxYuDBN8PvyEbnu2J0Py3Nh3N8hupXG7QrT8zw8Jz5YcSeueFhOtIfrdfawcJ5nfmmMA8lzJ8YklcG5XA0u7jFbvpb432Twxwmttn8Go7EXdc4D5i170wbTI6vfLbVIWbI3TMKOfdWUnxyKRvx+K9vJ4/mcu9rRPP+t/BpY8aHt2lPfglH9qkvNT/wS7QWKvZtoaO9gD8u+0a8hVPdW8QzHxay9xx/ho58Y6+T03dF/uv8ZV7M+3R+ug/WmCeK3/p2krxJcZa2zvCJL3lsWhh2xaD9ZwtLz/VbKTitG04Xlj/wAz/QFpUUURSNFkf1K6z0+zeZFlIUYWuFpW/1LEQt8qQWllu/euq4pGJbKkj1Q3GZY0c89vikATrqR6Y9Cjx1nLsRRc97tP+Hf/iHX4o6vy5bC0uLyl//9V9/HQSMocCcVVgS0Gw+CsssYNl8Bv2I7t2Io6RBUkbOZYLmwecD2CKctZj99qf6TQzJiws664GX9rfwV2BIm/BbcKQOc5F/p8NazSwYOBzhrx6SxJpY8l6IHeMG6ifxqXOUx2f67fgRhivi1/uoOLLd7ScOk453js9QfHJpY8TzNTwORMRJxk496GpjjYq/0rz/5HmYVl3a3Xp1OY4DC7myO9B049bkeSgBt/rJK7vqbSX2098a7+GNw28+P5hTsc6gazgq7lxn9gBXymbwYNJO5bONDvNjLrp3Yclc5N4yl2/N397zEs3738KnrUdYL/EQ3xaTydu/hY7inznhsm/EWzjVveReA4/jz9CRb+x1cvpYI3BBfd56TjuKpfOXeTFtmwP1D803kbleOY4iL78em31H+MQnX8/MswpLXgQxz5zX08fWglI9cE4pLJ18CkYLmyVqQehbS4s32xZTa4Vl6oGhFpgWaNhRdwsV38jmaDz2q++RHrI9hWXOB/OJH+faQpLCEd917qu8FpYUkVwGANRfhZ1VWBKg4OWXZvlbS4KVYpNDQg3eDGT4bhOOEuIoaZCUkXO98PEDFSRPkzbJ68xbKBJgHZ9+xaE/8diWmkhtL1F0jQNo3k/a38Knnz0Ycpx8PghYYw4V9G3BkTra84DCoYT73Ho4cZxfD3OuuD/78Je8PpGPsNiflPv1QJfyjsd/jRV1q9/EkLz6UjHsLS6JGefFh7Y201/lbefcZvyN9pPzvIWODsb45HL8iDdG8n9R1r/5cvwadR4okJmbvD/vH53keZg6rqPktFwvcxxrhx/Ww7WwD5r7nfghByLnQOEaSrM/bXgoQQZu+5JXRlHb2VFniXLoykKQe1Y//a3xxmhi0TZ92txDnescv4YD+6lDmzXGFh9mgKlb8yW5WHLtfPuPP8dWPtv1A0nuixgidtfiPPuNdbHUXItPLseMePegYzNHKHN8pd4r1GJULFLujf68/y28tl0vn0vKt1LG1bh27BKO7FPftfeeslBRZ0S7XJB7AH9cyjoeW9wPvtEVU8q0sUQTk2tlHut8t/JyTtOvzxVzn/IRBU/mDHQ6f5kXR7aUmXcsLv2qKX78G0vyJvefMsczTrljnSttqps08cHXczLtGYUlmDinc8HrxzM8WPFj8ehvpyAnXv7gD/7gdR84rStOv7Hka5QWO6Oi0uLRyYRaOHXF1tbC0iLOwku7FpZb3iRqo1KLzNFXbpf6qh3b3b3aDxV398YybcDzK7O+mcy5p3DEBrIsLP1b2HxbeVVhSdBRTBKQBisBWgPYPmluruTdvCQP5V3SQM5FgrYgJUFlwvZhYYLPvjXeREzC8EDw4iv82taWeGxDtbMVA/fQ6ab9Lbw49mJwnJT75x/fjx7aW3CkjjahHkB8WOBH2RrlsMQDAT34/HvA9Ff5bCeWyntwAlvtq23nt8aKevhMvx2vvtS43oLBMVC+esVYeMbmvuh8J0bvPcdhi/XnjWHG59o62Y9NCsN6MNaverQrz8EVvxST9kHBh80tcZPz47zwnMp76eaGh2kdn+3XueofDk7MubKkGSceovLtJbmzO4jQl7ppNw8o3IN9ySMznjofjluiYGDeRzrpb41n3keHXGyzj5yfkZ9Oxry7puqs4UAvdRyHLXHkWm/l2SvkTGKzjsGfssrbthjM+IR3/zA+98IS/4UvfOEVFzrgIldi3zH45Mr2iLe4ZI7Zj7TNu+pDvbcttM6T98/YLbw+XK/RfKuzRJnbmu/UX8KRfei7x8Dj+K2FpWtNDIIFG8ajFH9c2R7xyBjPWnERN9hnvchDjtlLsSmuLTjeo9P8WJeFXZffxOibRvel8vf4iLnJvKhuR/HNHPn111ogmpuhaSMxMYY2Z2J04PlWH23PvknBZzt5ZVD8caUseWwv/Y0l/eTZaoM3mGKzkKTQ5CyPLr+fAo/Ml0e0wTmtsKRYoYgZFZcUfCm3ILMAzEIpC6y9hSVj828dLdDOFJbYHOFDxj3ttT2ylfcsX+89C8a0Af+ohSUBy0aEZmHJoeVIYUlCJqD5H0YmLjZnlzSQc5m8ScT1weBBzoSt7hYKho9+9KPvOxxUv4kheX3gm3kCi7Il6v+3Gumk/S28NvZicJyUhzVzy2FEmXQLjtRxXFLmuivKUm+JB5/rnP4qn+0le9wzmMC2pEdfFyuOw2f67Xj1paNDin1b6Z6DW+Ia7afRYRcceajseA6h/P84CsG9h1oKSh6etbDkq7BrheVonvDP/XHwN2bQy/tPnofpyA6yPGTkeqU8+Txkphyeww05sMoZww+AcHCpfbTBpxzcIx7Zkm/HrFEwEu8jvc73SN5hMRcwlyMfnYz8ypoyT6ypeiPf9HXyl774gKBb9zU5+45cPtLDt/LK22YeLApGlH5sdPutk5PX/JBQHXxyZXvEK5Nmker97KWZtxnr/W/l0duTqzt8xIxzWnWWMGUf47AzWi9l3G+1b9uYhWIH3ZS9xOaOwrKOxWYtyqrOUps9xnioWNRnHtZ4+rmnel/Y44y0VliyPh/72Mde9njmh8535kWxdbQWliM9crMfylnc0RZTvg20nzHYtp0UfLaTVwZlPFfKkl8qLPFL3I2+Qcg4ciVFJed3CkkuCk7O71Dk9H//93//67eW4JxaWFL8UBD5tVDaWURaHKWsK9yQ1+LKomuJUqzq/6rC0qJy6e8uO4xZFHY6yKuecwfNvvqVV/WqfPTGsn4V9i/+4i9e5m7WV2EJPNbCTzkM9rWNoF7duGxQLpIHl/1d0kDOZVJmjElTGQ8+DqRQZVso+jx8efNTP3WufhND8voxkdpeoh5Mu4dQ2t/C62sPBscktaAQF3Nt/xYcqeO4pDPwsfbgxG76q3y2E0PlfdjxMK592V6KFfXwmX47Xn3pVgzqj6j7yb7Od8XofuLQ5til/eRhc0RZFwpAiokjhaXxR3Ga9o2blMmLeUQZ58Et17ebGx6mIzvmKGmul7JKu4IKPQ8hdQx5cenQBT7HcA8jHhl2zJHq7KXEhXnAD8y00fkeybu5ck21uZXWNXXcyDd9nZy+XKPRum+REVfOE28M8hmEb21UPtvqSLHJnJvnlEuN/SVqvmJfq4dPrmyPeGT6grpWKdvDcx/YyByT97+Fx99SXtqKZxTXjl3CkX3qV7olnoxXqfFsW4o/rmyPeGVSzxbcp7K9lPjL8VtwpA7+GF9zUM5PhwkdCiHOZNDZhaW5sfvwblTAWZx99rOffcFUC0veWHKvUM+9SbOYTD511s7TI1yM53nhNwrTnnx9Y2nxyNde4S04KS6pJTzng3NLYWmt8iG+L1uLIYqQ/AVSv2ZpcWfbr2RijIKRhHr2jeVP/MRPvBSuYrKQxD4y2/WtIv2jr7Za0OX/wdRG6mNPH/pOauFc/WqfxE9xmGNGPHPmPLkI0CwsaaOXb4SRsdC5LllYsuh8DRbb+XVYxiDDnoHRUYIpL5KD7eT5hIP7JUgJWIJvKZgNamgmEJMGyYLEszV5gcUk7kGFschMpCRodbZQHnJ+opsPYcfiM/12PPpiysOrdtao+L0f9DtfnfwshhFGD/neU+e7kzPOsdiHJy5TNvI7kjm2HrY638izL23yqSPrpYy4wW7K7JOuxYp61W9iSP4IBn0kNXaY14wfdNJf5bPtOjuee+UhubSfPIxWyhiKQmweKSyxx9tJ15k29vg6Hns0/eU8jHhixnuAZtzl/SfPw7TaIn99/OMff/3pPW3sGTO0yWv8H0tzneuSBysOHYxhrUbFYx5OtFMp+JSBe8Rz6MEvByj7z1JiI++l893JGZ/zxVrw/GDe9mBzTRnjmjq+893JGVfvq6793jb4vE/G4lsblc+2OlLtsI+UbaXcEzHGemUhx3h8pt8Rzz77zd/8zdd+XbsjWMSMDS7bYrE9wlF1aGNjdF/a2Uu1x36t/iqmbHd+iGd/yGekY6x6XvB5qDwp/riUdTwFWO4j9kXuVcdvpcwFBV3a7Hx3cnx5j8wxbXMi+Dos6Rv/ZwtLbGRepk3eydz4qU996vXfI5qj6fcMSz4FB4WdBaaFpW8K2fNdUYmdLCaT1wf0aGHJuMSbNj3Lg5v7Jt4sHO9SWFLUWFhZ7FAIwQOOi1+IpfA8W1haoGoXmsWcRWHKKOCWCkuxp81aRI78qs89aaP63VtYoq8t7UuzULe4tA9KkYjcqxaWWVw67pd+6ZdeXnHPLCwJUIJXH1uLSoLcJFIPTtgz6bwknoUkSgLLRG3SEg/JKvu38B5M0D1bWDL+yBtTcXpgsp33u4X3Hs5g0HdS1ocL2RYcqcM9uT5Qi4O0v5e3CML2GqbEkn5Y98S15aAyihUPI2kbn+m340cYRvbS9hrPOuW9dL4rRuw6r84L+Nb8ZZEHb6zAY+9oYcl4ikuxGDf6W8NFf93PuX70d3NTC0tzV7de9td8BHbG2F+ph4iUc0ghJ6as8lsKSw9Ho+K12tvaNndzn4xh/hy7hUeX+HBNjxSV9aDpmu7BkVgZh426Tlviq9PJD6CW4gwcXJ2dM4WlNkfPpOo3Mcgzjj3nWmVO0fYeypwwx7Uw1R+2tvDouV57/C/pEs/cH3QNR2LsbBKjXWFpnFbqPVU5/riUd3x9ztZ4dvxWyj3w1e7U73x3csfWvLiGjX7zVt3v2Oz8ZV7UNxQbFlTGs/bpt6CzD0p/FmfkamW1sFQvc66ypFlMJp86PhNSljy+iS2ocgpcvs6a+OU9o1NI5t9O4ocXRUuFJXUFOH0htfTjPdYmwzeWFD8qbKWMeV775mDr3G7Rc9HPUD/RkLJxR7wyqEG9lbrRszA1+KEmmy5pILevS+h75Tw8a8IBS/20Gb/a7nj7z1AeDsyDNjpfndxxs6nFAnY73518Nhbt5Vx1vpFnn2OP0C2xot3qNzEkr/5MSmHqG3jspr/KZ/sMBou9Wpi6v7MoxCeXYzre/kr34GQviSEp8bw0NzxM9WPeuoJaqEG1799c2x5R8Cln/ka8splUvGcKy7N4ltYU2918dPIlPMbAXjqrsNzrt9PP/I0Oc8GlfsfbP4OSP0d/g9r57uQzsFQbswvLaj/bXbwlhtRhHriUdbz9sygxwzM27XW+O3mO3cqPikDPZObJzl/mxa3+tpxf801fPkdGbygpPinaRnbBpzx5ZVdQz+xg8i0lMgvKP/zDP2z/xvKuhSXFz7OwfBaWa5ui2+h731hiJxP1TJ6HH4fyfGtEEuPST8fbf5Tik09NSeba6Hx1csfNpBQL/hIgdjvfnXwWFh44ftrNwS3nqvONPPtmYcHOKFa0X/0mhuTVP0OJG74GpQ3iJ98upL/KZ9vxR2ktAGmzXmCB2o9PrmyPeGXSo7hyHEXJlv3FQ59xXc46KudgxCHF8eQ+Hvi2Ldw8QCmvNA9QzKX9ySubSTlsMofaTH9beMfNpK6pNrfgSB3HdTTjZyt/rz0oPr7CSo6kXfM3Mu6fS/2Ot38GrcWtNjvfndxxM6lxrc3ON/LsU38rzRijkMxcIIbUgdenctojXtkMyjOlfg0Wu53vTj4Dy4w3lh2OtTNr18+6MT+8KaRAI1+jS5vnnW826/gsJpOverPaFpVQ3k7mG0vaPHvog9KG980m/67w7oWlb9aeBea2AtP5mkHPvKl0bAYgPIlCWfLKoHuDv9vcRwpLbG1N5nv0RsUC98+lnY63fw/l4cKnXn4KxsMlx3e+OnmOPcMzD/kmd8th/NaYcq4638iz78yc1LGjWFGn+k0Myat/luZbnHzbjt30V/lsn8XAeItA6YzCcgYubViE2M77Tz4Lty5vHZF78HC/cwhBpi0PUSmzL2niA7d9ySs7SzO2wMuhU5vpbwvvuJnUNdXmFhyp47glarwsUfKR63rPPQhG8rVYoJm/6ef+ubyfjrd/BnWdqq3Odyev44+2R3Gtrc438uxTX7oUQ7XPD5Jdp7q31Ndntke8shl06e2p9sG1xtt/hpoTt+SdzItrPveeX1M/C0v4PCtxnk3d5LOYTD51ZvJ5XoengDTessj0hznp488a+eFP9LcWllnHTPsqbBqFfxaXy8Vlna+zbYvDM7QGIElDWfLKoHs3wNpGt38pYWWf+ib1qyg+ubTf8fbPpJ2vTj7Td2er893JOzsz5Z1v5Nk30+eSreo3MSS/ZGNWX/qrfLZn+dOOxWWl+ORS3vHauZLm/Se/54BiHrolTXzg1nfyyq6k6W8LfyUWbW/BkTqOW6Nn4hB/jq98ttW5muIz/Xb81Tiw3/nu5PfGlLjEshY7Z/rxx6WNjrf/Str57uRXYen8ZV5c8r337DpLP4vJ5GfZTzt5Vj/CW0+AU777G8usYS4rLJ/F5bOwzACXX9ro2dclDeTZl2PgTfKzqX61S3vEK5tJO1+dfKbvzlbnu5N3dmbKO9/Is2+mzyVb1W9iSH7Jxqy+9Ff5bM/yt2YHn+m349fszOgf+SaXbD2g1Bx0q3bi4x70m7yyK2n628JfiUXbW3CkjuO20KMxhz/HVj7b6lxN8Zl+O/5qHNjvfHfye2NKXGLZEjtHdfDH5fiOt/9K2vnu5Fdh6fxlXux8ex69BwWffpNXNpMeKSZzjMUkOOXvXlg+i8u+uMzqfgbvop+hGVDwbFxlySuD7t0E3Uav8i5pIM++Os62yX4W1a/2aI94ZTNp56uTz/Td2ep8d/LOzkx55xt59s30uWSr+k0MyS/ZmNWX/iqf7Vn+1uzgM/12/JqdGf3VtzlkywFF3XvQxMc9iCF5ZVfS9LeFvxKLtrfgSB3HbaVH4g5/jqt8ttW5muIz/Xb81Tiw3/nu5PfGlLjAsjVujurhj8vxHW/BhJ1qAAAGxklEQVT/lbTz3cmvwtL5y7w48r33zDpbH3zaTF7ZLJrn9KO89QQ45Z+F5YP+Uu2MQrLacNHP0Bp8bFxlySuDHtkEo81eZV3SQJ59dVy2Zz589KtN2iNe2Uza+erkM313tjrfnbyzM1Pe+UaefTN9LtmqfhND8ks2ZvWlv8pne5a/NTv4TL8dv2ZnRn/1bQ5ZO6Cody+a+LgHcSSv7Eqa/rbwV2LR9hYcqeO4PXRv7OHPMZXPtjpXU3ym346/Ggf2O9+d/N6YEteemDmqiz8ux3e8/VfSzncnvwpL5y/zYvo+cla9Ygz4tJu8slk0z+lHeesJcMo/RGFJAfT8e8v3vrmsReGMtot+htbgY+Mqg7/1ZVKoCSTb6nR01gPIe9ce7eTtv4qmr46/yndnt8OR8m7sVfL0nTz+bF9BR/HnPdpHO3n7b0W9b/wln23lV1PvWT+Jwb5bUnCwNvh0jboDiv1X0NGhovOT+BL3LedNX2KsOFKu7q1o+u74W2HRz1K823crugWTOreg3je+Ov4WONJHjRtw2Q9v/9VUn/qhnbz9t6Lpu+NvgWXk27w4yqWPIAOfOJJXNoN6bj9Ds5YAp+1RYVlrmEv/xjKdPYvLd4vLnJdZvIt+htYgJDFU2ai9dyOYDLZScKhrsrJ9hvrw2kL1qy5t+TMY9o6tc8F4cdyL5lwkfy88+E0c8NmehWtt7fSrHm35GfTofeRciPGoraPjqt/EdNTmmXGuBzjkPaDYvoLuzZ3oiyPxJW7770ETR/L3wKLPxJG8/TPo3tgDh2Pgs638alr93gPD6B4Th/yMNTpjAxyOh8+28itp9Xlr/929JY7kO/2r5PomP15VrB3J1aMxiS/5ke4R2eiMfkSWtQQ4bT9UYWkB9UEvMJ2H2dRFP0Nr8LFZq2zUPhL8exKMSYMx8Pe8fBAmpj33clY3/SavXfHdkoJDf8kruwdNHPD3vFwbMMjPokfm9pHmRvyJSdmtaK5FrhEP0+ybzR/JmzkmDyXgzr7Kz8be2cv5S77Tv4U8cSR/he+tMQsOdeHveSUO+XvSXKPkr1ivrTYTxz3XSryJR9k9aOJI/tZY8G3Oy7yo7JFo4kt+BsbR+fyoLGsJcNp+yMKSguqDXFzOLii156KfoTUA2ayPcpmo7o3nEXA8Aoa6Dh5Eqvye7UfB9FyvPo88yhplnLpePEwf/fIwkvjvzTt/98aR/h8R06PE/qPgePT1eoQYegQMuU7wj4LJXPjoORt8bxJW59Pa4mELyw9ycWkhOJu66GdoLSz3tN0oW6nJ6En/3+vEfOVceHh40q+9flOwNBdXrsUVtpfu5dn3/jW/Yg222tyaI2frbcX31Jufkz/oe/AZU/Nj6jmn78zp7Dz5Jtnbc0bfo7tUR9TCclTL3OxvLKvzD+pbyzoPs9pLgbC1b0/gVd0jm/GZGG//sPmgH3DW7v9Nj8m1+/sg9997bY/kyJlj7n3/T//v5PsPyh58rvftn+8ftDmfmR/fJFv1/D27vVQzbC4sVXzSf/TqOQfPOXjGwDMGnjHwjIFnDDxj4BkDzxh4xsAzBp4x8P4YsPgcvRx7eWP5nLT3T9pzTp5z8oyBZww8Y+AZA88YeMbAMwaeMfCMgWcMPGPg3RhYLCyXvpI6qkSvki3heBv6rpo37brIZ+jZ1+lnvkrwQfsKx/N+3/s1ofx62HNu3js3V81HzvnbxF81X0t2z+S+e4xdupdn323239l5Prtnz/p/jn8z4uRtW6d75Mtb+Dx7/p4xfm/9YP1R6YeWiraqfHV7Ccub3Hf1vGF/b0CM9M8G5tnN97YlwOf9PB+8b0oMnD2k3nP8veb4bL57hPH3mrun32dufMbAMwb2xsAj5MwOw9nz873Hj2qCNVlX2zxUYQnIN7mAHGHvJn62fC0AtvTPCOxu022V7000T/3nw+kZA/Ni4J4F4lbf917vrbnsTdK795w+/c/bw8+5fM7l2xgDj5pPZ5ybH8HGlhqh6nR1zLOw/PrXLytmu0m/Ql4X/Eh7RnDP2PxvY1J83tPzYf+mxcDWQu9qvUeZtxm57dFtPMpcP3E88+UzBp4xQAw8as6ccV5+FBtH6gXGdLXMYmHJG7hu4FXy0Vu/N1V21RyN7B4NjDpuRqDPSATPh8rzofKMgcePgSuKykdb9xn57E208Wjr8MTz+PnguUbPNZoRA4+QL2echd8EG7UG2Noe1SHKnoXlW/LGkgXdGhBLerM2wqzEMCNJPW08H3bPGHjGwN4YmJXD3gY7e+fuqf/cb88YeMbAnhi4d56cdfZ9k+ws1QJrfRaRI/r/AUZPBsA1ULhqAAAAAElFTkSuQmCC;" vertex="1" parent="1">
          <mxGeometry x="20" y="85" width="918" height="304" as="geometry" />
        </mxCell>
        <mxCell id="ewbUBz9j84gc0yppB61c-4" value="Date" style="fillColor=none;strokeColor=none;html=1;fontSize=11;fontStyle=0;align=left;fontColor=#596780;fontStyle=1;fontSize=11" vertex="1" parent="1">
          <mxGeometry x="40" y="20" width="240" height="20" as="geometry" />
        </mxCell>
        <mxCell id="ewbUBz9j84gc0yppB61c-5" value="Today" style="rounded=1;arcSize=9;fillColor=#ffffff;align=left;spacingLeft=5;strokeColor=#0057D8;html=1;strokeWidth=2;fontColor=#253858;fontSize=12" vertex="1" parent="1">
          <mxGeometry x="40" y="45" width="150" height="33" as="geometry" />
        </mxCell>
        <mxCell id="ewbUBz9j84gc0yppB61c-6" value="" style="shape=mxgraph.gmdl.calendar;fillColor=#253858;strokeColor=none" vertex="1" parent="ewbUBz9j84gc0yppB61c-5">
          <mxGeometry x="1" y="0.5" width="18" height="18" relative="1" as="geometry">
            <mxPoint x="-29" y="-9" as="offset" />
          </mxGeometry>
        </mxCell>
        <mxCell id="ewbUBz9j84gc0yppB61c-186" value="GAME Results" style="text;html=1;strokeColor=none;fillColor=none;align=center;verticalAlign=middle;whiteSpace=wrap;rounded=0;" vertex="1" parent="1">
          <mxGeometry x="40" y="390" width="280" height="30" as="geometry" />
        </mxCell>
        <mxCell id="ewbUBz9j84gc0yppB61c-187" value="" style="shape=image;verticalLabelPosition=bottom;labelBackgroundColor=default;verticalAlign=top;aspect=fixed;imageAspect=0;image=data:image/png,iVBORw0KGgoAAAANSUhEUgAAA8cAAADhCAYAAADlEsfsAAAgAElEQVR4Aey9/3MUx90u6j8jP6XqVp1f7m/31P6C6tjYcXjxSTjUtY91w4sOVMI11gs+jgQEGR0guYqsoKskKsUyxH7BgA2xCoxwpLzGQjaSbRCWWdtCfBEoAgSSLTCypGB0Q7wO1HOre6Zne2dHuzO7M7Ozu4+qYOdrf7qfz9Pd88ynu+ehxHf/BP8RA3KAHCAHyAFygBwgB8gBcoAcIAfIgXLmwEPlXHiWnZWfHCAHyAFygBwgB8gBcoAcIAfIAXJAcIDimJFzjhwgB8gBcoAcIAfIAXKAHCAHyAFyoOw5QHHMSlD2lYBvCvmmkBwgB8gBcoAcIAfIAXKAHCAHKI4pjimOyQFygBwgB8gBcoAcIAfIAXKAHCh7DlAcsxKUfSXgW0K+JSQHyAFygBwgB8gBcoAcIAfIAYpjimOKY3KAHCAHyAFygBwgB8gBcoAcIAfKngMUx6wEZV8J+JaQbwnJAXKAHCAHyAFygBwgB8gBcoDimOKY4pgcIAfIAXKAHCAHyAFygBwgB8iBsudAmjj+7LPPwH/EgBwgB8gBcoAcIAfIAXKAHCAHyAFyoNg4kM8IAEdxvHjxEhTDP+GoYshnPnkshzLmgw/vLY66Sj/RT+QAOVBqHGD/nB+niV9++AVdn+ifaPmH/nDvD4EVxXGRiPlcGjJWBveVIRd8eQ/xJQfIAXKAHMiFA+yf8+MN8csPv1w46+Ue+ida/qE/3PtDYEVxTHFc8hF0Lw06r3XfgBArYkUOkAPkQG4c4MNqbrgpvhG//PBTOAb1S/9Eyz/0h3t/CKwojimOKY5LmANBdXxM131DS6yIFTlADtg5wIfV/DhB/PLDz85Hv/fpn2j5h/5w7w+BFcVxCQsjVgb3lcHvjoHpEXtygBwgB8iBhTjA/jk/bhC//PBbiJd+Had/ouUf+sO9PwRWFMcUx4wclzAH/OromI77hpVYEStygBzIxgE+rObHEeKXH37Z+JnvefonWv6hP9z7Q2BFcVzCwoiVwX1lyLcj4P3EmhwgB8gBcsAtB0Lpn9+dQKa/scP++usd09zs6R2Bv3QPBb8Sfj50y9Ncr6N//K1bufpB3Ud/uPeHwIriuIQbP1YG95VBNSD8JWbkADlADpADQXMglP656woS9xLGv/umTL5v7t+bx8WOTH5ux+Atce08Lh7MdF3yHMVxEoug+RP19EPhdwk/v/vtX/rDfd0UWFEcl3DlYmVwXxn8boiYHrEnB8gBcoAcWIgDYffPSrjiyhGXUd1X8fm8IajdRpiVDUaOyfuw+b1QPeNxg4v0h/s6KbCiOKY4dtlRuicWGyNiRQ6QA+QAOUAOLMyBsB9WlXBNEcf1R/D5LVMBCx2cmMfY0a1YvPhd3LCPx5aieiv2nJzAfCIZhZ4ffxct5nOUskFxvLDfy6VOhM3vcsE113LSH+7rJMVxCQtjUYFYGdxXhlwbHN5HjMkBcoAcIAe8ciDs/lkJV0scr0xGhnHnFm5oInns6BF8NH4L8+ZQ7PkvJ3Dj5D4srj+FmwDmb41g8IMRzJoief78PvmSXdmgOGZ9CJvfXutfuV1Pf7ivkwIrRo5LWCCzMrivDOXWULK85AY5QA6QA4XjQNj9sxKuShyvUIt13TmLXSsNHF744JYREp49g8bFSfGsD6tu2fsm2pp2YHvtKqzo1a9fAmWD4rhwvIpKnQ6b31Epd1TzQX+4r5MCK4pjimMOqy5hDkS1oWa+3DfUxIpYkQOlx4GwH1aVcFXieNeQOZxan4O88yzk0ftXcMhJHO88hZtqSLWQ0WqRLymmKY5ZT5P1NGx+E/sk9k5Y0B+Z8dExozgucVHEyuC+MugVg9vEjRwgB8gBciBIDoTdP9vFsRU5nj+LXeazkB45bnEQx4euGIHlxJVuNK5ch5bTs1qkmeI4SL4UW9ph87vY8Ak7v/SH+/5MYMXIcQkLZFYG95Uh7IaK9ugbcoAcIAfKlwNh9892cbxYn3N8b1abc5wwF+XagUFT+2J+Hjc/3Yc9582w8exZHGjah3eumNFnRo45As/2LB02v9mWZm5L6Y/M+Oj8EVhRHNsqtA5QsW+zMrivDMXua+afviYHyAFyoHg4EHb/nCaOxbOPfbXq+VmM9bZjhflc9MLRK9aiXIkvT6Ft5avy28cyXHx/HrNqRS6KY4pj27N02Pxm25e57aM/MuOj80dgRXFsq9A6QMW+zcrgvjIUu6+Zf/qaHCAHyIHi4QD75/x8Rfzywy/otoL+iZZ/AvOHWqfAmGCR9r/vi/OphQTNF3JB8FhgRXFMccw3niXMgSAaDqYZrU6P/qA/yIHi40BgD6tl0p8Rv2hznv6Jln8C88cfzuDmvQQS4p9aoO++uX8vgZsf7MisMbquGPdO9GG7m7aL4jhYYgVGFDfODemacigjHwqDrSfEl/iSA+QAOeA/B9g/54cp8csPv6DrNP0TLf+E4Q9rBXwvUV2vYtfr9TnoLYEVI8c5ABd0o+JX+mFUBr/yynSi1ZDSH/QHOUAOkAPBcYD9c37YEr/88Au6btM/0fJPGP5wFsdbcWjolrV2Ae4nMD/ajRcWL4F1vTUYexaDTavQ1jWCm/PJb8bNT5/FAfNb7IspjoMlVhhECbrxyZZ+OZQxGwY8H2w9Ir7ElxwgB8gB7xxg/+wdM51nxC8//HQsg9imf6LlnzD8YYldK3K8KimA78/j5rgmkq90o/0/RnBj2hTBYsX88RG8s+tNXLwHJGYn8PkHZ3DDXBAfX/ZhvQhmUhwHS6wwiBJEg+MlzXIooxc8eG2wdYr4El9ygBwgB9xxgP2zO5wW4hPxyw+/hXD16zj9Ey3/hOGPNHG88l3ckFHheXz+yipj7nH9KdyUx0SU2FnsbnjlTexp2oHG+nVY/MpZSH18/woOURwHT6owiOJXI5NrOuVQxlyx4X3B1zFiTIzJAXKAHHDmAPtnZ1zc8oX45YefW5xzvY7+iZZ/wvBHmjhWK1krYSunsb6Kz81o8NhhB3G86QguqmixENHWIl8Ux5lXNvNpjnAYRMm1UfHrvnIoo19YMZ1oNeT0B/1BDpADpcwB9s/58Zv45Ydf0HWL/omWf8LwR5o41iPHO0089Mhxc7o4bjw9a8xAnj2LPc+uwoajVyAHXiuBzWHVwRIrDKIE3fhkS78cypgNA54Pth4RX+JLDpAD5IB3DrB/9o6ZzjPilx9+OpZBbNM/0fJPGP5IE8eL9TnHCcxOJOccJ64Yi3ItPnzFEMNIYP7OFQx+esvYv3cF7/yhHQc+Mfcpjpdg8bPteGdoAtpiZUjcuYWLve14hpFj15H1MCpDEI0q04xWo0p/0B/kADlADvjLAfbP+eFJ/PLDL+j6TP9Eyz9h+CNdHAsM7KtVz2N2tA9tavXpla9i8Ja5KNf9eVzseBVvj5rjqsXK1rNqu8yHVa945Qxm1Qre967gbTEpW3wkWr1bmD6DXQrUPIRyvkSxSGDmS/0kbvmTPz8aLr2M70yoHDr8qjcyeeDpR36ZRrQaU/qD/iAHyAFyIBgO6P2zXxj72c8vlJb6DItfec41nSDwyzUv7u9TCxTZnsPuz2Ps6NaUwMcL706Yz73mwkVF9nxWLP5x9SzvELCbnx7B2/XBtA3u+eTefrH4I4iye01TYBWt7xzXv4sbSgWLtmP+LHaJBkFN6jbbk8TEu/IbWV4LrF+fL1GsCnU/gcQ945/V3I2/m9LI6XbD3NbL+PaoQz4T5rH5EWMVuCJrfMPEkrbcN8LEiliRA+QAOZCZA3r/7BdWfvbzljh2eMaZ/7S94M84QeDnlx8WTkcTx+r5y3rmncfnfzA4kxTG4qmS4nhhPDPXMTf3ZX+Wb8WgOQ1WeEM+71uLRE3gHR+CdW7yme81xVlf8vdvLrgJrCIkjlfhbTX03FKZC2+MHTWXBc9R0OVLFKtCWd/zWoIXPjDHxmMC7+SYr1wcudA9zmVMNs5ypbgI5HOh/PN4YRoG4k7cyQFygBwIlgPO/bNfNvPv5y1xfOWIKYRX4cCIqeRU4KKAzw/B4ueXH+zpOPhlpfFdV/G0Oz/0KlaoT9dYj78Ux0G2RW6e5YVPZmdH8Pav1eeI+nDTFMg3T9QU/EWRG3yKs77Y6084+wKrCInjZKMh2wS98bVFjuX5PKOz+RLFqUIlI9xmY1Z/BJ/f0tYkT+hDZ7bi7fOzSFhvoOYxe74bjT6+hXIuYxJnXRyvaO3DjTvWK0yI4eF7njWJWL8PH43PJ/OamMeNd1vNBiG5LPvslQnMq/LMnsGhjrO4ec9s4e9N4H3xTbMCdqa0TfzJAXKAHCAHosAB5/7ZL9+46+cxfwuD6vujtr45XRxrK8vKqVhbseektjaMmB84/i5aZDq254IEMHt6h6/9f7D4+eUHezrOfkli/S6MZ8sEZq/cMr7vysixr7yx131Xz/K2urF4cfKFxuxJf3ltz59f+8VZX+z1J5x9gVV0xLFdAIv5xr/ajBWClPZzQm/p4jmNuNkBzJco6RVqHfacN4Vw4goObUh2DrhzCzc0kSyi3htOGFHmxPQIPuo9hc8n5oH5ERwohDi2hrPP4+b5M/hIiHYNYxkRv287h3lc3C1w1soprpkw75Wa2LY63fl9gTZyfjUiTCd7/SFGxIgcIAfIgdw5kO8zSGbsHURYfTLalZiewI1p9TJ8FoPikyq256ikYDMjxyt34P0vzZfds2fQYn6SZf7WCAY/GLHWipmX/bz2XCAe125N4OJ/+CsigsUvHQ87Prntp/tlxa+Tfpk9LYIOW7Hn6D68YD33MnKcG9bufJj1Wd7hmfyFXrWC8iwG1SeKbPUnyDznknZx1hd3PswFj0z3CKyiK441cRZpcWz2FfrP/Pk38XP1La47Z60FxKxh17Nn8Lb6ltf8BAaP7kNj/WZsqF2X1kFlcmC2c86VIb1xVo1DYuRN42XEYjXEPYGxDkHOVuw52I7GpgZsWLnK6iCNN8HJTtAY6q6d/8SILqv0YQ3PKgzhs+HF8/QLOUAOkAPkQBgccO6f/cI+Qz9vrdmiDZN26Jstcaw/3MjtBG6eMPr2lr1voq1pB7bXrsIKJRjkVLPkc8HN3tSFpvzCNlj8/PKDPZ2kX9JhvYX39ZcUFMe+Pg8vxDvr+TTNIYB4lpcBOk34vnD0ihnRdz6/kJ1CHy/O+mKvP+HsC6yiI44XOzQaKjpsNRIae6MyrFpbrEJ8bmrskyNysTCrwumdjiqHGJKkL1+uilWgyPHCnaAxFGrXyVvWauEyq+bQ6TRxfNggrkpPDaNyxEJrbArdaNB+OA0OcSbO5AA5QA4YHAj2YTX5PKWmT9n7ZekH9RJfWztF+UddD+0ZZ356Qn5S0xjRdwo3VfBZPBhoU6oatRFlyr5K16/fYPELqp4m/QKxIJfCbP4K3m61raOjnhc5rDpQkWw9n5o8V4/jNz/ZZ1v4dxXaPkg+C8+Pa58jKoLn2eKsL0HVw8zpRkwcq2ilSU19WPXKzdiufc5JXBHFBbn0Rn+F6nSUwF+sLdglhiQtXocNtauwWJRt97u4aK6GN3uywTjWtDXvbzo7V4Zk46w6rT3njR4uceVdNIpPZ2n/ttcew5hswBMY69qBFc+2YnDa8BHFceYKpvOB28SKHCAHyAFyQHHAuX/2C5/0ft4SARPvWiPE1AJbiStH0iJkljjWX/BrIuCQuYBq4opYK2UdWtRoOFvkWD1nqHL79Rssfn75wZ5Oql9WvD5iBh7m8bl9eC7FcaCiWPHQqheSt1vxkbWurqonS7B45Q68fUWtH5TwfX0glZcgf4uzvtjrTzj7AqsIRY6XYLE199VhTrHVUACR+pSTwxtXSfCVyWFFuDerzTlOyO/ZqY5kfuIsPuo9gxuy3iVw4z9etYYtI5DoeGrjLPPafAZqpfr58TN4/4OzuDGbQGJUzDXah4vmolqzn76Jxt3vYsxsIyiOw6moQTaYTJs+JAfIAXIgfA4E+7Dq0M9rc47lOihqzvH9WcdFubKJY/VSHbNncaBpH95R4oHiOIOos/tlMyyc7c+S1jMv5xwH2T6liuPUNY6MFzs7koLZjN2pz7eK3xsnGjL4O/x2ZSGsgm1volPOhcrv5Xj0xPHiJVjxyhlrYQeThyk/iekz1hxeL4W1X5svUdIqlPZG1bJlX616fhZjve3yDe2KXxsrWVvDasQK0HJI9irs+lRI1QRunn417W2ulbaTPdsx5zLaG2eD1GK16rFp9WYMSJh5fcb0ibXq9PwsZpVYlqtPJl8CqDfEqrHnsOrSajC8cI/X0vfkADlADizMAef+eeHrvWG5cD+f8lWKOxMY7HCeE6z68QXXCtGnht2fx+ysOcaa4jiDWHLwixacuHlC8wXFcQYc/aonS8zVwcXnpM+gUT5Dr8KhKyaX741gjzZFIEWMmDvqOddb/fQv/27tBtvehF8et+XO5TqBVbQix0rcPduOd4a0TwQIqXjnlpzrIsRaLoW131MORCmHMtr9yn1/6gdxJI7kADlADgTHAfbP+WFL/PLDL+i6Tf9Eyz9B+eOZPxiBNSvQJz7pNnEq+SlYnzRb0HzV0xdYRVMchwBmUETRAS70djmUsdAY0360OgD6g/4gB8iBYuAA++f8eEr88sMv6DpC/0TLP0H444V3J5KL9doWNIP4pK3DZ7CC5p0f6QusKI5DEOJ+OCuXNIKoDLnkg/dEq5GkP+gPcoAcIAcKywH2z/nhT/zywy/o+k//RMs/vvtjZbe5WC8gprvuedYo74pWYxX7xOwVvG9fgb1I9JbAiuK4SJyVS0Pme2UoYaxywZf3RKvxpz/oD3KAHCgWDrB/zo+rxC8//IKuJ/RPtPzjtz+s75rfv4WP9O9zi3WKardig4oaW1/uuYWxW/NIiIiyuKa1D/r6B5i/lVwYcOWr+GgiuQYSxJpMJ/fJL/iseOUUbtxJzv5O3JnAR3vX+TLdVtUJgRXFcQkLPr8rgyIOf6PV6NEf9Ac5QA6QA8XFAfbP+fmL+OWHX9DtBf0TLf/47Q/1KTfc6jMXMlugvEocCz0rvtwzfgp7tJXzE9MTuKFWzhff9G5eArUSvvx6Tu8ZjImv59zqQ4v19RyxgHEf3v/kCmYTCdw80Upx7FeF9psofuXLz3TKoYx+4sW0FmjcSvgFEn1On5MD5EAhOMD+OT/eEb/88Aua8/RPtPzjtz/SVrO3VldPRnXlSvdKHM+ftb40pL72k/ws7yqob66Le5TwTkyP4P2D7dheuxkbaldh8eIj5lBu8a3pPhz4QwM2iHMqSu3Ts6rAipFjn8AMuqHJJX2/K0MueeA90Wog6Q/6gxwgB8iBwnOA/XN+PiB++eEXdBtA/0TLP377Q0V3rU9g/eEMbt5LQH4D+r4pkK8cwWIljq1PZS2xvu2d8hks/br6boxpQ6dFaokvReR4CV44egXzKn1phpFj38PmQTcOhU7f78pQ6PLQfrQaW/qD/iAHyAFyIDcOsH/ODTfFN+KXH34Kx6B+6Z9o+cd3f2iR4vkhYz6w5NLKzXj/y8ziWEWOMfEuVsgAZTJynLhyBCtWbsYGscDXs1vRdvAUbtyT8hhjHWI+82Y59/iZ+nYcOGmulm3OY/aLywIrRo4ZOfb1pYNf5GQ60WpY6Q/6gxwgB8gB/zjg+8NqCT/LOPGO+PnHRSd88z1G/0TLP/77YxV2fTprqmAA5qecrO8dYx5jR7c6Ro4Xa3OOcedWcs7x/VkMvrIRh64kZHqzo2fw/gcjmE0IM/P4/OARjInte7MY+6QPH52fNT4ldecsdvnY/gmsKI59BDTfxsTv+/2vDNGq7H7jxfToX3KAHCAHyIEwOMD+OT+eEb/88Aua4/RPtPwTlD9e2HsKY9PaytL35zE7MYL3/2CuIK0Pl9b0ln21arHq9GDHVhmse+YP9pWsZzHW244Vi9ehrXcC81IsG7p8ftr/T0YJrCiONWcF3ViEnX5QlSHsctBetBpZ+oP+IAfIAXIgPw4E3j+v3IFDn6Q+SGJ+Fhe7dphDGfPLf6H9Hzh+JfxsGIbv6J9o1S/6w70/BFYUxyXcALIyuK8MYXQWtEF/kAPkADlADggOBNo/r3wVn2sjHpFIIDncEZg97e+nTwrB6UDxK+HnwrB8Rf9Eq52jP9z7Q2BFcVzCjSArg/vKEFaHQTv0CTlADpAD5ECQ/XPLJ0oZz2PMihRvxaGReeC++EboEbxQ5M8+QeLH+pl//aR/8sfQTx7SH+79IbCiOC7yDiJT5WFlcF8ZMuHIc8SRHCAHyAFywE8OBNc/v4rPzSmAiZE3bUOo1+GFenMu4OLkJ1Xmv7yCm/MJiJViFy9elT6v79YZ6xulK145hRvaZ1bEXMGP9hppvnB0BLNyZVk1H3AEb/9afJ/Uf+4Eh5//eQ2i/FFPk/6JFo/oD/f+EFhRHAfQaEel0WJlcF8ZouIz5oM+IwfIAXKg9DkQWP/cdAZG3DiBi3sz4/jORHKx2cT0BG6c3IcXem8ZB+8nMDsxkRS7s2fQsngfLkrxK6LPfXj/kyuYTZjfGd3Uh5vizsQsLn7Qh4+GJjB/fx4XD1Icl2N9DozfJfzMHiRP6I/MbaGOvcCK4riEKxorg/vKoFcMbhM3coAcIAfIgSA5EFj/bH1/dBaDTYYPdRFsKF/jnDo+P/SqGWFWUecEbrxrrBy7eOWbpiAGxg4fwdh9qYAxe74PB/7QgA21m7Fh5RIstkS5EM7d2NO0VZ57JqBnrMDwCyi/QXIpimnTP9FqP+kP9/4QWFEcl3BDyMrgvjJEsXNhnug/coAcIAdKkwOB9c8qggshZg3s3h5NIHEvIdblMv9SxfHs6R3m0Od3cUNekRTWgn9KRIvrXjh6BfNSIKu0zMjx4lXYdfpWysJfYn4zI8elyd9s7VJg/C7hZ/ZsmOZznv5wXw8FVhTHJVzRWBncV4Z8Gh3eS5zJAXKAHCAHvHAguP55syVmkZjA+9qc32deH4ExHXkhcawix8CNd83h0FbkOIGxw6uwonYzRDT4mfp2HDg5Aam3E1dwSByr3YwVi1dhw6/24Z0Rc1Gw6VPYHsBzVnD4kcdeeLzQtfRPtHhEf7j3h8CK4jiARnuhxiLs46wM7itD2L6hPfqGHCAHyIHy5UCg/XP9u7hhRYnFPGA9agwkpo0FtvSIsOKiNecYwPyt1DnHuzYcwZhI994sxj7pw0fnZw1xfOcsdjWbc53vTODzD/owOG7I8MT4u9gQwHNWoPgFkF+Fb7n80j/RatvoD/f+EFhRHJdwI8jK4L4ylEuHxXKSE+QAOUAOFJ4DgffPK9vxtlgUSxPJiTu3MPbJETSKOcK24dJJTthWq76fwPzEGRyqF/esS1/JevoK3m9dhcUrd+DQ0K2kvZT7/Mc7cPxK+Nkw6Wv//aLSpn+Cw1Zh7OWX/nDvD4EVxXEJN4CsDO4rg5dGhtcSV3KAHCAHyIF8OMD+OT/+EL/88MuHu27upX+i5R/6w70/BFYUxxTHgXyD0E3jyWvcV1ZiRazIAXKAHCgdDvBhNT9fEr/88Au6LaF/ouUf+sO9PwRWFMcUxxTHJcyBoDtApu++wSVWxIocIAcUB/iwmh8XiF9++CkeBvVL/0TLP/SHe38IrCiOS1gYsTK4rwxBdRBMlz4gB8gBcoAcsHOA/XN+nCB++eFn56Pf+/RPtPxDf7j3h8CK4pjimJHjEuaA3x0e03PfwBIrYkUOkAMLcYAPq/lxg/jlh99CvPTrOP0TLf/QH+79IbCiOC5hYcTK4L4y+NUhMB1iTg6QA+QAOZCNA+yf8+MI8csPv2z8zPc8/RMt/9Af7v0hsKI4pjhm5LiEOZBvB8f73TeoxIpYkQPkgFsO8GE1P64Qv/zwc8vTXK+jf6LlH/rDvT8EVhTHJSyMWBncV4ZcOwDeR4zJAXKAHCAHvHKA/XN+nCF++eHnla9er6d/ouUf+sO9PwRWvotjkSj/EQNygBwgB8gBcoAcIAfIAXKAHCAHyIFi4oDv4hhF8iecVOp/5VDGUvchy0cEiAARIAKlhwD75/x8Svzywy/ou+mfoBH2lj794R4vgRXFsXu8iu5KVoaicxkzTASIABEgAmWAAPvn/JxM/PLDL+i76Z+gEfaWPv3hHi+BFcWxe7yK7kpWhqJzGTNMBIgAESACZYAA++f8nEz88sMv6Lvpn6AR9pY+/eEeL4EVxbF7vIruSlaGonMZM0wEiAARIAJlgAD75/ycTPzywy/ou+mfoBH2lj794R4vgRXFsXu8iu5KVoaicxkzTASIABEgAmWAAPvn/JxM/PLDL+i76Z+gEfaWPv3hHi+BFcWxe7yK7kpWhqJzGTNMBIgAESACZYAA++f8nEz88sMv6Lvpn6AR9pY+/eEeL4EVxbF7vIruymRleIBzHT2INcYxqpXi7scfIrb1Q/Td1Q5eiWP51h60jTwA5r5A/Nrf5MmZ/n7E2oYxI/amh1GztR9d09p9anNkELGtgzin9vVfLT39cNq22+vSbiz+Ayk4P/gbRs99gZkHUSnXDLraehDbegKHb6bnaarnBGJbe1DTL1mSfgGPEAEiQASIgEQg2T8TkFwQIH65oBbePfRPeFi7sUR/uEHJuEZgRXHsHq+iu1KvDInPTiGWImgfIP4nIXR60PLZt1bZpDjbegoDCWC8uxexps8wDiBFtOUojvX0LIMOG26vc7jV06Fz3SdQ1T3h6Z6gL07B+cZnqNzai4M3grbqNn0ljnuw/KgNtwcT2Nto8Ini2C2evI4IEIFyRUDvn8sVg3zKTfzyQS/4e+mf4DH2YoH+cI+WwIri2D1eRXdlSmWQgrYH2z7+xixHUsws/7MSOt+g7997khFircQpoi1HcawlF4lNGU3vuBpoXmY+PuVJgKfgHGjOckncEMfLG3uNUQh6RPuvYsRBL5Y3MnKcC7K8hwgQgfJCIKV/Lq+i+1Ja4ucLjIElQv8EBktF4f8AACAASURBVG1OCdMf7mETWFEcu8er6K5MrQw3cbilBxVKDH41jHVbP8Thng8RaxmS0WE8uIq27T2oOmaMmdWFmr6d67BqKw0zyrim5ysN028RP9CD2K4LuOEwhHvX+3HUNRmRyYqGD9HzlVJm9zDefxprfmWcW/q7QRx+SxsCPncVe3f1orLpBCqberHu9WGM3v3aHB5s3GMNA//HF+h6/QSWbldpnUbXjXtmHq+ibWsPGv9jGC2/60XF1h7EfnUCe0fUea0o2qYss8JcO77QpoWRuEB/CWFutx0bRE2Dkb+qfRcwOvKZtb/0lQuYMmGRwv+1OA7/+wk8JvPaj4MjE+h5Xe2beZei1jZMOjGGlu09qBtQL1JUbg1xXHM0jjox4mBIjTgwfffvcext08Xxd5gZEn7rRWVzLyp/dwqHL8/LxO4OfIjY9tOIJ1TaAG4OYc3WXuz96wPgnzOIH/1Q+qyqqRdr/n0I5+4qn2u+aDHtOfpZXa/Z4CYRIAJEIAIIpPbPEchQkWWB+EXbYfRPtPxDf7j3h8CK4tg9XkV3pb0yjP651xLCcr6xmEMsRZc573hyCFVCnFwxiqoLNX07RbTZUckw51hPQ85PVaJcpHF3BNtMwaVfZ9jqQeWBy5hKCNH0Dfpe70Hs30cgpkonhk6jYusJ7JWi6wESX11GixDRcn60EQmv+o8vzFx+h6lPhnHujrGbGjk2rq14eQijQoQ9+Bbj7/ejYvuH6JPXG4JMnr/znTw/+h8n0uZx2+GQZfFNHPeg6q0x3P0ngBufYc3WHlS+dgHjAhe5n/SdLNuvPkTXl98CD+YxIDDbLgTxN8l9ieFXOPy7HugvKuQQfLtwlQUzxXH/TetFhpyufueCKZZvypcOali1SKeiaRBxJWpvDqNmu8jjA8AU4EmBDYwfO4HY74YwhXsyv5UdV2Hc+h2mhC+a4hiVetfmC2T2s90n3CcCRIAIFBoBe/9c6PwUm33iF22P0T/R8g/94d4fAiuKY/d4Fd2VaZVhZBAVct7xt1J8GMOpjeHVYt7xzIf9iG0fxDkz4KaLVH3bD3EMKajMKKHQxiKSKBYMe5B9fnMyL0Y5rGi46SH9vIhGV7QOIn5zHkJD6n8p4lhG0u2LjBlicN37YuUxQ5C1jWgpLPQiYGYEjS0nUCX+iSjvr3qN7ZYTOPhX7X6HzWTenSPHyUXQ7PlJ3U8pm33OuG1f2jSxB75Bzy6HOcUyr0oczwAy4mzgJV90yPu18zC2U6PPDzB6tNccvWAuErfrgnzJAXM0gbzefGHTY77EkKbN83KhuDRfGJHrhfzsADMPEQEiQAQKikBa/1zQ3BSfceIXbZ/RP9HyD/3h3h8Cq4iL4+9w8dWX0POl+0K5vbIciJJWRhWd/eyqXDzJEBqGSKl4a8yILr5+GWqkqy7U9G1fxDFMQXNgDAmkRi+z2Uqe18VY0vPJ8zCG5/acNoZkb+9FTccFjP/DuDZFQC4gdJPXpIpPmcIC9yRzYgp93yLHuni35yd1P5lvIzcpmNjEsfGiwlyhXB/arBdEbmt4W0PjL8vIs/GiRTtvCtjHmsyXBPrLArXquSawjREAH0IKYolrDyrVPfK3Vw53N6LSqWWVWRPDsBfwc1oxeIAIEAEiUGAE0vrnAuen2MwTv2h7jP6Jln/oD/f+EFhFWxzfegfVP1iL2IunoGY3ui9e5ivLgSjpZTTES8XvTqDKXJFaoCSH0bacwJrt+nzR1AhuirjS58LaYc4gGFPSEPdJcXQKA1fEcG5TGNmFm4OtZDrZIse2zN0Zx97f9UAtQJYiIP2MHGtmZV49iGM5tPjlC+mfzErDwS4QU/dTymbHNG0/+aJiVHyOSQ5t1gphberiF1Cfbkp+2kk/b8xxTy4AZyWibaiXIl/IYdoV8kUJADm83/aJMe0uxyi+ft7mZ/0Ut4kAESACUUAgvX+OQq6KJw/EL9q+on+i5R/6w70/BFYRFsff4fO2Gnz/ibWI/aAeh8T3hHz8KweiOJVRii+xQJOK3glMpfASizydwOHJJMhJEZoqlP2JHANqKK1c/VgNr7ULtzRRmJqX1DnH4mZ9zvE9nDt6GoevGYtA4cHfjCHD5urcUkC+dhl3E/eQeOBuzrGrYdVJCJFttWox97vqwGXM/PMBEl9ewLZGbf6vXnZ9W6afKobtgtGbOFYvKozVplOHQmuFMYdKqznFFm8s3+niGHKYfkXTaQzMfGck8mAeowMXMGpG7sVBYzh9r1zpWi7EJa+cQc/LxjzzGTG/Wvzd/QI9AxPmqAZ72TP72UyBP0SACBCByCDg1D9HJnNFkBHiF20n0T/R8g/94d4fAqvoimMzarz9vc9x6P/2P3ocOlGuH8aaWAxtZ907KN8rHct4RXxyJ7kitWHDiPLJOb+a0dzFsVoFOvkrRKWenjKjoo/6wkwp16WJQns6ttWqX4qjy1qt+gFmzn2Gbb/rxVIxvFesevz6sDWsOnE5jiqxMvV286WAi9WqvYpjVc4Ff81VluWK0mLY99GrmFFzo/Wy69syMbtATN33LI7NYdIxbURBep5Txa+an5yMDtvP38P4wKBcrXqpWK26qRd1R8dgCV5hwFzMy1oxXRn9xxfo6fgQlQ29qBL3Nn+IvUMz5tnUsgKZ/ayS5C8RIAJEICoIOPbPUcmcysctYOd6oOI/AQ89BPzvy4E3L6uThf0tCvwWgKjpIQNPgWnKv8bkDa/9CHhI20+eKY6tovPPF8B/t/vD3P/vHSbmV4AfPwQ0DRaHD/RcFsQfGfD6x3vA9wS+Oscj0t4IrCIrji/uqsH3f/I6Lt4Hvj31ku/R41CJ8vdzaHs6hlgUxLFeW0p0W0bHzdWsS7SIARTLWIjLGtocgAXHJK25y/pnvRyv5EEiQASIQMkgEOozSC6o/QNo+k/Aj3cA42Lw1T+Bod3A974H9Gmjf3JJ2o97Io+fl0KaImJbv3HTx42maNaFg5f0InBtKfjnH/2GgHtNfMFlHmhaZPiF4tgFwbLg9ftFRltiieMItTeCu9ETx/f/jm8m3kHdD9Zi+3tqudoJM3rcj+l5c4imC99kuiS0int/Cl0bK1CxsQY1FMeZXJLbuckh1Lw+koxGzl1GS2MPktHM3JItu7smtW8Mh1h4+bknbb55iKZpiggQASJQMARCewZxWcKd/wIcu2W72JyRpB/dJiJnn+pHCrMdNfzyQWHot8BD/wcwBGC8wxANVf+XLaqWj4EC3FsK/jm6BnhoDfA3AG+uBr632oguUxxnJ1QmvG51AA/9CHjtlzaOR6S9EdwtrDievoz+t9/E7vaXULfqF3jyx2vx/R+Y/540osbKBd9+KKLHyfP/5elf4F83voTd7W+h5+yE5wW7Qqu49+8ivmcv4iJ6THGs3OnfrxwK3W8Nv13a1I+W/i+sFbf9M1SqKRlzrWNbe7CuW83pDaOsxifExJD2xo/Fp7L4RwSIABEoHwRCewZxCakY6vvmF1ku/gfwi4eA34c4PWyhHEUNv4XymfX4P4Bt3wN+vM+48m+ngN/3AzJ6zMhxVvgCu8Aezf8t0CeioRxW7QryjxfCax74xfeMoelZOV6g9qbg4vjbs3vwpCl4f9qwB7vf7MXpjy9j8s4dfHs/Hf9v5+9g+sp5nO57B2+078GLzxpiOVbzDrw+XoffsFIcp3uUR4gAESACRIAIlB8C4T+DZMbYjTgePwA8tMiIcGZOLfizUcMv1xL/7W1jqO7Rr1NTyCocUi+P3F6x+0eP5uvgUhzraGTftuM1tAP43nojGp+N44VqbwR3Cxs5BvDtZ3vwr0+sxZM7TuEbB0G8IPRfvoOfi5Wsa/6MSS/3mQmGX3Epjhf0JU8QASJABIgAESgjBMJ/BkkHd6gdePxfjH//m1hw6wfm/kbAPsL6H4NAxUPAtlPp6RTiSBTw86PcYuGt7/0vwD6NO5tw8MN2kGkUtX9s0XwdJ7vY089FebtQ/kjBy4zGyzncyDw6opDtjcCq4OJYkOnb86/jp0Ig/7LfndCd+HNewljYDJ8oFMdRbjiYNyJABIgAESACYSEQ/jNI5pKJh9iFhlX/4zJQ9T3g8R3pIi5zqsGdjRp+OZX0LPCfFximTnGcE6K+3LRQNF8kniL2fLEWTiKFqi86XsfWA/+5MdmGLMTxQrc3AqtIiGNBjW9H35KC979sfiejQHZ7XTa6hU8UiuNsPuF5IkAEiAARIALlgED4zyCZUV1IHIs5sI9HTBiLkkQNv8zoOp/t+1/GwkTjDqcXEg4Ol0byUDH7Z6FovgBaF3uRBH6BTBXKHxZeGT6VJT5n9rGZ7yi0NwKryIhjgYuYg/yvP1iL9gUXe/gOp19ci++vehNXchhKrXMmfKJQHOv4c5sIEAEiQASIQLkiEP4zSGaknVarHn/bGEpdtTsZ7cmcSnhno4af55J/DTzzEPDM2853Uhw74xL40QzRfGHbEnuBZ8RfA4WqL5nwsnM8Ku2NwCpS4hhn9yD2g0b0ZFhda/LAL/D9VW9hMk/ehE8UiuM8XcbbiQARIAJEgAiUBALhP4N4hC1DpCcKn7KJPH5Z4B7fBzyU4ZvRduGQJbnInS5W/2SK5guQM4m9yDlBy1Ch/JEJrxSOR6i9EVhFShxPv/1LfP+JPbioOfSb8auYTiQPiE86ff8HL+H0veSxXLYKRZRc8prrPY5lvB3HwV+uQeXTVaj60WNYurENA27eNPx1L5avPojxPCP2bsty92oc56Y0x6sb79/F6PE21D1dicrVlXjsh2uw7cg53PU7X4kpnPtkHHeVXa+/92cQf2Mb1jxdiaqVS/HYj2rQ9tGUTOXu+9sQ+/VAxs9NnXulAuuOGNd7Nc3riQARIAJEINoIOPbP0c5ypHJH/CLljrTM0D9pkBT0AP3hHn6BVaTE8edta/H9Lf34Rgyx/vIT7F633vju8RO/QN2+TzAtBND4W/jXH/wCh5wmabgve0nMV8lW3LTKMNWFmh9Woe2jGevWmY9aUBmrQddt65DjxsyxGsR+G3c85//BGfRsjKHlE3vKCZx7qRIVGw9jVHyVXfzdjaPt6Rgq95zLKDbNq93/nN+Fin87jKlcRPf9KXRtrEDlbwdg6fvJLtQ8EkPd8RlkF75T6Pq3CrQtOL3AfTF4JREgAkSACEQPgbT+OXpZjHSOiF+k3VMWz9jR9kBq7lhfUvHItCewipA4vomu/7kWj//ydbyx5ReI/WAt/stPX0LXyFV8fuj38nNP3//xL/DikTex/Qdr8eKH32UqW9Zz5UCU1DJO4fDPYqhJi0beRc+WGCrfFG8bEhh9o8aIKj9dibrWFlQt34vR+0C8NYaabkNUT3XXYekze3HubzPo+nkMlT9bJ6OjFU+3oed4G9aJiG6sErvOG5HfxNXD2PajpTLSu3RlI/pUQPT6YVTFqrBmYxWqnn4Msad34VxiBn2/XIqK2GOoXF2HrutJVyY+aUHF8jbE7eHcRAIJIWLvz2DgpTVY+iMRFV+KdW+MGoLZFvUW4rTKLO9AcwxLf7YO61ZXYekjFag5NgOcP4jKH8ZQIdJ5KY6EyufmNVjT0Ij/tnQvRlW2rh/GGluepo6sQeznDsL67wKPpPBNjSAbLwQaP0oAiQG0xJai8mdVJq4aZsouf4kAESACRKBoEUjtn4u2GAXLOPErGPSuDNM/rmAK7SL6wz3UAqsIiePP0f6DtTJSHFv5exz6zPZF9MRNnN71Szz+hHHNvx646r6kDleWA1FSyni7CzWxOvSoiKuGybmXYoi1xiGiw49t7DKjpQnEW5ebw3/HcXj1cuwduYvRfWvkNeNC592Poy1WibZPhVoVok+I73EpVKfeXifTxN/6sO2HNegyh27f/agFFZt7IGS2FIc/P4hRKXaN+9s+BSDEqCnKtWxKgb58jyVL9VNye3RfJSpfihtDrO+P4+DPlmLXedOOFfXWo9Kj2Lt8OVr6zUj6p22I/VsXppCAEM11xw0VnpLPu33YZuF4F31bH8O248lIvMJB3ZuWSSl8DT+M7luuDZ0+h12PrMNhgZMQ88vbMGD6anRPJWLNmYdhp9nhASJABIgAEYgsAin9c2RzGd2MEb/o+kbkjP6Jln/oD/f+EFhFRxzf6ceLT/8Suz++iW8zDWW9cxk9v/8lnhSqJ4+/ciBKShnPtiEWa0M8DVsh8GKoefsiun5eASlOTVyt4b9SENag8deVWLpFiWe7iNXEHWAMHX57CkIkL3/lXNJTUqQb+UhGcMVpcb8xvDtxusVhTq4RpV73tgo7J5OUW1Ko16FH06lC9IvrhR0V9TYEvTmMfKYHNbFGDPzdSEu8HKh4SeRVvAyowkHz/YuFg7xMCOql2DsCJM62YXlahNhceE2IfKc/K4otRLo2dHqqC+seacO5+5AvKVKGsAvfSdHulCCPEQEiQASIQLEhkNI/F1vmI5Bf4hcBJ2TIAv2TAZwCnKI/3IMusIqOOHafb1+uLAeipJRRDg1OFY8SSDEPWcw5nhKibh26LO2ZHP4LMf82VoGaLTWo0CK6KcOCheg1xZ0+dFgJVMtpZ9vMubx6BFcEnpPiMDWiqu40orlLdaGtTolfTXQbhw0x3fKJ+BVRb/NiPSptm1dsDR2XLwNazBcJ4n5NxMJ4mdDYfw6Hf1aZTNfKixDWMdSJ4dkOf8m52wLvZCRfvhDY0iMXALPyYd4/012Ditaw5ns7ZJqHiAARIAJEwFcEUvpnX1Muj8SIX7T9TP9Eyz/0h3t/CKwojt3jVXRXplYGI1K5vLkPMyp6fHsAbSsfQ42Mxhpzkq3hwJOHrWHYSXGWGr1NiaiKIck/75LDpY05s4bwE/fGft1nDnUWC1WZw5BlpFdbCEzcL8WhIT71CLYCPnF+l1w87OBfzUnHcuXqg+gaSQD3z6HtkSoc/KtxtYjqVj4t5ksLEbrGGK6MBMbfFPkxhiiLqLYRKRb3iJcBpogW0V0VqbXnE4AQ70uXLsXy1rjjImAyAr28BX1qkTOxcvWRgxiY0uZuSzFvCnAxV7p5uTkP2hDX1krVfz+Htqcr0XbWYeVuBQx/iQARIAJEoKgQSO2fiyrrkcgs8YuEGxbMBP2zIDQFOUF/uIddYEVx7B6vorsyrTLcn8LAS3Wo/OFjqFxZicpntuHgJ1PGYlZiOa6Rg1j3wwosXVmFdT+rRMz8dJMeyZRDieVQZGOOsFpRevxQFaz5wHLOrLGQF+5Poa/ZWCSr8kdLse3IqCGU9QiuGMhs3Z/AuT1VqPjhUjS+b4pgDfm75w9j2zPi00hVqBSLhr3UY85ZNvJfIxb+WrkUS3/WhgEpTs30HlmKqtV1WPezWMpiXNbLAG0uMG73oO6HFXjsZwcxejV9/rOMmD/SgoH07Fk5nfpIfG7qMTz2tMjnGmx7I46Z+2rutrhsBj1bHkPsh5Woeq4Ga5bHkFyMqw4tLxmf2xL3thy3wvlW+twgAkSACBCB4kUgrX8u3qIUJOfEryCwuzZK/7iGKpQL6Q/3MAusKI7d41V0V7IyBOEysVBZJWq6KViDQJdpEgEiQATKAQH2z/l5mfjlh1/Qd9M/QSPsLX36wz1eAiuKY/d4Fd2VrAw+u+z8XlQ9vRRVrQPJoek+m2ByRIAIEAEiUPoIsH/Oz8fELz/8gr6b/gkaYW/p0x/u8RJYURy7x6vormRlKDqXMcNEgAgQASJQBgiwf87PycQvP/yCvpv+CRphb+nTH+7xElhRHLvHq+iuZGUoOpcxw0SACBABIlAGCLB/zs/JxC8//IK+m/4JGmFv6dMf7vESWFEcu8er6K5kZSg6lzHDRIAIEAEiUAYIsH/Oz8nELz/8gr6b/gkaYW/p0x/u8RJYURy7x6vormRlKDqXMcNEgAgQASJQBgiwf87PycQvP/yCvpv+CRphb+nTH+7xElhRHLvHq+iuZGUoOpcxw0SACBABIlAGCLB/zs/JxC8//IK+m/4JGmFv6dMf7vESWFEcu8er6K5kZSg6lzHDRIAIEAEiUAYIsH/Oz8nELz/8gr6b/gkaYW/p0x/u8RJY+S6ORaL8RwzIAXKAHCAHyAFygBwgB8gBcoAcIAeKiQO+i2P32pxXEgEiQASIABEgAkSACBABIkAEiAARKDwCQsRTHBfeD8wBESACRIAIEAEiQASIABEgAkSACBQQgUDFcTGFz5lXDvcgB8gBcoAcIAfIAXKAHCAHyAFyoHw4YNfhwveBRY5F4nNzc/xHDMgBcoAcIAfIAXKAHCAHyAFygBwgByLDAaFV7X8UxyRoZAjKFyl8kUQOkAPkADlADpAD5AA5QA6QA2FwgOKYQphCmBwgB8gBcoAcIAfIAXKAHCAHyIGy5wDFMStB2VeCMN5C0QbfdpID5AA5QA6QA+QAOUAOkAPR5gDFMcUxxTE5QA6QA+QAOUAOkAPkADlADpADZc8BimNWgrKvBHyDF+03ePQP/UMOkAPkADlADpAD5AA5EAYHKI4pjimOyQFygBwgB8gBciBHDkyPxTF4cYr45YhfGA+7tEFRRQ6QA245QHHMxpwdOjlADhSCA2MdWB+LISb+Ve3HsJaH4X0rjOOxGNZ3XAvOPyebLTuxhuO4beXhNo43mHmLxdB80r9O9fZQBxqffQqPmmV/9Mm1aOwY1mxnszWKQ1ursenAcHC4WDhky4uH81+9h9bqajS9M5mW76n3WlFdvR2HLntIL0sep8f6sX9HPZ5bV43q6mo8t7EB7X8ZxpS8bxgH66rR+t50Wl7sDw9XjzagelsnRrPYk/fNjKKzoRZ//NMfZHk6/5osz+RfGlBd3Y6TWjqDu2tRveUghm8cQ1O1kU+RV5nfulYc0/GYjKP75e2p5Xn3Iqa19GQept5Dqyxzqq2Ucv21E9urq9Gu83pwN2qrtyMtz+ta8d5UJrwmcaylGs/99j1Mzo2if18rDn6UHdeU/NjLYN+f6Ue7wGXdHzFoO2dwpxrVre+lY2G7dmGb0zj58nNoPeFzvl3bT/Jk4TzyGmJDDpAD4XCA4piNd9aHI1bGcCojcS4znHVxHFuGnYNm+b+OY+eypDANTRzHNqDzupmH653YoIS7n+L4ejfqHhZlW4QlzzeitWE9lpj7dV3potGxTpgis/2DYuOLIbBqX4untrlfnUR7bTXSjufRN02dbEdt9XNo+FMcV7+aw9zMNK6e3I36ddXYtC+OuUkhRutdifH+dvcvIoYP1KN6xzFMmuLzj6dNH83EsXujEL1NODapONaNhmoh0Kcwd/qPqK5uQOeYeW4qjt1bqo205uYwPXwQDeuqUf9qP0bN8oweb8emddVoODKq4SlEXi2qN9amCd1ULp2UYrPh6FXz3kkc2yHyV4vdcZXnQeyurUa9eAkj8dLyt5BvPOCamh/T5kLpDh/EJvnSwJYHkzviZUL9YR2HLOk52Bk+sClPge3dpicMHPLM+4k5OUAOBMEBimM2uNqDBStZEJWMaZJXjhxIEccxLGoZMOriyWYs0oSpJY6v9WFn7QpDTD7+FNY2dGB4ysB2oMUQ0+sbmrHhyUcRiz2Kp7Z0YPh2Fuz1yLEWpb7WsT4ZUVbieGoYnS0b8NTjhq1FT6zHzn4R1Z5E50ZxTBP4Slwv24n411oeTrcaZXumA5fMtvfSn9ZKW4vazPJna5PjIsJnEwnmPVND3WhvrEXtxlo893w9Wo+oSOkcJt9pQvXzTWht3Y76uudkJHX/oBoKO42L77ajQYiqTZtQ39qJQ+21qG7vx9xcXIokXYwLwWiJ2alhGdGs3bgJtc8/h/rWYxid0cpslWca77UmBZ/iRPy1WlTXtuPkVz7ZuX4MTWmi0cjP1MVBxC9OYVqIUTMKKXHZeigZGb58CPWWiDXytL2lFdvravHcugzlGz6IehV5tUVmZXRzS33y/NwcpJDeuBvxmTmMHq5Hde1uxC2s5jB6ZLsRaTaFde3LJ82odxLb0RMH0f2p9lJFckNE4I1Ia0pkWEt7bs4Qx9uVsBZ5X1eP+rpkNFnmeV0TjokXRifbF+aOEsS9+7HpeRHdfQ6b6hrQeVG8lLiK/n1N2LSxFpuefw61jfsxaNZZ5X83v9JHtbWoXVcN64XD3Bwkd7bUS+Gsjl/9YD+a6gSP7Rw3r9/WivbGetSL81u06PwH7aiuO5gygsVN3nhNko/EgliQA6XBAYrjlA6zNJzKykk/kgNFwAFLHC/DMhEpfrgRfbdvo+/FRVJoymNKsN4eQOuTQoA+hQ2vdmD/L1dIkbno+U5cm5uDEsexJzdgd8d+bJPXxpA1GqvE8bJlWCYE+ar9uDR3CftXGWJX5UEOqx7ciWXSfif6OhrxlLj+4W3onpzD7d5GKXCXtRtRUSWuV79xKfXl29fD2P9TUb5HsbalA50dzVgrxPbD69FxyZ3P5DBfm5CSfL/ciYZ1tWj/wBRLcr/aGioqhcTGVrw3ZgwdHX59kzVcWAohce6akYfJ07tRX10NKZ7GOtGgRJ/sL7QhtnIYcTVqX+7HpBDE5n79ny6mltvsZ6QI1AWIKSJl9NQnOzICWLsbg44C3SifzIeI8M7NYfDValS/fNLK77QY4q3yKPNUi6aj5vDlSWPIcvrQ8Gn0t1WjdvegkY4UjEpoXsTBLcIP76Fd4fhVvxz6bKTj/NJADrneeghD4qVGdQO61aiGhfrsmVEc2qZeWoyic1umaKop+qU4NvJe/6d+eY8hqI08qxcgEtMFuGNEvdvRPyMEvx59nTKi2A2HcHFa4G7ut/V7Hv4sXsZUt3aic4fJSYGB5M52dB4VUfdWvPfVHOSIgXUNOHTR4Lix34p+EW2fM6PjDQcRl9H7KbzXovlevACwDXtnP2LUF+JAHMiB8uIAxfFCHS2PWw9LbBTKq1Ggv0PytyWOm7HfnGPceLQTjUJ0Vu3HfhUN7rhmic9FL/aZc3OVgF2B/eeS4ri538i7EqdW1HmhGF/7awAAIABJREFU9kyJ43X7sV/OMV6B/Uf3Y4XIQ8N+7F9nRImNOceTuHThttUu9P1GO3e7D41ieLQU+Cpvq7H/ggOWlzpRt8S4V863jq1G60kt+rdQXs3jUijIiK6etk2c6de+KgTbVXQ2VCM5jNYUMjIdQwg1/EXPgxFZlNE4Lcoq64aKFF6ew/SJVhnxTBGiIgLX0ImrTuUQ50whY4kVU6RKkaXPKc3JjimA0vBJxUpEsI052+m4yJcI6n6HaKLEXxPTSUy0IclmZFYITYmRmFc8IzA1hnLLqLAl4A2hqs8hn/zUGEbdcHQU0t5CeGoYy+iqnB9slPXky9Vm5F8vu9o2xLN8+XFRRI3FvGLjmBghMC2HpStBbmDqzB0zwi3zZ4h8qxwiXbuoF1F53cda/hdud42XMWLYtPSNxN7IkxDvF0XUXUb+nXhszM83osqD+GNK5NnIrzUcW/jac94Unvxd2H/EhtiQA8XGAYpjV50TiV1sxGZ+ydnIc0ATxwMX9mO1EKTmPxFxVdFgIXCdxK46L4Srvi3K7XS9Ix6WOO7A8IlGbTj3IjSeGEaHLo4vdaNxlRiyHcOiJ1ZjtRmdVot1xduXybnEja/uNMqysVNGJlPsjnVivRTRq9F64hKuDXaYUe6n0Ho6KbxT7klpow2hoAsV41rjwV8f+iyOS2ElxLG5oJEaeqqEqRRHmgi17GpDi6WQUwJW5EXOjzUihVKsyGG0m7Cpzvy38bmFxbFMdxMODs9h6gMxLzi5CJc/dgyBp0eCrTJZOOrDt4Vg1UWtIZaVYJKRUCWUzfsFpiqiqtKW0eYUYWW8XGh6Jy6jsUaEWNk15vJaLyNkdDp1Ma5qa0i8vTyGn9WiXeJXpm0uwqVHtCWe+nBxq/yibTTSrX3tpIzuGuUxBOf2I4PobtSi4HN2UamuM+b4JvFQ5TPaXinWq59DreKF+N30XLoA/aoff9SuaRdzsPW8mlF4wV2Z5rZODAvuyKH4ZtRdcNy87rmNGhfrNskFzCTvJff06Qhmfs1FyaSvXbyESMmbnk9up/qNeBAPcqBoOUBxTPIWLXnZSVMAFzUHdHE8d80SorHYenSMJQWvEMdq2HJ65HitHI7shzi+9vUAmoVwFQL94WYMfJ3MU/PJSXRvFueWofnEJOa+nkT3NuNaJY7nzpkRZynwhbhOF7tKtMd+02e1O2rOcUzNuc7UJksBoIs5VQccxPGMIcLkCrxyQSNtMShd8MjhqamLU+lDi4X4saKBc3OQw7pNESGHJNvEY0ZOmiK99fhJuUCVLjL9siMFuxWVVfhov1KMmiJJCiZjSK6Rb10IpopAeV7HVPOTFFb6C4Q5I2JZ39iAWisvhiBt2NGUGm2X0XRdtGl5nTPFX2N3+osW6VOxurS5CJdttWtDQOtl09M1X5w0NqBBi+6KaHP9jiY5p90axq29KEnHSBtiL7mZLIfkyYLiPDUvGTkjX8aY3JVzqsWcenMhM3M+vHwpIP2aymM9XclpfTqCzoO5SflCQOe5fi+3PfhLqxfEjbiRA8XJAYpjNmTWQyorcXFWYvqtSP2WIo7nMHl0gyFMzYirErxyaLTLOcdKqCoRKu8d68SGx2N4dKMxPzmFL1rkWMxdNqK/MRhzh53FceNfLmFyLI7delRZtqNqOLUS1w5++XSnMVc59ihWb2n2vlp1yrBkPX1jWLUYziwXw5qZRL9YtdjclxE3NY9W5DVF8BgRtPrXh425oJNxHGxQQ3INQbfpdeOzUdNj76F1YzJyKocMr2tAp/rk0PRVxIf14dl6HsW2GbGsFSsq/xGDci5o8rgvdq73G3ls6UT8ujH3dPpyP/64dRNa37uKOYGhEklynulv8Z5YJGpmEvED4nNL6iWCIZRr297DVTl/2ZwzK4dIp5ZLDmFOGWptlFMIVCtCbJY99Zg5vF33jb1Pju83VqU+YK68LVavvh5HZ0utHE580RSMfzxt+wyRFM9GlD6F82b6Ms/VeoR4Dk7H9BclMh09AisFsWlDG1Egr5PDqmvRftKMBM9M4uKno57nG6fMUzejw5LXohxS4KoymvOktYXLJs/HjdW91eJd+ueedB5cFyuH1+OgWETMjj/3iQk5QA6UGQcojsvM4ez42PmTAxHhgE0cz90+LucbN/YaEdcUcSzaKRerVTuK4wsdWCsjwuvRaS44ZXHAJo6N6K8xj3lOi2bLdFOGVa/HWrloV+o3kC+9sVoKfLUwl2VHa2ev9e9G3U+XmEO4F2HJTzag+ai77xzLCKU9QqiElVhNu7Uezz1vrFbd8HK3tZp3yjxaIa7EolNKIM7NYWpwPxo2itV9N2FT42/RsDE5P3lKfALp+efwXF09tre2oul5/fvAUxg+0irPi+GztRvr0Xo4nh7l1MqvBJhchEs77qudybiBhfmNY2OYclwuGiYxVCJJLCC2oxbPPbcJ9Vsa0N66PbkYlykCd/+pFfWbNskVl+t3HMSg+hSTlnf7ol7qJYDAODkf2xTMcjiwqoNGdLpazgtXx9J/7d9sFuVp2tePq18Zi3CJb/wa32/W7v3K+K70Qt9yNvyg5hUb9xnHUr91bOdOyssFXRBfP4bfPl+N557fhP3m56CufrDb4NUmwY1aNOzux6hcnEvLp4Zjen0xI+fW6ATxIqdeDsuX18qXRcYQf7l/rR+7G8VK7Ya/aht3o/+v4qWBgbMaLi+u1aP9sowpkX+3+eN16T4jJsSEHCh2DlAcZ+yYSPBiJzjzTw6TA3O49Kf15krUAfFhcgDd1irZCyzEFdW29locg+eT0V5jhV/zEz5RzXPE8qUPNWd9C6iOBeXzy4ewXR/9EJQdpsvoIzlADhQJByiOi8RRfOAosgcO8oqdQFQ48PUldDc0otPlp5JyamvM+caPPrkWjV22zzdFBYcF8jF98Zj5bWSxYFItare0onPItijSAvfmhFUppiWHEGsRzFIsYymWSX567Dk0qO89l2IZWSb2xeQAOeCRAxTHHgHjwxBFKjlADpAD5AA5oHNgCheHr3qeT0sMdQwLsT2Nq8MX04ek87mIYoIcIAfKmAMUx2XsfD6YFOJhhDbJO3KAHCAHyAFygBwgB8gBciCKHKA4pjjm2zFygBwgB8gBcoAcIAfIAXKAHCAHyp4DFMesBGVfCaL41op54ttUcoAcIAfIAXKAHCAHyAFyIFwOUBxTHFMckwPkADlADpAD5AA5QA6QA+QAOVD2HKA4ZiUo+0rAN3LhvpEj3sSbHCAHyAFygBwgB8gBciCKHCiIOBZG+Y8YkAPkADlADpAD5AA5QA6QA+QAOUAORIkDsP2JvCW++2fO/x6y3ywSVH9iO4pvCZgnvr0iB8gBOweCaq+CSteef7Eflq2w7Kgyhmmv1GyVWnkKwQll0+tvmNjreQvLblh29LKJbdoNp/8uJ5zLqaz2+pRtv1DYZMuXX+dF+ex/4phd33rZpzjmUG2+ACEHSoIDQXUAQaXr1DGEZSssO6qMYdorNVulVp5CcELZ9PobJvZ63sKyG5YdvWxim3Ypju2cyHe/3DjlBa9CYeMlj/lcK8pn/xPHvIhh+7UUxxRGJSGM8qlYvDecjjponIPqAIJK1wmPsGyFZUeVMUx7pWar1MpTCE4om15/w8Rez1tYdsOyo5dNbNNuOH1uOeFcTmW116ds+4XCJlu+/Dovymf/E8fsgtfLPsUxxTHFMTlQEhwIqgMIKl2njiEsW2HZUWUM016p2Sq18hSCE8qm198wsdfzFpbdsOzoZRPbtEtxbOdEvvvlxikveBUKGy95zOdaUT77nzjmRQzbr6U4pjAqCWGUT8XiveF01EHjHFQHEFS6TniEZSssO6qMYdorNVulVp5CcELZ9PobJvZ63sKyG5YdvWxim3bD6XPLCedyKqu9PmXbLxQ22fLl13lRPvufOGYXvF72KY4pjimOyYGS4EBQHUBQ6Tp1DGHZCsuOKmOY9krNVqmVpxCcUDa9/oaJvZ63sOyGZUcvm9imXYpjOyfy3S83TnnBq1DYeMljPteK8tn/xDEvYth+LcUxhVFJCKN8KhbvDaejDhrnoDqAoNJ1wiMsW2HZUWUM016p2Sq18hSCE8qm198wsdfzFpbdsOzoZRPbtBtOn1tOOJdTWe31Kdt+obDJli+/zovy2f/EMbvg9bJPcUxxTHFMDpQEBzx3AJN9aH4yhlgshuaTCz+seE53bg7XTuxG3bNP4dFYDLGHl2D1lt3ou7awDdVJeLY1GUdnywaseGKRLMeiJ1ZgQ3sfrn2d2ZZnO3oduT2AVhO3WGw9OsYy2xJl82pvoMXwi/BNyr91Hbim58Vh26stif21PuzeshpLHhb2FmHJT+uwu/9a1nrhxdaCZcqCoRcbikfX+ndiw0+WYJHEbxGW/GQDdvpcHmnr62voa9+Apx43/PTokxvQfHQYtx38ovKmfr2Wa/LTTjTXrkj66CfCVhyTWbiu7M1d6EZrWyta/3Ipq1/VPV7yeOlP6w28NY5e69+Nup8afggEG6c27OtJ9LU8ZdSbloGMZfVSvrkLHVgv64dZ521tTyDlEzzKYtdtmyd86qW8Tv6UvBjrNHEQnG/GgM9cT7V7DR3rbG2gahOz+NaP8t4eEnXO7Mdij+Kp2mZ0Dt3OyKm87J5sTm3vVVljMazvyNwe5+XbqWF0NKy12rHY409hbUMHhqf879skh3TOqDJr7UbaNfr1OWx7wSbF9lgH1ms+SOmLs3B/8uR+2d7uPzmZlS9zCgMXnE7Jn4mFKJ/9TxzzIobt11Ic50A0J+fwWPZGhBgRoyA54KkDmBqwhLHf4vhaV53xkPzwEqxvaEXjs48aHf6TrRi4nZkDnsowN4zdPzHF3PONaP1NHVbIh9cYntoVz9ghebOTmuf4LvPBW3aawYrjZaJcQtCof28MYDJLm+25bFN9aFTi7tlGtDaslwJs9b7hjBgKLnuxdekvWjlEeTavMHjxcCP6MvDCiw1Zvz7diaekbx7F6i3NaN6y2nhJE3sKOz9N9aW9PnqzdRvHG4yXMrHH16LxN3VYLXFchPUd2QWoF1uX3tpglmERlghOmD4SdffRjZ245EYg5/AA5jaPlzpMYSxwNx9yb59sNvzw8ArU/aYRaxU2b2V+yHfNK8c27DYGlDAWecnysOm2fHOXlDAW7c16dIzEsVO2PTE8uqoOzVbbswjr/SqfqOd2u2O5t3mucZ2bg5M/jboyie7NJudlHfNXHKfbTYrj1Vts7YeLlzxu/Ztudw5z5/ZjrfmycMVm1Y4sQmOvf+I4za56gaXa+9/XYYXEeREaT2S2m3tZkz5d9MR6NLY1Yr162by52//+xt5/qXYpiuJ4cgD7TV/UrTJe0iT75G5cspdF27/WsV72b9leash6pTDI0l4ZdTC9DxO+t/+JY3bB62Wf4lhz5kLA83g6GYkJMYkaB9x2jnO2h0q/xfHc3G3EOzowMGly5Oth7K4yRGzr6cy8cV0G1W6d68Z+LSJ4+9g2Q3Bl6Wg927Hs7cfqWAyLnl9vvlEOVhy76lhV3sxfr2WL71omMVvUcDwZ8bx2CZcyCFbFfa+21H2CI30vGg/Zy9r9fZFx7S3joST2mz5L3Pf9xniwySZcPJVnsht18sF1Azqvm7wWYkYce7gZA1kEq2tbt/vQKB/Sn0JzvxaFsKKm5oOz/QFLRT1EXVDnZH4FFv6JmpQHfJG+rHtK1Ghi4pxRd3zBxrENswljkZcsD5uufJAiUAV2Zp2/dBz7jyVfglhtz/Od/ozuWMhujm2eqHtuyuvsT4Pft3sb5YvPp55fb4q2sHiUeXRTsl1J7V9yL68QjEabob8kvH3hUlax6AfOqjy3Txh4x5btRNyH9sTZtwNole3LWnRcSrZja2U71pp1ZIAbjFV5HH9V25TSbogXanVYLUS6GHnW0ucKd8f0XfJ+oXvVcTXySe+Tbw91oNEcIaeP4FDC2Io0r+vAaMooBPGSc2dyNJ3CIEt7pfJi/xU+sP+JY17EsP1aimPbg5UddO6nNrbEg3hElQPuOynxELkC6//Uh/3mkDW/h1WnYHR7AM3LxIPGCuw/l5k/7svgkM7XtzH8hiGMnno1c9QzJztfXzKH+K1Hx6U+NEuhEaw4XvvqcfR17EZr2250nBh2NYTWW9mGsV++uFiGnScvYUDZOnkJt7M8jAkfe7Ol+ex6JzZI/FZj/wXtuEN/5NnG9eNoFMPeRcTy1U50vmqOKHiyGQNZhgl6snWt03xBsg3HVbpfx7H7aX+5LgSJfMhyeOFjPYSJFxv2ByxdHF8fRt9rG4x0Nu5Gn+CSA9Yp9datf4WI+0kz+v5iDgkV+bx9HI3Sv404br1kUVzzox1wbsMEBiue70Cf2Q74Io5FvX9+BZr7uzPW+RRfZMHWFc/c2PXQ5rmur07+FOWZ6jPa8WXN6BtSw039E8cySm7n0Zx6yRJD41txdL4hosf70TmYffRBXuW1+FuHznPDOG7aPX5OezmVwceu/LsQzla6k+jcaAr0N5IvYex1VO3nY3P4jdXypcejzzaj42gHmuVoL/9HwKi8pvyqditFHMew6KfN6OhoxWop3JdlHfWTkqaFodG3uMLGdo89vTRxrKYXPLwazR0d2GmOkHuqbQBfXhpA52+MkVErftOJvtOX8HH7MsSe3IDdR/vQ8aIx+mzRNjMyrzCgOM78MGB3CveJFzlADmTjgPcOIPngEZg4/voajquOILAhWgPmQ6t4kHgK61/ryyoivWM1BxGRFHNYjUiCshmsOLbePEuhISLWPkWlrAcBVY5FWCQfQoyHMWFXDNcNZH6zGLb5xmpTqHVmFWm5+Gry9E4Z4bfwW1KHziwiXNQvb7aS9cc+HFHYzVSnvNiyRJfTg5N6qBIPlmpbXaeLY+Fv+3mLAwu3rZ7wUOmLvCjbKRHqJF5+YTOniSc9zYyYaeX2VL45VVfS6/ztof3mPNzsQ/e9+N5o853sqmPu2zzPdnV/zt3GQJt4oDdHAjj6NwAeaf616rLZFgoRkm1uvyf/6uW1ymdvFxdhRXuAdjVuzl0wR1rEtJEp+nnbds5lFel8fQmdW5YYbbKJ7+q2gaz9qGdO2fIs+a3jbvk7GcVWolSv30a9WJhv9vOesHHK49wcVD5U5Hh4nyF+V79hvriwRvgYLwRVG6Sun7t+CZesl6jq5br5cklhoNruBfJgL5faF+Wz/4lj9miwl31Gjj06QTmDv+4rJrEiVmFwwHsH4O5h1Xu6pr9Fh7vNnJ/rImonMMrN1iV0y3lBzaj7iRiq+yg2vJX5TbtnO5Pd2CbF4wrU/V5EL+pM8bUM619sRXcW4eXV3uTQcXS8uhudg2akYqwTdS7foHuzFcdOGdVfhrq3ho1ocWC2FC+Uzezz6HLhxO3TrcZc1ye3oWPwGi6dMKMPD69HZ5bF07xhN4c5MSdNzWkWc+xbdqPxp0KwZI90uLXlS+RY9PM5PIC5zaNs31T6oUSOVZ/i3IapB1NfIsfWM5ISpKniWL6IkXXTXaTNO6ed7Hpv8zzb1f05tNuoU0vWolG0tS+uxzIpolajrm1/cgqNhZXyj/GbM4/mbuPS6U7sb9uPvkvGnNvki686dKupO37btaZMrMZOc0GlUOxq5YiLSKOYwvNiX9aXAHn5du4aOp8X/eYirG7rw6WxODrMftv3FxBa+WSbIfZ1nlniOFnHlCiNmjhOz5dqi4y8qzZIieNLXY3WmhRLfrraXBeD4tia+2QRwokkPEacyAFyIEcOeHoAkTZUY545yuU93TnMXTuOZilUxfConVkfnlS76NnWtTjiuuC51AE3c6U827EiCcnIqh7JyNZxe7b39TXEP9WGDgY2bzs593fbMXPBl8BsGQ/KXubReX7o097wr/1T8gWJNefYxxVfFWdvW8OG5+TQZrkYWBTmHKu6IIcrag+hHqITnnjr+JAb0Jxjq410bsPUg2mw4lhM41ALpT2FbUeTfFPcWOjXE672iHWObZ7nuqT7U22bUUW97bPmYFs+SRXGedkVaU5dQvyCthjV1HFsk/lYj84sX0DwhLMqo6wvl7BfLsC0AruHzPKEYte0ZUUhl2HnYDqeTrzKuaxW39aMPjWVRrUdKSM/nPPhya4TR1JwV/U5+uJ44cixgaNqg6Q4Vi9bxJQE8ULnerfJYYpjPvA7VQoeIy/IAd844L2TUh2Rz+JYDAezhuiqSKux0qivEdbbasVY8YkNsaqz+1U2vWNlfzBwiubYr0nue7OXXFhIroTb1oy6VWrFb38WZkl5uFKrO6etLh6ArTlv8+g8P1jPzWHStlp6cKtVG2J4mYlba8Naa0XpbAt/eS2Xq9WqP91pRPMeXo3Wjg40/9RcVViJ49OtxiryTzZi99Hsq557zWNqBGgOVgQ/qNWqZd/h3IapB9PgxPEk+n6TXLV+iVjlXa0w7PuK8lpbY62S7b3Ny9ef4n7rnyao/P6UUwqPbl9Cx0YjqilXaffQxudbXqsdeXw16n6jRiXFsMjv6UEp4tDAePKouT7Aqv0ZV0S2/OF11JVu8+s4dpqfJjT6G/f9qGeMdQ6pbT0vRRQ5nssw51gM91cLQy56vhX7j+41Fm9c1ojuC5O4NrjbXK+C4jjZqChC8JeYkAPkgI8c8CbARCfs/GCpd7g5dX6qs3OIMvgeYR0T3+dNfp9RXzHSXg593ztW2oOh9Jn2wKpHrhfwp2d7tm+oyu9Obsk+fDEnfwlB+WkHGs3v0RrfpQ7Ilsd5dLmV5zaGjzZjw5PmCwXxfdJn/f9us8hb6ndQ3X8fOpdyZf/O8TV0Nxjfqpb14JfmZ2CUOBbTHDYb3xxe9ERrxs9nifx5zqOq98qeeEAM+jvHC7RhwYvjZNuZGkVVq3Xb24vUfW/tga2tybHN88OfihdzYYljwUOn8rYcd/X5Mk84O/H3xM5kO/L4U9gQil0VtY5hw1F3C4Dl7duU79zHINuPls4CfOdY1avoR44F5gutVi3rydQAdpovtR99vhMf6cOqn19rTsuiOKYIWOCh0WpseZ4cIQfy4oCnBwEPWAeVrlPdD8tWWHZUGcO0V2q2Sq08heCEsun1N0zs9byFZTcsO3rZxDbtpr4ssOPj13454VxOZfXKj0Jh4zWfuV4vymf/E8e8LMBlv5YLcnl4SM7VcbwvnI6AOJc3zkF1AEGl68TXsGyFZUeVMUx7pWar1MpTCE4om15/w8Rez1tYdsOyo5dNbNNuOH11OeFcTmW116ds+4XCJlu+/Dovymf/E8fsgtfLPsUxxXFe0Tq/yM10wuksSxnnoDqAoNJ18kVYtsKyo8oYpr1Ss1Vq5SkEJ5RNr79hYq/nLSy7YdnRyya2aTec/r6ccC6nstrrU7b9QmGTLV9+nRfls/+JY17EsP1aimOKY4pjcqAkOBBUBxBUuk4dQ1i2wrKjyhimvVKzVWrlKQQnlE2vv2Fir+ctLLth2dHLJrZpl+LYzol898uNU17wKhQ2XvKYz7WifPY/ccwueL3sUxxTGJWEMMqnYvHecDrqoHEOqgMIKl0nPMKyFZYdVcYw7ZWarVIrTyE4oWx6/Q0Tez1vYdkNy45eNrFNu+H0ueWEczmV1V6fsu0XCpts+fLrvCif/U8c8yKG7ddSHFMcUxyTAyXBgaA6gKDSdeoYwrIVlh1VxjDtlZqtUitPITihbHr9DRN7PW9h2Q3Ljl42sU27FMd2TuS7X26c8oJXobDxksd8rhXls/+JY3bB62Wf4pjCqCSEUT4Vi/eG01EHjXNQHUBQ6TrhEZatsOyoMoZpr9RslVp5CsEJZdPrb5jY63kLy25YdvSyiW3aDafPLSecy6ms9vqUbb9Q2GTLl1/nRfnsf+KYFzFsv5bimOKY4pgcKAkOBNUBBJWuU8cQlq2w7Kgyhmmv1GyVWnkKwQll0+tvmNjreQvLblh29LKJbdqlOLZzIt/9cuOUF7wKhY2XPOZzrSif/U8cswteL/tZxbEwwH/EgBwgB8gBcoAcIAfIAXKAHCAHyAFyIEocCF0c2w1ynwgQASIQRQREQx3EX1DpOuVV2rpzAQj4X5hlEuUM015YGAofhVEuYeP6/3czlH9hlEfxPkxbyqbXX5nHgOuiU10PC5uw7NhxL6TdsOqSbqeQ5bVjH8Z+IcpbCJsCy0LZ9eLHYsijl/LYr3UqnzjmJVJsvzZr5NieCe4TASJABKKIgFMD6Uc+g0rXKW/SVggP42GWSZQzTHthYUhx7MRg98fC5IT7XKVeGSaXdJEcFjZh2UlFNdz2QLctyquL1rC2yxFnHfcwtssNYy+YFgobL3nM51qn8oljdsHrZZ/iOB+P8F4iQAQig4BTA+lH5oJK1ylv0hbFsRM0ro+FhSHFsWuXOF4YZr1yzICLg2FyieLYhUPyvET4MyxBrNspFNfLyW45ldVrNSgUNl7zmev1TuUTx7yIYfu1FMe5eoP3EQEiECkEnBpIPzIYVLpOeZO2KI6doHF9LCwMKY5du8TxwjDrlWMGXBwMk0sUxy4ckuclwp+6aA1ru1BcLye75VRWr9WgUNh4zWeu1zuVTxyzC14v+xTHuXqD9xEBIhApBJwaSD8yGFS6TnmTtiiOnaBxfSwsDCmOXbvE8cIw65VjBlwcDJNLFMcuHJLnJcKfYQli3U6huF5OdsuprF6rQaGw8ZrPXK93Kp845kUM268NThzPfYH4tb/lWtaU+xI3x3Hu5r2UY2k7PtpLSzuyB+5h6vI4pv4R2QwyY0QgNAScGkg/jAeVrlPepC2KYydoXB8LC0OKY9cucbwwzHrlmAEXB8PkEsWxC4fkeYnwpy5aw9ouFNfLyW45ldVrNSgUNl7zmev1TuUTx+yC18u+S3H8AOc6ehBrG8aMlfsZdLX1oKLjqnUED66ibXsPavpnMN7di1jTZxgHMNPfb90r09HvMe/Wr0kmKLa+Qd9rPagYgMy1AAAgAElEQVR47TLupp5I2dPtpZzwaefu5SHs6h3PmAefTGVJ5iratvagbQTA3cto3N6Dxk++yXJPsKel77b2YE3PVzZD3yJ+oAcxlV/bWe4SAT8RcGogF0x/qgs1sRhiP+/S2jTnqz2layWRQLx1OWKxGNrOWgezbkhbXsXx6C6jLOt3Ycblvd7KdA5tAiv7v5fOZS2PusCLvcTVHrRtrsRj0t5jqNy8F/Fkx6OSXPDXPYYD6FrvUK7AcARwfwpdPxc2a9B1e8EipJwQ5fH8EP/NWbz2nLDzb3jtuvuVrr34ycpkDmUS9+ZkSxpNYPx4G+qefszg5A8rUbcnjpn7wEx3TTpPBY88cNUql8qjyzqli1u5nUO9VGnkhE0OfsjFTr71Mz/fA/DQduu+VHY91aVvRvCXPZtQ9V8XSV4t+q//A9vfOoMxj6vHe8c5/zZXldeOQeb9hetW5vtSz3ovr7o/t35T3J27zfw5pXLv7dcl1jnUa3s+8sLGnph9/7b5LGV/Poi1QTwhJK4eRs0jMdR0e+jE7Tay7DuVTxzzIobt17oUx0Dis1OIbf0QfUqhJi6jZWsPYo1xjKqMX4lj+dYTODypDhi/uvD1Lo5T0yrUnl4G3/Pw4Fvc/fu3LpPVxLHLO4K+TInj2O+GMKUbS4yhZTvFsQ4Jt4NDwKmBdLY2g56NFVi+fHlg4jhxfhcqly/H8sDF8QB6nl+E5cueQCwwUWc8qHkR+XbcXfsmMYq9KyvReHwcifuiZ51CX/NyxLb0uH4xKW25EjSGOK45NJDzp7Ncl8sEZOZYDSokL4IVx2ff/jcs+m8/xo9CEMe5lEnA4RU7xanEyF5UPd2InusJeSgx1YeW5THUHVcPJ+pKAH/rQV2sAi2fGNdqZ1xtuueS/fNrudXLfMRxLn7w7AMf6qcA3rNdy1ve2m7rNnND2PUijs++swmLf/YHHJ8yXjBd/GwXno39GL//zP0LJ2HPe3nzb3NzwdlT3bKDq+17L69xc679Zi5lTWY3f04l03K/5RbrXOq1PRe5+sOejrv9u+jZEkPFb+OYP7sLVY9UoKKUxTHujmCbiACee2DgMzKIipYTqNrajy4zYChFkimWdTGpb+cijtU9dwc+RKxlSEajlZNG/9yL2K4LuKFFp6W9llPY9Xo/1rT04rGGE2j5RL21uIfRnlNY86seVLacQN3RQdSpyOaDafS9fgKVTb2oaurF0pcGMXDzO8x8fApVDT2Ibe9FVcsp9Imk/vEFusxrxfV1R69ixoQms32Vc+13ehg1KVF57Vzapi6OtW2RxtYT2PanU6iRZe7HwaFxdL3eL/P+WNMp9HxlZFDi2XYaba+cQNWverDm9Qs4NxRHnbhvey/WHL2KxIMJ7G3sQd2AFpW+cwF1W3ux969mQc28GeUVXEg9J/31uxNYo/AV11u4GThv6/kC8rHlr+LFyofouZMssLxf8EmYm7uKvS/1orK5F5VNJ9D2mRqyb2BQ1xFHTYMRUU/89TPUNfWisqUXSxtOYFvPOO6mZjlphFslg4DbDuDu+9tQ8fRe9L1dE4w4vj+KvU9XYNv7PTLi6kVUyjK4EnbGw/jd7v+Jiqd2oO/NNaUhjp3YeLYNMfMttNNp+zH3GIYsjv/Wh22PVGLv++JNe4DieKoTGx5+Er9/5w08G7Q4zrFMwmdu66vdv077515yjg5PHVmD2M8Op760dUpggWPuuZQqjnOtlzmL4xz94IsPPNZPAXWudr223Xa3CrtexHH6tSNyRMazb414Ssd7eQsjju14if2F6pbTteqY9/KKUTW595vCbk42xQBMj88DqozqN1e76n79Nw3rHOu1nqbY9jOP9rTT9icPY01sjQySTh1rwd6z43K0VMlGjgFjGPXyP09ILIQoXf7nMfT9ew+2fSwE1DdyWw2z1gWxvq2Erh1Q/Rr7OeseKdB7sfeKeYUp4IR9/X65vb0fXTe/A/AAU+/3WxHuu5+cQoU4J4XiA8x8dhqVpni7+7EQ359hXAqpB7h7eRh9k4aq0tMXWPS83IPKjquG6PrnV+gS+2+NS6GXyb69bHLfN3Hcg5r3xZuKBxg92ouYhcE36NnVA+U7iWfTIOJCMUrBq5XFFKlihMBUzwlrOLzIp9y3R4etYfNDOHygBxUHxgyxi69w+HdiqPVQchi4yRGBmxTE//wCB3+n+GNcL4bkG3/q/q8A4ecmMVx/2jh19zJatgseCN8Y4rji5WGMJ8S+Ieob4+Yc9X9+hYH+q66jTqZx/hQhAq46gL/H0bZ8OdrOJowhmAEMq56yRLf3BxxZBrfi+NZhtC17Am0DQ5g5FLw4XrN5G9b8qAKxWI5DnXPhlBk5rnzlnNmuZE/EPYaGOF7+/P9E3VOPIBZbhKU/3YKu4SHXkWRXnJNZNoYLLn/pHBJyGFpQ4ngCf/l/f4wf/b4fY9eDFse5l0lA4h67zD43IseV2HXeFh0WD9sLRZQzJ2mddc8lTRznUS9zE8e5+yFvH+RQP3P2fQ5tt+VIc0OUN13wuo8Cy8jxw/+GAx6mKuQTOc6nzc0ZZw20BeuWdo3TZi68yqffzLmsPnHKCQOvx9Kxzr1e223n4g97Gm73R/fYR3rNlLo4BsaPnUCsdRhTuInDLUYUWQrP1y8jIeYbb+1By2fG8GBdTOrbltC1Ia1fYztlzHeW85SNOazLjxoCHULIbT+NeCJ1XnNaWiODiG0dxDl8i4HXkyLRsJOMviaGTkvhvHfkKyT+mZqLlDQnh1Bli3LKvGw9hQFbXmQqlv3UNKc+iWPXW3HsOtCP5Y39aBHbb8XR92Xqdal7yfwqYSjnH8vIcT+6TP2Ykl/x9k/MGTfneuvbKWkIQ3o6UjifwOGb4oQhVlMiyWbGlK0pPfprbWv5lWlrQ/PFqEkxXN+MmhuRZnNo9s0hrFEYi1EK+vB9GFw0XsRo6cv8GPmsPDCC8Tm3Q9XNgvCnqBHI3gEkcO6VSlQ0DxgvscT8RL/F8e0e1DyyBoevCyiDFMdDOPeH5aj49ZtI3LkQsDieQtfmdWjpHsVdOdR5HF0bK1xhpwiV3TfqSvNXm8dUtbUL4zbdY7s6ZVfacvWC4QziratR9/JhTE1fAGbPIP7b5Ygt24ZzYt9FGm7LJYcLPtKCgb8DCFAcj51pwf/58P+Do1/fxPWAxXE+ZRIOc4tdinO1neT84ips6zZeTGunjYjQIy3y+UA/7mXbPZcUX/Krl4pzXrDJxw9e7KTglkf9FOl4t5tb252SZ9NuLuL4+O/NtQn+5X9gx4feosa5ieP829zccDYQy1a37Lja9z37N89+8/9v74p/4ziuc/+n+8UHVI1QAQIMlEAMsy1EwICItCyjxnTUmmghKgFNCCZohLjKASPYCWWrrAQTcg0qtXqSKhKyTUfu2bVEO4JPjkzFTC6IBNZGGCgpbQmveLM7e7Nzc3fzZm5nj7ePALEzczPve++bt7P7dmZn3WztnU/p9lPy7bj2Oa91fHJ/6AJs82KmW3+NpQDBMYh3iq/B6q9xiXUc5GDZ8euwocw4Io8yYMJ5QDWdDsyajKt1mqVRKtVGBkqPok3Cus1UCwlJcBrNfjdnJ/FXNbj6CrY//ACmKpdh/7EqHDxZg9oXhpnjRJ6iqRJUtthiqq80FQFpT5ZV9zg4BuVhhPIgQlUd00175Wzvr8RGXNEsssKv4CFazj6CS/Lx/wS+k4wPLjBSxneUL8Pi7a/EzLechRbyxZL2uA22w2XugjNFvlRs51dQPXctqvP9qzC3Fi/dlr/zcSAZ6HoBuL0Iw/umYDVekS8uSj0Njndg9VgZhk/LXRgyDI7/53kY/tO/h9XPo5vybGeODe5ydxlGShNQlQs9DFXUoq59o1ZW0w93oH52AspHq103TpPNBJZFYCsDkdTx/lmYKz0GCz+TwU7no5VdyXLB+J3YrILj363DD554DL775i+i2bEsg2NPm7CvrLiTndrp+GUdlp4uw8RF1RkbsHy4BEM/ludiJwHtfyP7kud5KX3RmhvPfrDGaUeRw/mJosi4jmO3rjbiugTHss2nv3gdjv/FN+H5//6cJIdsr6445oljrhPPOq7x3NIrteZp9vpfN51s7aFPtTLgUKJy7Xle6+i0/tBb2+fFayxDi1DHh+jJXxGC43g36slT15LZvmiH6qsw85PmjtTISTNgSqdTgW5CXrqOUiySqTbxUurKB/HS2vj913Z4QkASnHaeOU7hfr0Nq69ehhLOimv2gGnmGIP2Y+9C7ZHBlgQ/hdDMYGBtGxzHM/RitlgN7JXgHAWrfGBe5VBNpx8OaDPHGK+K2fRrMPNSFZIZ+6bmIqViRe8JX4ah5P1jJXgVvEWz65qIOBsF4+WX3oEpESRHDybE7LL2rnmzvSK/WRinHsHOZx+Id7H1TeJaqnLBnmeg2wVAvM/TsqMizghEuyq2I6Cb3KSdMpui7+xs+76NwLII7DZeiGcyWuyZgg2L9tY2SeN2talb4o0aGU/i4tEhmJRBRtfjfW0JdRbBsXgn09xfNu+jI3fy5rzj8foJ807NpRI8d91u6ah1P3nahN1qjaX6Qpt0y4OuW4swFL/31qaJVbHQ0eJ8kn7me15KOdbcePaDNU4ntojnJ4qi4rqO3braiNvxHLLYhVrMIv9gjSSHaq/Q23PMdeFZ5wvzLeeWqZJWRrK3B9dNhCdhynepW66f3e8HNFPJuHp7NZ9w7XleqzIxTeVGb2+Vx4B+qASj51Pb8qIHDf6yaoiXJeOneUYuirW2YC5LB2dq8JQOzJqUq3WapVFKb4PvO5e/X00ttVXbq2khQQlO8b3idu8c796qwdya/BzRI9j8j6vp4BiXlH/9f7D7yOKdYzXYVfB120R++xbMnL7VZmbkK6hfuAaLH+J73V+J96fLx9+Jdw1XAsOMgmPxvu8Mzu4q73prRqT4lruYJ+8mKzoq72pHt9o4U38T1uONwoRYsQJB2wV9dxMW1HeOH/0e6usfQ11831mVj69b34fqq7XofWoU+MdPYMawg7pmAmcHgAHqBSC5EHWxnSq3KS7DmWPthj3TmePtaCOpubca8Q7S0bLq8rFV63f5rTncWYeZAyNQkVjxzFTpSf1pdJNlPSWwNH5k0JE63n8TFv/qMZh45U3Y+V9lWfUTz0Md8xYyrO1SlSQGE4jhdEOf5cyxag+miTZhEyfucAOdt2Zg/6EKrDfiBzZixqWkrNjYhdoLZdIO57o5Mm/tS218hXpeSp9z5YbaD2ScHpyfPn0v+8V27Jb15RHtpZxL77zyl/Bn//gyrMW7VUczx8rqDItgGvHIPPdgzHXhufu5JZnsfCTbmxJHv2662JqCdHwI4INL4tphfFXt8+sPVVL79O57c1AuTUJV7pWbVC1EcAwgNq3SAiVTmRowqWk90JX8iTr4aSj1Pw4wW9qI91HT39VVMdS0kJ8KTv8ggs1h027VuCPyAu5wLHerbi6rhvsfw9R0FfafuApLuCFYsusy7p5s2K2aEhxLEozHR7C9Ee3EjNyUp9dgcUN6nxIYZhUcA0SbeyXBbquSab6j2d/m0nVFR2y6swnLL12NOJ6+DKMvfZAsXY8kfw6L0+m+FeW/+QQqJy/DwRNXYXj6Mkyc+xg2TcEx/AE2196F0enmbtW8rLq1zwaxhHoBsL3Bosptcku/yAusNjfa8sbZdKTehFNt2vloGaYOx9+VLe2H0e8tQx3fn7X8o+Dt3Na/c4yBkCWQDLpsObx1Firf+XMoixmEx+Dgd6ZgvW4XGGM/UOxKLCDe6CAG5YY+qTugwTHgAxP9O8cn16Ehl/J5fr4p6SeqLxl8jnpeynPbya9QcQffUu21Sfuen4jhbF+soO3YrdtDPpcM3zn+7tn1AN85BvAdc5147nZu6YS2yfv1L/266WSrpruPT2mi7LIUronnta6AX3/o0kz55uebtDVmRZk5NpGyx8r++Fuo//r3TaV/+QGM4syinAhv/sIpZMD0SacsmUk28soShGUPIgNZXQCykmvqA4FluMmWN829Ooa0Ce0MiReKQ+fg2NTxHcrQniTgtZypcq0fvJ862N0PP4X0JfXcDtUPoXD0vswT1/Xc8GmXp7069yHyedibByZymRcupR/3go4Ue/S6JvuwbPerr53//0RvrIKoaV2ZPZuPZy7xW7kj+M3c2WvKTOyetSoTxbfXrokZ3tFXb0Ejev03E5xI6DasiFn7qzD3s3jL7QzRWPTgMZDVeJWVXFMPCCwOjk3UWJeF4pCDY+suMVYMeV4ZFbAoDOlLHBxbdIhnFexPnyDXtW1evl4k3CLZSj0N8uKGqqdrfZN9WKbHt5R88YJjV/a5HTPADPQ1A6YBshcKZyXXpJvA4uDYRI11WSgOOTi27hJjxZDnlVEBi8KQvsTBsUWHeFbB/nQNcH3a5eXrRcItkq3U0yAvbqh6utY32YdllGBYr8vBsWtvcDtmgBnoKwZMA2QvFMxKrkk3gcXBsYka67JQHHJwbN0lxoohzyujAhaFIX2Jg2OLDvGsgv3pE+S6ts3L14uEWyRbqadBXtxQ9XStb7IPy/SAl5Ln4Ni1N7gdM8AM9BUDpgGyFwpmJdekm8Di4NhEjXVZKA45OLbuEmPFkOeVUQGLwpC+xMGxRYd4VsH+dA1wfdrl5etFwi2SrdTTIC9uqHq61jfZh2WUYFivy8Gxa29wO2aAGegrBkwDZC8UzEquSTeBxcGxiRrrslAccnBs3SXGiiHPK6MCFoUhfYmDY4sO8ayC/ekT5Lq2zcvXi4RbJFupp0Fe3FD1dK1vsg/L9ICXkufg2LU3uB0zwAz0FQOmAbIXCmYl16SbwOLg2ESNdVkoDjk4tu4SY8WQ55VRAYvCkL7EwbFFh3hWwf50DXB92uXl60XCLZKt1NMgL26oerrWN9mHZZRgWK/LwbFrb3A7ZoAZ6CsGTANkLxTMSq5JN4HFwbGJGuuyUBxycGzdJcaKIc8rowIWhSF9iYNjiw7xrIL96RPkurbNy9eLhFskW6mnQV7cUPV0rW+yD8v0gJeS7xocIwD/MwfsA+wD7APsA+wD7APsA+wD7APsA+wD7AP95AN6YI26UYJhvW7X4FgH5DwzwAwwA/3IAA6GWfxlJdekayisUDjSxpB4g4Y1aPbk4RMSk3oMyb2qWyjcUDiqbZhmXJ2RbPJF4rlItlK9JS9uqHq61jfZh2V6wEvJc3Ds2hvcjhlgBvqKAdMA2QsFs5Jr0i0UVigcaWNIvEHDGjR78vAJiUk9huRe1S0Ubigc1TZMM67OSDb5IvFcJFup3pIXN1Q9Xeub7MMySjCs1+Xg2LU3uB0zwAz0FQOmAbIXCmYl16RbKKxQONLGkHiDhjVo9uThExKTegzJvapbKNxQOKptmGZcnZFs8kXiuUi2Ur0lL26oerrWN9mHZXrAS8lzcOzaG9yOGWAG+ooB0wDZCwWzkmvSLRRWKBxpY0i8QcMaNHvy8AmJST2G5F7VLRRuKBzVNkwzrs5INvki8VwkW6nekhc3VD1d65vswzJKMKzX5eDYtTe4HTPADPQVA6YBshcKZiXXpFsorFA40saQeIOGNWj25OETEpN6DMm9qlso3FA4qm2YZlydkWzyReK5SLZSvSUvbqh6utY32YdlesBLyXNw7Nob3I4ZYAb6igHTANkLBbOSa9ItFFYoHGljSLxBwxo0e/LwCYlJPYbkXtUtFG4oHNU2TDOuzkg2+SLxXCRbqd6SFzdUPV3rm+zDMkowrNe1Do43TpagVDL/T1zYtrPp3gpMtMjYD8PPLsHGjp2IzrV2YPXYQRg/U4fdzhUz/3X31hKMPz4Fq19mDsUAzAAzYHnDtXunCpVnh2F/qQTlx0dh6kwNth92ps808HZqsf3+Ekx96yCUSyXY/+QkVC5tWo9HVCzUo/HGhMAqPb0CliMx/eb0wSZUT07C8IESlPYdhNHvLUHNFsyybxJOH25D7cwUjD5ehlIJrw8VqN6xH9FDcYj6WmN58GeNkRCoJLZWYGIfXrcnYOWeUt4mScLysAnhSVht9E0VE21NtW2T8dHR5byUapBwPfqBhCOV88CTIvYUrlQajw93oHZyOLoXPrmh/tIx7WKvy7VKV2LP4HqO+Wj3nrFV7yQl73PvoIhpSbpw0yKEUOAz9hFgkqom+7BMD3gpeevguLG2AAunFmDhhQkYEgHuKExh/tQCLN+wjGyT4Fi2rcDUIbwBKgHlxi5hREvs3qgI3YZP17VfcsjeWhS6DJ3csL4xzkFLhmQGBoYB0wCZMq4hA4X9MD7bHHuGT3U+R7vKVUBwDBrG8WzfCEzNz8E4BpOlMkxctIskKVgI27gQB8bEMZSE87ABK0ejcXr/kTmoHBuJgvEnF2DDMma1x9uFjfjms3xoCiqz4+JBRmnfBFQtgjvkxB4r6jhXDq2xPPmj2hNZhc4h/T2D4NjTJmvuEmO6JBxs7SJR/OzKvY9PIbA1rmc/WONIsjzxpJg9gysVFsfm2CTuWbMMjhN/pl2rUupS/Eg2zAW3yavrmI/qk30qF1sl0a1H33uHVonNEjI3zabklO/YRwZs0/doMyUY1utaB8eJwkmAW4HkuRk+9fnxJIzIJ/1H5mDF9KTf1PbBOsyIYBtvftQZgxKUDozC3IV41kW2fWoKZo4ehHLLLAnOGuNNwCgsb0XaNv5rLpp9wJmO2Zl41jrSW86ETzw3B6MHSlC5gU8FO9ixVYW5I9GMU+nAMEyerMLmA2zTgOrseDSjkprlaMDyYdRnClYtnx0kHHOCGWAGyAx0uwBsnIwCvNHXNiPZD9ZhzmJWrZvcpqLbsPJ0FAzPvRtHjXeXYVQEyxXY6DJDjXLssbTAOMvg+EYlCoYPL8OmsGEX1mcjLm1XDVnbJcf5fXOwjuMrAGy+NioeoJYtb0atsfSHC0QOrfvLkz+KPRFjemCcQXDsaZM1d4lBHRLJTS7aaW9rB4nJTy7cp24OHXwKwa1xPfvBGkcy4oknxewZXKkwNAO4ZAWl5XhE6s8Yz/ValagbJ6g854LbgzF/L3Gs91GU9793MMuNSql+0ElWp996MfZ1kt/uN5N9WKYHvJR8D4LjXdg4FS0zweXRK+dnYARvOE1P+uVJUFICazU4/qwKk6UyjM6vwPpbi/FysGFYugMASdsS7D88BZXzG5CKOXfXYQ4vRE8tg7j1vb0Yz+CMQuXCCiw9Gy+FibFlcIxLBCdmF2B1q5MdMtCdgKVbDdh8axHGH49u3hrnoxu3ibN1aNxdh8UjB0HeGG++NiIu1jLfrmO5nBlgBvwZMA2QTambsPwU3jiPwPJdWYpBXnRD3ekc7SxXygIAOQaV5mA9mVE14SpttKQ1FrbDoOBQBWprFfLqGwqOHMdG5EMFNPXduQhzdt1qZYwtnlHu3WUYUcd2jTM9a4sl2nlwiO1tsHz5s8HQOcCHtitHR6Dy/ipUCAGjLZavTbbctdhlKnC01SRKL7PlI9XO06dQli2ubz/Y4kj7fPGknL2CK/XFI87sjRxdgdr5iWjsyyw4Nl0z7K5Vqr6YpvGcD24vxvy9YqveP0m+B/cOiSxDguYHBgG2RT0Y+2yh1Hom+7CMEgzrdf2DY9mp++agFt8QyoBRvZkShiQBbrtl1bvQ2GouP2y8MS4GITE7Idv+3Qo0VFZkWt5AzddEiRzEk5mNh7X4JiE9c1x5PxbQ0Y5VWBzCm+hhmDxThfrWDuzGs0D100NCR3wwUL3VgJ3kphgA3o9uWlt4kDrzkRlgBnrGgGmAbArfMAYJ8iFZMk40GySpznKTasoDPOXhH8gnwvHqFKW6KWmNpTa+kW1wbOSIiGlr1/YFw42nHPvVh6qq/VraFivVjGiPbGuD5cufDYbUp/Vo9vvWelGJLZavTYhmi9VO19Zymq2t7VtLvHR09CnUwhbXtx9scSQzvnhSzl7BlfqqR+MYpVYwpGn2mv3YyL0BSy3aC7hGPoljPtq8F2xV+yaVNtpLu3dIydMyNG60xi5Zj7HPBc5kH5bpAS8l7x8cy05VlzlLYvQna7KueJIdzdhEG67EG3I9qMMSLpnG3w8Mw+ihKPBMBccqjsqihikHErFcWtSTA44WHONyavyTuqnyFZligy3x/mCkd/nQDKziO3Co85H90ZNE1HvfCMysxQG+0j5G4QMzwAxkxIBpgGxCuT8V7yy3iRB85lhCy3FGHbvkb22O1jaJZc3RChj1IZ/xaX8bLCy2xTPKlQ8+5aqgDjgUrJQYBw5tseSDWlf+rLiT+rfMEsvrXm835PK1yZa7VB91zdBs7SqO4LdGWbJPCOellGPV5z04N21xpF696HeU1f+4zcBEf7/YGMxJgtocafa6X6t0+L2A24sxn+5TeXGs91Ccl5NzHqvO2kgWxTQ/6CTJ8jePsc8SIVXNZB+WUYJhva5/cCw71TBzPP6GNscrA9A2MwByFnbifAPg4S7Uz0Q3ZVbB8UcLUVAdB+RyEE9mhNrNHMvguJsdu9GU8O5WHVZeiJZoD+HGXw93o1nkBw2oX5iLlnIPLYLYEix2kPKp5O3sVIdyhhlgBnrHgGmAVKW7vk/VTW4TQ95QlZNXKyDDd44TXIcLkb1NANCD9wyt8eQ1ItA7xz4cYlsruzz5s8L4chNq79Xi/w1oJCuYaAGjFRYa7mmTNXdJB9kkaLbaSLTmwyTM4byUYqxxPfvBGkcq5oknxfQ/7i40PpLnUw1qd5ov8WUfHAO4Xqskv/JI5TkX3B6M+WjvnrBVdkzL0f/eoUWkUkDlRmnqlvQY+1wATfZhmR7wUvL+wTFuVODzzrHCRBIcn63D9pcNWJ0lzBxvV6MNt45Wo8+ZKO8cL1xah+XnzO8cN2eWO9jxmwasPF2GkRPLULvbgPrZaOnf6PlG9BmVQzOw/N4mNG4tRTocXhZLv7cvRvVsd6pVqOAkM8AMEBkwDZApEXac7lUAAAbwSURBVPeq8T4GtB1Au8pVQHY/Wgi6W7WAdrgQUWwC2IZqyN2q4+uJ686lNNviznPgEFvaYfnxZ4ehOGEqSQsY7bH8bLLnLmVMlwzN1i7CxM/2fBikOfoUSrLH9esHexxpnx+elLJ3cKXGzWOI4Bgcr1VNLaMUmedccJv33q5jPlq7N2zVe6iZ9713aEpqTZG5aRVBK/EY+2hAUW2TfVhGCYb1uj0Ijrvs8qxaKp8QtZk5FkuUk2XVozDxLUJwDHKZRHMznMalaCdqXLrdbrfqZnDcwY6HO1C/VIHJp9Tdqteh8RBg5zZ+N3UktVv1upgwlxsoqBsAqWRwmhlgBnrJgGmA1OW7fDvSRq6K4/OtQiqWwHW4EJFxPL9tSsLz/OYlCUt2nAOH2NQay4M/awxpS+pICxhJWB42kbhL2dMpQ7O1kyT5G4kP2UgeHX0Km5NwPfqBhCPt8sCTIvYUrlQ6PgYJjnEDsDt4bxndc5YfH4WpMzXYtvjigaquC8+54HqO+WjznrFV7SAt7XPvoIlKZV24SQmgZjzGPioU1jfZh2V6wEvJ04NjF80DtZEbgU1e2hGfWFqZnYKlS9HSmOqpUbHsunxsNb3LdVa6fYk7b5egFM8iZwXDcpkBZiBiwDRA9oKbrOSadAuFFQpH2hgSb9CwBs2ePHxCYlKPIblXdQuFGwpHtQ3TjKszkk2+SDwXyVaqt+TFDVVP1/om+7CMEgzrdQcqOIYHNagMlaB8tAqNhw1YPzkZz+hGG3wl3yZ27QFCu8bFCSiXhqByI3n5i9CaqzIDzACVAdMASZVhqp+V3DyxQtqEdobEGzSsQbNH+n1IuyQm9ZiXjqFwQ+HovDOuzkg2+SLxXCRbqd6SFzdUPV3rm+zDMj3gpeQHKzjGpShbm+SlJ64d0q3d9t2G1TdAu8nh35kBZqA7A6YBsnur7jWykmtCDoUVCkfaGBJv0LAGzZ48fEJiUo8huVd1C4UbCke1DdOMqzOSTb5IPBfJVqq35MUNVU/X+ib7sIwSDOt1By44diWX2zEDzMDeZsA0QPbCoqzkmnQLhRUKR9oYEm/QsAbNnjx8QmJSjyG5V3ULhRsKR7UN04yrM5JNvkg8F8lWqrfkxQ1VT9f6JvuwTA94KXkOjl17g9sxA8xAXzFgGiB7oWBWck26hcIKhSNtDIk3aFiDZk8ePiExqceQ3Ku6hcINhaPahmnG1RnJJl8knotkK9Vb8uKGqqdrfZN9WEYJhvW6HBy79ga3YwaYgb5iwDRA9kLBrOSadAuFFQpH2hgSb9CwBs2ePHxCYlKPIblXdQuFGwpHtQ3TjKszkk2+SDwXyVaqt+TFDVVP1/om+7BMD3gpeQ6OXXuD2zEDzEBfMWAaIHuhYFZyTbqFwgqFI20MiTdoWINmTx4+ITGpx5Dcq7qFwg2Fo9qGacbVGckmXySei2Qr1Vvy4oaqp2t9k31YRgmG9bpdg2ME4H/mgH2AfYB9gH2AfYB9gH2AfYB9gH2AfYB9oJ98QA+sUTc94KXkuwbHX3zxBfA/c8A+wD7APsA+wD7APsA+wD7APsA+wD7APtAvPoCBsP7HwTEH7/zwgn2AfYB9gH2AfYB9gH2AfYB9gH2AfaBQPsDBMTt8oRy+X55KsR78hJR9gH2AfYB9gH2AfYB9gH2AfaC/fICDYw6OOThmH2AfYB9gH2AfYB9gH2AfYB9gH2AfKLwPcHDMJ0HhTwJ+YtdfT+y4P7g/2AfYB9gH2AfYB9gH2AfYB/LwAQ6OOTjm4Jh9gH2AfYB9gH2AfYB9gH2AfYB9gH2g8D7AwTGfBIU/CfJ4KsWY/DSUfYB9gH1gMHzg/qc1uP7zBl9L+X6KfYB9gH1gAHyAg+MB6ES+wRqMGyzux4L146fn4NulEpTwf+QVuKmMRTdP/3VUXirBt899lt3F9u3ZBKc0fQnuJTrcg0vTsW6lEsy+3bu+uffhOZj52yfgG7Ht3/jm38DMuZsKdjesOrx2bAz+4V9vZsdLwkM3XQi///YKzI+NwYk3t1r0blyZh7Gx4/DaJwR5XXS8/+kavPL8P8OR8TEYGxuDI0en4cWf3oSGaHcTlibHYP7K/RZd9HHozr9Pw9jU61Dvgifabdfh9eln4Ef/9i/CntdvN+3Z+uk0jI29CG8rcq6//AyM/dMS3PzlRTgxFumJugp9J+fhosrHVg0u/PB42p7//DncV+QJHRpXYF7YnMZK2XX7dTg+NgYvqn59/WV4Zuw4tOg8Pg9XGp342oKLc2Nw5IUrsPVFHdZOz8PSW915Temj26Dnt9fgReRl/EdwXfst8p0xGJu/0sqFVrc95n14+4dHYP5qj/W2xm/6SXsduQ5zwz7APhDGB7IIjv8fXzhxFDxMnoQAAAAASUVORK5CYII=;" vertex="1" parent="1">
          <mxGeometry x="10" y="420" width="967" height="225" as="geometry" />
        </mxCell>
        <mxCell id="ewbUBz9j84gc0yppB61c-159" value="Game" style="html=1;shadow=0;dashed=0;shape=mxgraph.bootstrap.rrect;rSize=5;strokeColor=none;strokeWidth=1;fillColor=#6C767D;fontColor=#ffffff;whiteSpace=wrap;align=left;verticalAlign=middle;fontStyle=0;fontSize=14;spacingLeft=10;" vertex="1" parent="1">
          <mxGeometry x="360" y="45" width="140" height="40" as="geometry" />
        </mxCell>
        <mxCell id="ewbUBz9j84gc0yppB61c-160" value="" style="shape=triangle;direction=south;fillColor=#ffffff;strokeColor=none;perimeter=none;" vertex="1" parent="ewbUBz9j84gc0yppB61c-159">
          <mxGeometry x="1" y="0.5" width="10" height="5" relative="1" as="geometry">
            <mxPoint x="-17" y="-2.5" as="offset" />
          </mxGeometry>
        </mxCell>
        <mxCell id="ewbUBz9j84gc0yppB61c-161" value="" style="html=1;shadow=0;dashed=0;shape=mxgraph.bootstrap.rrect;rSize=5;fillColor=#ffffff;strokeColor=#999999;" vertex="1" parent="1">
          <mxGeometry x="360" y="88" width="170" height="110" as="geometry" />
        </mxCell>
        <mxCell id="ewbUBz9j84gc0yppB61c-162" value="1 of 2 (fourball)" style="fillColor=none;strokeColor=none;align=left;spacing=20;fontSize=14;" vertex="1" parent="ewbUBz9j84gc0yppB61c-161">
          <mxGeometry width="170" height="30" relative="1" as="geometry">
            <mxPoint y="10" as="offset" />
          </mxGeometry>
        </mxCell>
        <mxCell id="ewbUBz9j84gc0yppB61c-163" value="Skins Net" style="fillColor=none;strokeColor=none;align=left;spacing=20;fontSize=14;" vertex="1" parent="ewbUBz9j84gc0yppB61c-161">
          <mxGeometry width="170" height="30" relative="1" as="geometry">
            <mxPoint y="40" as="offset" />
          </mxGeometry>
        </mxCell>
        <mxCell id="ewbUBz9j84gc0yppB61c-164" value="Skins Gross" style="fillColor=none;strokeColor=none;align=left;spacing=20;fontSize=14;" vertex="1" parent="ewbUBz9j84gc0yppB61c-161">
          <mxGeometry width="170" height="30" relative="1" as="geometry">
            <mxPoint y="70" as="offset" />
          </mxGeometry>
        </mxCell>
        <mxCell id="ewbUBz9j84gc0yppB61c-189" value="&lt;h1&gt;Page Details&lt;/h1&gt;&lt;div&gt;Select day of event (will default to today)&lt;/div&gt;&lt;div&gt;Select the type of game for the day and course&lt;/div&gt;&lt;div&gt;Table will load showing all infor for the given course (tee&#39;s, hole hcps, distances, etc...)&lt;/div&gt;&lt;div&gt;&amp;nbsp; - on the table there will be options to select a player/tee and enter all scores&lt;/div&gt;&lt;div&gt;&amp;nbsp; - as you enter the scores the card will automatically get marked up with net/gross values and handicap details for the holes you receive a stroke on&amp;nbsp;&lt;/div&gt;&lt;div&gt;If playing a team game there will be an option to select the team number also and team details will display at the bottom of the page with their respective scores and which ones were taken for the total&lt;/div&gt;" style="text;html=1;strokeColor=none;fillColor=none;spacing=5;spacingTop=-20;whiteSpace=wrap;overflow=hidden;rounded=0;" vertex="1" parent="1">
          <mxGeometry x="20" y="680" width="790" height="180" as="geometry" />
        </mxCell>
        <mxCell id="ewbUBz9j84gc0yppB61c-202" value="Course" style="html=1;shadow=0;dashed=0;shape=mxgraph.bootstrap.rrect;rSize=5;strokeColor=none;strokeWidth=1;fillColor=#6C767D;fontColor=#ffffff;whiteSpace=wrap;align=left;verticalAlign=middle;fontStyle=0;fontSize=14;spacingLeft=10;" vertex="1" parent="1">
          <mxGeometry x="580" y="40" width="140" height="40" as="geometry" />
        </mxCell>
        <mxCell id="ewbUBz9j84gc0yppB61c-203" value="" style="shape=triangle;direction=south;fillColor=#ffffff;strokeColor=none;perimeter=none;" vertex="1" parent="ewbUBz9j84gc0yppB61c-202">
          <mxGeometry x="1" y="0.5" width="10" height="5" relative="1" as="geometry">
            <mxPoint x="-17" y="-2.5" as="offset" />
          </mxGeometry>
        </mxCell>
        <mxCell id="ewbUBz9j84gc0yppB61c-204" value="" style="html=1;shadow=0;dashed=0;shape=mxgraph.bootstrap.rrect;rSize=5;fillColor=#ffffff;strokeColor=#999999;" vertex="1" parent="1">
          <mxGeometry x="580" y="83" width="170" height="110" as="geometry" />
        </mxCell>
        <mxCell id="ewbUBz9j84gc0yppB61c-205" value="August National" style="fillColor=none;strokeColor=none;align=left;spacing=20;fontSize=14;" vertex="1" parent="ewbUBz9j84gc0yppB61c-204">
          <mxGeometry width="170" height="30" relative="1" as="geometry">
            <mxPoint y="10" as="offset" />
          </mxGeometry>
        </mxCell>
        <mxCell id="ewbUBz9j84gc0yppB61c-206" value="Ballybunion" style="fillColor=none;strokeColor=none;align=left;spacing=20;fontSize=14;" vertex="1" parent="ewbUBz9j84gc0yppB61c-204">
          <mxGeometry width="170" height="30" relative="1" as="geometry">
            <mxPoint y="40" as="offset" />
          </mxGeometry>
        </mxCell>
        <mxCell id="ewbUBz9j84gc0yppB61c-207" value="Cairn" style="fillColor=none;strokeColor=none;align=left;spacing=20;fontSize=14;" vertex="1" parent="ewbUBz9j84gc0yppB61c-204">
          <mxGeometry width="170" height="30" relative="1" as="geometry">
            <mxPoint y="70" as="offset" />
          </mxGeometry>
        </mxCell>
      </root>
    </mxGraphModel>
  </diagram>
</mxfile>
